<?xml version="1.0" encoding="UTF-8" standalone="no"?>
<!-- Created with Inkscape (http://www.inkscape.org/) -->

<svg
   version="1.1"
   id="svg1"
   width="157.69939"
   height="95.662865"
   viewBox="0 0 157.69939 95.662866"
   xmlns="http://www.w3.org/2000/svg"
   xmlns:svg="http://www.w3.org/2000/svg">
  <defs
     id="defs1" />
  <g
     id="g1"
     transform="translate(-19.580639,-41.600002)">
    <g
       id="g2">
      <path
         style="fill:#e2cb9d;fill-opacity:1"
         d="m 161.78313,136.60103 c -0.66614,-0.52399 -0.84035,-0.90564 -0.76315,-1.6719 l 0.10003,-0.99292 -65.120006,-5.0324 c -35.816002,-2.76782 -65.577988,-5.03946 -66.137747,-5.0481 -0.817641,-0.0126 -1.037848,0.12586 -1.12,0.70429 -0.0635,0.44709 -0.526792,0.93208 -1.222256,1.27951 -0.71001,0.35469 -1.857942,0.55968 -3.135891,0.56 -1.182045,2.9e-4 -2.406409,-0.20145 -2.96,-0.48772 -0.781266,-0.40401 -0.944109,-0.6877 -0.944109,-1.64473 0,-0.69625 -0.206091,-1.3072 -0.517859,-1.53517 -0.382073,-0.27938 -0.46033,-0.6406 -0.298453,-1.37762 0.135191,-0.61552 0.71684,-1.40492 1.515357,-2.05661 0.712773,-0.58171 2.035076,-1.79966 2.938453,-2.70656 0.903376,-0.9069 1.979063,-1.6989 2.390416,-1.76 0.733083,-0.10889 0.749481,-0.19042 0.826925,-4.1111 0.0611,-3.09343 0.211923,-4.28004 0.665448,-5.23561 0.323236,-0.68106 1.243722,-1.71261 2.050931,-2.2984 0.805472,-0.58453 3.226442,-2.16224 5.379934,-3.506022 2.153493,-1.34378 5.610458,-3.204126 7.682145,-4.134101 2.071687,-0.929975 4.414704,-2.006696 5.206704,-2.392713 0.872666,-0.425334 1.187852,-0.499621 0.8,-0.188556 -0.352,0.282312 -2.184574,1.396195 -4.072387,2.475296 -1.887813,1.079102 -3.382749,2.011641 -3.32208,2.072309 0.06067,0.06067 0.915088,-0.190801 1.89871,-0.558821 0.983622,-0.36802 2.861963,-1.369954 4.17409,-2.22652 1.312128,-0.856567 3.385694,-2.540523 4.607924,-3.742126 1.222231,-1.201603 2.805338,-2.976733 3.518016,-3.944733 0.712677,-0.968 1.79848,-2.624 2.412894,-3.68 0.614414,-1.056 1.69584,-3.31176 2.403169,-5.0128 0.707329,-1.70104 2.08162,-5.540317 3.053979,-8.531726 0.97236,-2.991409 2.226842,-6.351649 2.787738,-7.4672 0.560897,-1.115551 1.734076,-3.064606 2.607066,-4.331233 0.87299,-1.266627 2.79749,-3.464833 4.276667,-4.884902 1.479177,-1.420069 3.662493,-3.205757 4.851814,-3.968196 1.18932,-0.762438 3.386401,-2.041038 4.882401,-2.841332 1.496,-0.800293 4.016,-1.963909 5.6,-2.585811 1.584,-0.621902 3.98993,-1.357097 5.34651,-1.633766 1.35658,-0.27667 3.670133,-0.503035 5.141229,-0.503035 1.471098,0 3.529168,0.151305 4.573488,0.336233 1.04433,0.184928 3.05077,0.706809 4.45877,1.159736 1.408,0.452927 3.51864,1.320438 4.69031,1.927802 1.17167,0.607365 3.33167,2.098314 4.8,3.31322 1.46833,1.214905 3.45022,3.112089 4.40419,4.215964 0.95397,1.103875 2.37352,2.992307 3.15456,4.196516 0.78105,1.20421 1.96721,3.36421 2.63592,4.800001 0.66871,1.43579 2.24251,5.612389 3.49734,9.281329 1.25484,3.668941 2.8705,7.844941 3.59037,9.28 0.71986,1.43506 2.17655,3.878411 3.23707,5.429669 1.1344,1.65931 3.00855,3.803894 4.55233,5.209217 1.44326,1.313812 3.90521,3.417836 5.47101,4.675611 1.5658,1.257774 4.12612,3.127898 5.68961,4.15583 1.56349,1.02793 5.01261,3.0547 7.6647,4.50392 2.70204,1.47652 5.34764,3.17057 6.01761,3.85325 0.65759,0.67007 1.52715,1.89407 1.93236,2.72 0.61856,1.26082 0.75527,2.12852 0.85225,5.40931 l 0.1155,3.90761 1.18179,0.25239 c 0.90586,0.19346 1.68277,0.79997 3.32744,2.5976 1.57304,1.71935 2.14565,2.58316 2.14565,3.23685 0,0.4904 -0.29261,1.26363 -0.65024,1.71828 -0.44743,0.56882 -0.58759,1.07629 -0.44935,1.62705 0.14996,0.59753 -6e-4,1.00189 -0.59401,1.5953 -0.43719,0.4372 -1.35099,0.89668 -2.03065,1.02107 -0.73614,0.13473 -1.75006,0.68681 -2.50786,1.36552 -0.69966,0.62664 -1.49166,1.57841 -1.76,2.11504 -0.31,0.61993 -0.89627,1.11495 -1.60789,1.35762 -0.616,0.21007 -2.00058,0.39007 -3.07685,0.4 -1.52811,0.0141 -2.14596,-0.1307 -2.82003,-0.66091 z m 4.32506,-1.10653 c 0.43176,-0.39074 0.70515,-0.42706 1.20416,-0.16 0.35507,0.19003 0.79905,0.34551 0.98662,0.34551 0.18757,0 0.34104,-0.26843 0.34104,-0.59651 0,-0.46705 -0.3222,-0.64067 -1.48467,-0.8 -0.81656,-0.11192 -2.41058,-0.20349 -3.54225,-0.20349 -1.95302,0 -2.05201,0.0366 -1.94774,0.72 0.0684,0.44824 0.28815,0.67329 0.58225,0.59625 0.25982,-0.068 0.81527,-0.19645 1.23432,-0.28531 0.50054,-0.10615 0.86278,0.0186 1.05591,0.36374 0.16169,0.28892 0.45548,0.52532 0.65288,0.52532 0.1974,0 0.61026,-0.22748 0.91748,-0.50551 z m -1.94818,-3.52403 c -0.264,-0.0634 -7.176,-0.69299 -15.36,-1.39906 -8.184,-0.70608 -18.91201,-1.57839 -23.84001,-1.93847 -4.928,-0.36009 -11.264,-0.8637 -14.08,-1.11914 -2.816,-0.25544 -11.239996,-1.03684 -18.719996,-1.73644 -7.480001,-0.6996 -17.272001,-1.56086 -21.760001,-1.91391 -4.488,-0.35305 -11.472001,-0.86386 -15.520001,-1.13513 -4.048,-0.27126 -10.6,-0.63419 -14.56,-0.8065 -3.960001,-0.1723 -7.920001,-0.29628 -8.800001,-0.27549 -1.504036,0.0355 -1.46565,0.0538 0.64,0.30536 1.232,0.14717 7.496001,0.70762 13.920001,1.24546 6.424,0.53783 20.968001,1.83402 32.320001,2.88042 11.352,1.04641 26.687997,2.40515 34.079997,3.01942 7.392,0.61428 17.688,1.41394 22.88001,1.77702 5.192,0.36308 11.816,0.7796 14.72,0.9256 2.904,0.146 7.368,0.27011 9.92,0.2758 2.552,0.006 4.424,-0.0415 4.16,-0.10494 z m 11.2,-2.08965 c 0,-0.56743 -0.079,-0.61364 -0.48,-0.28082 -0.264,0.21911 -0.48,0.52474 -0.48,0.67919 0,0.15445 0.216,0.28081 0.48,0.28081 0.27589,0 0.48,-0.28879 0.48,-0.67918 z m -3.66974,-2.96416 c 1.75435,-1.65185 3.09626,-3.10133 2.982,-3.22107 -0.11425,-0.11975 -1.65115,1.05176 -3.41531,2.60335 -1.76417,1.55158 -3.21869,3.00106 -3.23227,3.22106 -0.0136,0.22 0.0879,0.4 0.22558,0.4 0.13764,0 1.68564,-1.3515 3.44,-3.00334 z m -17.29026,-0.7145 c -2.288,-0.23837 -11.936,-1.08054 -21.44,-1.8715 -9.50401,-0.79095 -24.62401,-2.01475 -33.600006,-2.71955 -8.976001,-0.7048 -23.304001,-1.78706 -31.840001,-2.40501 -8.536001,-0.61795 -15.724001,-1.12412 -15.973334,-1.12482 -0.249334,-7e-4 -0.389245,0.0628 -0.310915,0.14114 0.07833,0.0783 4.098331,0.5061 8.933334,0.9506 4.835003,0.4445 14.910915,1.31383 22.390915,1.93185 7.48,0.61802 20.007997,1.62812 27.839997,2.24468 7.832,0.61656 20.288,1.55234 27.68001,2.07951 7.392,0.52717 14.16,1.00734 15.04,1.06704 0.88,0.0597 2.464,0.1155 3.52,0.124 1.14211,0.009 0.23458,-0.16013 -2.24,-0.41794 z M 26.765532,124.73172 c 1.136805,0.029 1.303646,-0.0499 1.171819,-0.55401 -0.125647,-0.48047 -0.601376,-0.62665 -2.605531,-0.80063 -1.348501,-0.11705 -2.93224,-0.29514 -3.519421,-0.39574 -0.981524,-0.16817 -1.058926,-0.12158 -0.96,0.57787 0.09862,0.69725 0.234554,0.75191 1.627602,0.65439 1.258702,-0.0881 1.52,-0.0129 1.52,0.43732 0,0.42412 0.158382,0.4891 0.72,0.29537 0.396,-0.1366 1.316489,-0.23316 2.045531,-0.21457 z M 163.15271,109.36296 c 1.89411,-1.41232 2.54666,-2.06576 2.24,-2.24309 -0.23799,-0.13762 -2.50015,-1.47222 -5.02703,-2.96578 -2.52688,-1.49356 -6.19549,-3.81512 -8.15247,-5.159018 -1.95698,-1.343902 -4.52208,-3.212563 -5.70022,-4.15258 -1.17814,-0.940017 -3.01899,-2.520993 -4.09077,-3.513282 -1.91765,-1.775404 -1.96524,-1.79759 -2.98546,-1.391967 -0.57022,0.226705 -2.00875,0.89338 -3.19675,1.481499 -1.35798,0.672265 -2.16,1.264771 -2.16,1.595726 0,0.28953 0.58919,1.290119 1.30931,2.223532 0.72012,0.933412 2.26255,2.510861 3.42763,3.505441 1.16507,0.99458 3.18956,2.531199 4.49887,3.414719 1.30932,0.88351 5.49088,3.31372 9.29238,5.40046 3.80149,2.08673 7.12781,3.79477 7.39181,3.79564 0.264,8.6e-4 1.68271,-0.89522 3.1527,-1.9913 z m -63.985702,-9.05494 c 1.125852,-0.26538 3.069852,-1.012917 4.320002,-1.661182 1.4969,-0.776222 3.10276,-2.002927 4.7032,-3.592749 1.88586,-1.87335 2.7277,-3.023343 3.75836,-5.134086 0.73049,-1.496 1.56555,-3.656 1.85569,-4.8 0.32041,-1.263371 0.52444,-3.336353 0.51969,-5.28 -0.005,-1.903103 -0.22933,-4.107828 -0.55436,-5.44 -0.30059,-1.232 -1.17734,-3.536 -1.94834,-5.12 -0.771,-1.584 -1.66314,-3.209747 -1.98254,-3.612771 l -0.58072,-0.732771 -6.549,5.151212 -6.548986,5.151211 -0.165701,1.501559 c -0.09114,0.825858 -0.285124,1.690442 -0.431085,1.921299 -0.145961,0.230856 -0.594691,0.544941 -0.997178,0.697966 -0.701251,0.266615 -0.739007,0.462793 -0.904601,4.700262 -0.09504,2.432118 -0.174262,5.495183 -0.176041,6.80681 -0.0018,1.311628 0.107991,2.204812 0.243933,1.984854 0.191252,-0.309454 0.339363,-0.288834 0.65472,0.09115 0.224154,0.27009 0.324894,0.706478 0.223866,0.969753 -0.104898,0.273361 -0.394768,0.397681 -0.6758,0.289838 -0.270662,-0.103863 -0.492113,-0.08616 -0.492113,0.03934 0,0.1255 0.36,0.511358 0.8,0.857462 0.503972,0.396425 0.8,0.952236 0.8,1.502054 0,0.480026 -0.1728,1.045575 -0.384,1.256775 -0.2112,0.2112 -0.501944,0.384 -0.646097,0.384 -0.144153,0 -0.171742,-0.36 -0.06131,-0.8 0.110433,-0.44 0.110433,-1.16 0,-1.6 -0.110432,-0.44 -0.342043,-0.8 -0.51469,-0.8 -0.175309,0 -0.313903,0.989003 -0.313903,2.24 0,1.28 -0.137143,2.24 -0.32,2.24 -0.176,0 -0.32,-0.270368 -0.32,-0.600818 0,-0.33045 -0.238307,-0.79845 -0.52957,-1.04 -0.291263,-0.24155 -0.723263,-0.902557 -0.96,-1.468904 -0.236737,-0.566348 -0.430431,-1.230253 -0.430431,-1.475345 0,-0.245093 0.350402,-0.96197 0.778671,-1.593059 0.745757,-1.098934 0.782955,-1.401783 0.88,-7.164656 l 0.10133,-6.017219 -0.72007,-0.102265 c -0.470719,-0.06685 -1.215067,0.32099 -2.149506,1.12 -1.010598,0.864129 -1.432511,1.469726 -1.43993,2.066814 -0.0058,0.464502 -0.262495,1.154046 -0.570495,1.532319 -0.308,0.378273 -1.518099,1.152194 -2.68911,1.719824 l -2.129109,1.032056 0.415565,-0.804374 c 0.228561,-0.442406 0.588057,-1.452374 0.798879,-2.244374 0.210822,-0.792 0.608235,-1.692 0.88314,-2 0.274905,-0.308 0.846745,-0.56 1.270755,-0.56 0.517655,0 1.285824,-0.551929 2.338205,-1.68 0.970093,-1.039864 1.575976,-1.984827 1.590107,-2.48 0.01256,-0.44 0.414046,-1.364457 0.892199,-2.054349 0.478153,-0.689891 1.263623,-1.385309 1.745489,-1.545373 0.634949,-0.210914 1.154646,-0.152077 1.887945,0.21374 0.584995,0.291834 1.160337,0.390636 1.36388,0.234216 0.193631,-0.148803 3.088056,-2.404236 6.432052,-5.012075 3.344,-2.607838 6.2177,-4.862718 6.386,-5.010842 0.18385,-0.161803 -0.32715,-0.919146 -1.28,-1.897089 -0.8723,-0.895273 -2.42442,-2.202815 -3.44915,-2.905648 -1.02474,-0.702833 -2.76628,-1.700501 -3.8701,-2.217041 -1.103823,-0.516539 -3.073402,-1.166383 -4.376847,-1.444097 -1.644672,-0.350417 -3.300188,-0.455288 -5.4099,-0.342699 -2.087944,0.111428 -3.703389,0.404836 -5.158262,0.936879 -1.165045,0.426054 -2.821045,1.185973 -3.68,1.688709 -0.858956,0.502737 -2.339949,1.643427 -3.291097,2.534867 -0.951147,0.891441 -2.405229,2.649702 -3.231293,3.907247 -0.868012,1.321405 -1.893914,3.482406 -2.430641,5.120001 -0.821615,2.506808 -0.927011,3.276356 -0.913998,6.673554 0.0114,2.977037 0.175533,4.406603 0.73034,6.361262 0.393598,1.386694 1.106979,3.320863 1.585291,4.298153 0.478313,0.97729 1.930657,2.904888 3.227431,4.283552 1.296775,1.378663 3.528775,3.28098 4.96,4.22737 1.431226,0.94639 3.362611,2.043842 4.291967,2.438782 0.929356,0.39494 1.636132,0.771679 1.570612,0.837199 -0.06552,0.06552 -1.149901,-0.305932 -2.409738,-0.825447 -1.259836,-0.519514 -2.290612,-0.882812 -2.290612,-0.807328 0,0.07549 0.881665,0.582308 1.959256,1.126274 1.077591,0.543966 2.985591,1.25811 4.24,1.586988 1.331356,0.34905 3.412979,0.60332 5.000745,0.61084 1.496,0.007 3.641151,-0.20424 4.767004,-0.46963 z M 100.736,96.576004 c 0.2112,-0.2112 0.384,-0.848915 0.384,-1.417143 0,-0.568229 -0.22628,-1.259429 -0.50285,-1.536 -0.27657,-0.276572 -0.36453,-0.502857 -0.19545,-0.502857 0.16907,0 0.62936,0.260701 1.02285,0.579337 0.4193,0.339522 0.71545,0.935196 0.71545,1.439014 0,0.472823 -0.17963,1.076122 -0.39918,1.340663 -0.21955,0.264542 -0.62635,0.480986 -0.904,0.480986 -0.39263,0 -0.41948,-0.08533 -0.12082,-0.384 z m -2.438253,-0.950935 c 0.05624,-0.382215 0.282181,-0.754189 0.502088,-0.826611 0.219908,-0.07242 0.492891,0.110832 0.60663,0.407231 0.119193,0.310613 0.0176,0.658709 -0.239832,0.82171 -0.245646,0.155543 -0.564645,0.28501 -0.708886,0.287705 -0.144241,0.0027 -0.216241,-0.307821 -0.16,-0.690035 z M 85.340003,95.153337 c -0.121,-0.121 -0.22,-0.575003 -0.22,-1.008896 0,-0.433893 0.299745,-1.273893 0.666099,-1.866667 0.366355,-0.592774 0.721835,-1.077771 0.789957,-1.077771 0.06812,0 0.04091,0.216146 -0.06046,0.480323 -0.101374,0.264177 -0.204855,1.152249 -0.229957,1.973492 -0.0251,0.821243 -0.19864,1.544098 -0.38564,1.606344 -0.187,0.06225 -0.439,0.01418 -0.559999,-0.106825 z M 98.61053,93.120004 c 0,-0.44 0.07263,-0.62 0.161404,-0.4 0.08877,0.22 0.08877,0.58 0,0.8 -0.08877,0.22 -0.161404,0.04 -0.161404,-0.4 z m 0.829474,-1.180585 c -0.308,-0.08049 -0.56,-0.351784 -0.56,-0.602879 0,-0.251095 0.198,-0.456537 0.44,-0.456537 0.242,0 0.889996,0.09 1.439996,0.2 0.55,0.11 1,0.398 1,0.64 0,0.275666 -0.32867,0.426136 -0.88,0.40288 -0.484,-0.02042 -1.131996,-0.102975 -1.439996,-0.183464 z m 8.342256,-0.499416 c -0.0821,-0.578345 -0.33835,-0.739539 -1.30226,-0.819316 -0.66,-0.05463 -1.2,-0.205709 -1.2,-0.335744 0,-0.130035 0.504,-0.177588 1.12,-0.105673 l 1.12,0.130753 v -1.493895 c 0,-0.982914 -0.11753,-1.421255 -0.34362,-1.281524 -0.18899,0.116804 -0.15435,-0.0907 0.077,-0.461115 0.23132,-0.370417 0.67396,-0.673486 0.98362,-0.673486 0.47887,0 0.56302,0.306909 0.56302,2.053334 0,1.343251 0.13833,2.10915 0.4,2.214737 0.32,0.129122 0.32,0.166456 0,0.186666 -0.22,0.01389 -0.4,0.313263 -0.4,0.665263 0,0.352 -0.20598,0.640001 -0.45774,0.640001 -0.25176,0 -0.50376,-0.324001 -0.56,-0.720001 z m -22.262257,-1.01151 c -0.74807,-0.171291 -1.36,-0.49973 -1.36,-0.729949 0,-0.265409 0.380505,-0.40687 1.04,-0.386643 0.572,0.01754 1.370371,0.125544 1.774158,0.24 0.621282,0.176107 0.670482,0.283432 0.32,0.698051 -0.335276,0.396633 -0.673186,0.430638 -1.774158,0.178541 z m -8.541855,-2.179692 c -0.27398,-0.391161 -0.498145,-0.877529 -0.498145,-1.080817 0,-0.203289 0.201407,-0.536769 0.447572,-0.741068 0.347893,-0.288726 0.371869,-0.572012 0.107656,-1.271994 -0.186954,-0.495298 -0.248881,-1.137777 -0.137616,-1.42773 0.111266,-0.289954 0.346302,-0.527189 0.522302,-0.527189 0.176,0 0.23957,0.209597 0.141267,0.46577 -0.100091,0.260833 0.196804,0.841306 0.674771,1.319273 0.637427,0.637427 0.945589,0.761417 1.217244,0.489761 0.270661,-0.270661 0.271447,-0.608261 0.0031,-1.319273 -0.19837,-0.525542 -0.304501,-0.955531 -0.235846,-0.955531 0.06865,0 0.36118,0.360721 0.650056,0.801602 0.411027,0.627307 0.442766,0.900965 0.145968,1.258585 -0.296451,0.357201 -0.267923,0.626906 0.130649,1.235204 0.389972,0.595174 0.434505,0.976554 0.189329,1.621416 -0.17632,0.463756 -0.448177,0.843193 -0.604127,0.843193 -0.15595,0 -0.218388,-0.340848 -0.138751,-0.757439 0.108662,-0.568429 -0.09441,-0.927766 -0.813774,-1.440001 -0.527212,-0.375408 -1.044338,-0.68256 -1.149169,-0.68256 -0.10483,0 -0.190601,0.4752 -0.190601,1.056 0,0.5808 0.1728,1.2288 0.384,1.44 0.277505,0.277506 0.282538,0.384 0.01814,0.384 -0.20122,0 -0.59002,-0.320041 -0.864,-0.711202 z M 111.296,84.096003 c 0.2112,-0.2112 0.384,-0.850701 0.384,-1.421114 0,-0.570413 -0.15099,-1.130433 -0.33553,-1.244489 -0.22931,-0.14172 -0.2167,-0.350574 0.0398,-0.65968 0.21241,-0.255946 0.29333,-0.862559 0.18638,-1.397308 -0.14949,-0.747444 -0.0904,-0.907144 0.28292,-0.76391 0.25955,0.0996 0.56391,0.547616 0.67634,0.995587 0.1416,0.564157 0.0433,0.932303 -0.31978,1.197803 -0.47941,0.350549 -0.46976,0.432583 0.11281,0.959807 0.35036,0.317073 0.63702,0.834013 0.63702,1.148755 0,0.314742 -0.32004,0.796424 -0.7112,1.070404 -0.39116,0.27398 -0.85196,0.498145 -1.024,0.498145 -0.17204,0 -0.14,-0.1728 0.0712,-0.384 z m -1.97136,-0.478033 c -0.11255,-0.112548 -0.20464,-0.468634 -0.20464,-0.7913 0,-0.322667 0.216,-0.586667 0.48,-0.586667 0.264,0 0.48,0.279502 0.48,0.621115 0,0.341613 -0.12391,0.697698 -0.27536,0.7913 -0.15145,0.0936 -0.36745,0.0781 -0.48,-0.03445 z M 74.304003,80.896003 c -0.2112,-0.2112 -0.384,-0.6432 -0.384,-0.96 0,-0.3168 0.218287,-0.576 0.485083,-0.576 0.341903,0 0.463492,0.283359 0.411933,0.96 -0.04023,0.528 -0.08572,0.96 -0.101083,0.96 -0.01536,0 -0.200733,-0.1728 -0.411933,-0.384 z m 1.811217,-0.03883 c 0.309856,-0.375637 0.39983,-1.228382 0.312363,-2.960474 l -0.122854,-2.432862 0.727637,0.845929 c 0.457975,0.532427 0.727637,1.262183 0.727637,1.969121 0,0.617756 -0.1473,1.398426 -0.327334,1.734821 -0.180034,0.336396 -0.648034,0.782505 -1.04,0.991354 -0.643381,0.342807 -0.670355,0.32843 -0.277449,-0.147889 z m 33.18853,-1.070678 c -0.1126,-0.29343 -0.0787,-0.659533 0.0753,-0.813562 0.16007,-0.16007 0.45056,-0.0746 0.67804,0.199492 0.21889,0.26375 0.30509,0.629853 0.19155,0.813562 -0.11354,0.18371 -0.32653,0.334018 -0.47331,0.334018 -0.14679,0 -0.35901,-0.240079 -0.47161,-0.53351 z m -34.841488,-1.10205 c -0.317757,-0.184854 -0.709717,-0.683224 -0.871023,-1.10749 -0.161305,-0.424266 -0.208381,-0.992643 -0.104612,-1.263061 0.103769,-0.270418 0.42373,-0.617477 0.711024,-0.771243 0.451534,-0.241672 0.507688,-0.09554 0.414188,1.077868 -0.07569,0.949899 0.05126,1.516872 0.422857,1.888465 0.292062,0.292061 0.412735,0.526642 0.268164,0.52129 -0.144571,-0.0054 -0.52284,-0.160975 -0.840598,-0.345829 z m 34.088378,-4.622979 c -0.39147,-0.274196 -0.87776,-0.395947 -1.08064,-0.270557 -0.22992,0.142098 -0.28183,0.08713 -0.1378,-0.145924 0.14112,-0.228324 0.89463,-0.34102 1.93529,-0.289443 1.51074,0.07487 1.67047,0.148033 1.4071,0.644463 -0.16341,0.308 -0.548,0.56 -0.85464,0.56 -0.30665,0 -0.87784,-0.224342 -1.26931,-0.498539 z m 0.50536,-2.445461 c 0.2112,-0.2112 0.384,-0.852045 0.384,-1.424099 0,-0.652983 -0.20842,-1.161498 -0.56,-1.36627 -0.53333,-0.310638 -0.53333,-0.326633 0,-0.335901 0.308,-0.0054 0.848,0.27827 1.2,0.63027 0.352,0.352 0.64,0.917714 0.64,1.257143 0,0.339428 -0.22628,0.843428 -0.50285,1.12 -0.27657,0.276571 -0.73737,0.502857 -1.024,0.502857 -0.40534,0 -0.43581,-0.08533 -0.13715,-0.384 z M 78.185572,70.84184 c -0.336266,-0.513206 -0.585569,-1.474912 -0.585569,-2.258875 0,-0.995278 0.197906,-1.562682 0.730396,-2.094074 l 0.730397,-0.728888 -0.362036,1.040962 c -0.256663,0.737982 -0.269012,1.576229 -0.04243,2.88 0.175783,1.011471 0.273527,1.887532 0.217208,1.946802 -0.05632,0.05927 -0.365903,-0.294396 -0.687966,-0.785927 z m 2.395944,-1.328619 c 0.07736,-1.369075 -0.02457,-2.523232 -0.264162,-2.991216 l -0.390124,-0.762002 0.720794,0.693296 c 0.488978,0.470324 0.768696,1.191819 0.869736,2.243364 0.115239,1.199309 0.01191,1.719296 -0.456632,2.29792 l -0.605574,0.747852 z m -5.127231,-0.473218 c -0.07587,-1.276 -0.07532,-2.572 0.0012,-2.88 0.07653,-0.308 0.338356,-0.560001 0.581829,-0.560001 0.344113,0 0.442678,0.64125 0.442678,2.880001 0,2.242537 -0.09825,2.88 -0.443889,2.88 -0.325018,0 -0.480829,-0.621287 -0.581829,-2.32 z m 31.664465,1.28 c -0.074,-0.22 -0.0684,-0.655355 0.0126,-0.967455 0.14091,-0.543273 0.16553,-0.543273 0.57774,0 0.2368,0.3121 0.43513,0.747455 0.44073,0.967455 0.006,0.22 -0.19383,0.4 -0.44316,0.4 -0.24933,0 -0.5139,-0.18 -0.58792,-0.4 z m -4.88539,-5.801002 c -0.12168,-1.298551 -0.12426,-2.666551 -0.006,-3.04 0.11852,-0.373449 0.41192,-0.678999 0.65198,-0.678999 0.33086,0 0.46115,0.735779 0.53844,3.040718 0.0893,2.664275 0.036,3.040629 -0.43074,3.04 -0.42871,-5.77e-4 -0.57589,-0.461626 -0.75395,-2.361719 z M 85.383254,63.120002 c -0.06125,-1.188 -0.05675,-2.484 0.01,-2.88 0.06675,-0.396 0.320572,-0.72 0.564054,-0.72 0.344135,0 0.442695,0.641196 0.442695,2.88 0,2.269463 -0.09597,2.88 -0.452695,2.88 -0.334552,0 -0.481758,-0.563714 -0.564054,-2.16 z m -3.195946,-0.234076 c -0.05902,-1.140742 -0.02899,-2.399985 0.06673,-2.798319 0.09572,-0.398334 0.419716,-0.771559 0.72,-0.829388 0.482236,-0.09287 0.545969,0.23379 0.545969,2.79832 0,2.646999 -0.05412,2.903463 -0.612695,2.903463 -0.529537,0 -0.62726,-0.281505 -0.72,-2.074076 z m 12.586467,0.240845 c -0.638672,-0.44476 -0.787865,-0.453872 -1.0351,-0.06321 -0.211708,0.33452 -0.29018,0.346843 -0.293771,0.04613 -0.0027,-0.225672 0.3191,-0.532656 0.7151,-0.682187 0.42073,-0.15887 0.966362,-0.142627 1.312714,0.03908 0.325993,0.171024 0.865993,0.23949 1.2,0.152145 0.334007,-0.08734 0.607286,-0.05709 0.607286,0.06723 0,0.124323 -0.1728,0.398841 -0.384,0.610041 -0.2112,0.2112 -0.6072,0.376447 -0.88,0.367216 -0.2728,-0.0092 -0.831803,-0.250633 -1.242229,-0.536447 z M 91.05883,62.960002 c -0.0666,-0.22 -0.25067,-1.12217 -0.409049,-2.004823 -0.159685,-0.889937 -0.16847,-2.065955 -0.01972,-2.64 0.149347,-0.576349 0.476939,-1.035177 0.739092,-1.035177 0.381425,0 0.47085,0.577366 0.47085,3.04 0,1.875005 -0.126479,3.04 -0.330043,3.04 -0.181523,0 -0.384532,-0.18 -0.45113,-0.4 z m 4.411578,-2.425197 c 0.291277,-0.321858 0.529596,-0.793817 0.529596,-1.048798 0,-0.25498 -0.224166,-0.783642 -0.498146,-1.174803 -0.27398,-0.391161 -0.37802,-0.711202 -0.231202,-0.711202 0.146819,0 0.586985,0.224166 0.978146,0.498145 0.4577,0.320587 0.711202,0.829848 0.711202,1.428742 0,0.592547 -0.224845,1.050929 -0.618963,1.261855 -0.34043,0.182192 -0.794748,0.331258 -1.009596,0.331258 -0.256852,0 -0.209261,-0.200413 0.138963,-0.585197 z m -1.817071,-0.908136 c -0.117333,-0.117333 -0.213333,-0.499652 -0.213333,-0.849596 0,-0.613463 0.02266,-0.615753 0.632454,-0.0639 0.347849,0.3148 0.555351,0.697118 0.461114,0.849596 -0.09424,0.152478 -0.282841,0.277233 -0.419121,0.277233 -0.136279,0 -0.343781,-0.096 -0.461114,-0.213333 z m -1.213911,36.233394 c -0.03127,-0.956967 -0.174099,-1.928967 -0.317395,-2.16 -0.154516,-0.249123 -0.255175,0.231035 -0.247359,1.179941 0.0072,0.88 0.08412,1.852 0.17082,2.16 0.0867,0.308 0.223599,0.56 0.304215,0.56 0.08062,0 0.12099,-0.782974 0.08972,-1.739941 z M 130.6986,90.036794 c -0.99798,-1.560235 -1.95726,-2.980791 -2.13176,-3.156791 -0.17449,-0.176 0.005,0.328 0.39994,1.12 0.39446,0.792 1.29646,2.269843 2.00445,3.284096 0.70799,1.014252 1.34454,1.786808 1.41456,1.71679 0.07,-0.07002 -0.68922,-1.403861 -1.68719,-2.964095 z M 119.27776,78.000003 c -0.13833,-3.389925 -0.3464,-4.785331 -1.03782,-6.96 -0.47564,-1.496 -1.35702,-3.656 -1.95861,-4.8 -0.6016,-1.144001 -1.7421,-2.800001 -2.53444,-3.680001 l -1.44063,-1.6 1.12605,1.92 c 0.61933,1.056 1.12642,2.120274 1.12687,2.365053 4.5e-4,0.244779 -0.58741,-0.223221 -1.30637,-1.04 -0.71896,-0.816779 -1.4327,-1.485053 -1.5861,-1.485053 -0.15339,0 0.5662,1.62 1.59909,3.600001 1.03289,1.98 2.25063,4.795433 2.70609,6.256519 0.56909,1.825593 0.84443,3.477111 0.88027,5.28 0.0496,2.497036 0.062,2.538654 0.25571,0.863481 l 0.20354,-1.76 0.1705,1.28 c 0.16879,1.26709 0.171,1.263863 0.21892,-0.32 0.0266,-0.88 -0.21945,-2.896 -0.54685,-4.48 -0.3274,-1.584 -0.5543,-2.926678 -0.50423,-2.983729 0.0501,-0.05705 0.33679,0.734949 0.63714,1.76 0.30035,1.025051 0.74065,2.943729 0.97844,4.263729 0.23779,1.32 0.43737,3.156 0.44351,4.08 0.007,1.039253 0.15052,1.68 0.37655,1.68 0.26416,0 0.31745,-1.174578 0.19237,-4.24 z m -3.89672,-4.170137 c -0.2692,-1.427313 -0.99108,-3.651372 -1.60416,-4.942353 -0.61308,-1.290982 -1.72979,-3.134801 -2.48157,-4.097375 -0.75178,-0.962575 -1.4841,-1.750136 -1.62738,-1.750136 -0.14327,0 0.0887,0.468 0.51554,1.04 0.42682,0.572 1.42919,2.192001 2.22749,3.600001 0.79829,1.408 1.76262,3.568 2.14295,4.8 0.38034,1.232 0.7893,3.608 0.90881,5.28 l 0.21728,3.04 0.0952,-2.187511 c 0.0524,-1.203131 -0.12501,-3.355312 -0.39421,-4.782626 z M 73.291007,65.082652 c 0.586727,-1.035457 1.962399,-2.767841 3.057048,-3.849743 1.094649,-1.081901 2.952151,-2.505006 4.127781,-3.162456 1.175631,-0.65745 3.240942,-1.545769 4.589581,-1.974041 1.348638,-0.428273 3.61364,-0.860651 5.033337,-0.96084 1.474699,-0.104072 3.53164,-0.01666 4.798182,0.203896 1.219303,0.212332 3.245409,0.814222 4.502459,1.337534 1.257045,0.523311 3.130435,1.44896 4.163075,2.056998 1.13996,0.671226 1.53108,0.817446 0.99561,0.372211 -0.48505,-0.403322 -1.66267,-1.206498 -2.61692,-1.784836 -0.95425,-0.578337 -2.71739,-1.403441 -3.918081,-1.833565 -1.849316,-0.66248 -1.987382,-0.75911 -0.903075,-0.63204 l 1.28,0.150003 -1.44,-0.523376 c -1.054082,-0.383112 -2.593929,-0.527772 -5.745723,-0.539778 -2.690858,-0.01025 -3.831012,-0.100663 -3.04,-0.241068 0.696147,-0.123566 2.358688,-0.232965 3.694534,-0.243107 1.400402,-0.01063 3.432824,0.238781 4.800001,0.589046 1.304153,0.334119 3.199188,0.974194 4.211184,1.422391 1.012,0.448196 1.84,0.764573 1.84,0.703059 0,-0.06151 -0.80898,-0.568408 -1.79775,-1.126431 -0.988757,-0.558023 -2.805638,-1.270545 -4.037508,-1.583381 l -2.239763,-0.568795 1.348137,-0.180823 c 0.805273,-0.10801 2.012301,0.01634 2.997512,0.308814 0.907157,0.2693 2.513372,0.92459 3.569372,1.4562 1.056,0.53161 2.496,1.354913 3.2,1.829564 0.704,0.47465 1.496,0.972002 1.76,1.105226 0.264,0.133224 0.12,-0.06088 -0.32,-0.431354 -0.44,-0.370468 -1.85207,-1.338903 -3.13794,-2.152077 -1.28588,-0.813173 -3.5884,-1.909509 -5.11673,-2.436301 -2.159636,-0.744395 -3.53142,-0.993478 -6.156721,-1.117912 -2.462344,-0.11671 -4.111229,-0.01158 -6.083275,0.387861 -1.487932,0.301383 -3.425331,0.851771 -4.305331,1.223085 -0.88,0.371314 -2.496311,1.234305 -3.591801,1.917758 -1.095491,0.683454 -2.895491,2.22814 -4.000001,3.432637 -1.104509,1.204496 -2.340209,2.813918 -2.746,3.576493 -0.725018,1.362474 -0.725497,1.369864 -0.02767,0.426498 0.390572,-0.528 1.875139,-2.112 3.299038,-3.52 1.4239,-1.408 3.092352,-2.822223 3.707672,-3.142718 l 1.118763,-0.582718 -0.96,0.73543 c -0.528,0.404486 -1.733815,1.458709 -2.679588,2.342718 -0.945774,0.884008 -2.256961,2.399288 -2.91375,3.367288 -0.656789,0.968 -1.427957,2.215015 -1.713707,2.771143 -0.28575,0.556129 -0.822619,1.780129 -1.193042,2.72 -0.370423,0.939872 -0.598825,1.634243 -0.50756,1.543046 0.09126,-0.0912 0.824622,-1.481601 1.629683,-3.089788 1.102106,-2.201564 2.007255,-3.465103 3.663597,-5.114189 1.209917,-1.204617 2.684615,-2.459691 3.277108,-2.789055 1.03518,-0.575452 1.02726,-0.557055 -0.202741,0.470972 -0.704,0.588399 -1.828635,1.649878 -2.499189,2.358843 -0.670554,0.708966 -1.796895,2.25081 -2.502979,3.426322 -0.706085,1.175511 -1.630413,3.119511 -2.054062,4.32 -0.423649,1.200489 -0.766866,2.470707 -0.762704,2.822707 0.0042,0.352 0.339576,-0.384808 0.745364,-1.63735 0.405788,-1.252543 1.217846,-3.124543 1.804574,-4.160001 z M 94.660004,54.501406 c 0.231,-0.09244 0.507,-0.08107 0.613333,0.02526 0.106333,0.106333 -0.08267,0.181965 -0.42,0.16807 -0.372782,-0.01535 -0.448608,-0.09118 -0.193333,-0.193333 z m -8.640001,-0.32 c 0.231,-0.09244 0.507,-0.08107 0.613334,0.02526 0.106333,0.106333 -0.08267,0.181965 -0.42,0.16807 -0.372782,-0.01535 -0.448608,-0.09118 -0.193334,-0.193333 z m 7.340001,-1.593334 c 0.22,-0.08877 0.58,-0.08877 0.8,0 0.22,0.08877 0.04,0.161404 -0.4,0.161404 -0.44,0 -0.62,-0.07263 -0.4,-0.161404 z m 31.137866,10.411623 c 1.13417,-0.374169 2.25386,-0.859041 2.4882,-1.077493 0.35194,-0.328081 0.25756,-0.72471 -0.54245,-2.279692 -0.53268,-1.035379 -1.37772,-2.486424 -1.87787,-3.224544 -0.50015,-0.73812 -1.89731,-2.499165 -3.1048,-3.913433 -1.2075,-1.414268 -2.45507,-2.653799 -2.7724,-2.754514 -0.38487,-0.122152 -1.15961,0.291467 -2.32706,1.242365 -0.96255,0.784014 -2.19201,1.522541 -2.73212,1.641169 -0.54012,0.118629 -1.05614,0.335615 -1.14673,0.482191 -0.0906,0.146577 -0.0905,0.45986 1.7e-4,0.696186 0.0907,0.236325 0.7964,0.829206 1.56825,1.317513 0.77184,0.488308 1.98594,1.519862 2.69799,2.292342 0.71205,0.772481 1.75164,2.316595 2.3102,3.431364 0.55857,1.114769 1.16037,2.206853 1.33735,2.426853 0.17697,0.22 0.70818,0.4 1.18045,0.4 0.47228,0 1.78665,-0.306138 2.92082,-0.680307 z M 104.32,57.131261 c 0,-0.08181 -0.324,-0.305752 -0.72,-0.497653 -0.6914,-0.335053 -0.69532,-0.329145 -0.0988,0.148741 0.34163,0.273709 0.66563,0.497653 0.72,0.497653 0.0544,0 0.0988,-0.06693 0.0988,-0.148741 z m -6.806663,-4.204592 c -0.106333,-0.106334 -0.382333,-0.117702 -0.613333,-0.02526 -0.255275,0.102152 -0.179449,0.177978 0.193333,0.193333 0.337333,0.0139 0.526333,-0.06174 0.42,-0.16807 z m -3.753333,-6.004861 c 3.509035,0.02958 4.679168,-0.04618 4,-0.25897 -0.528,-0.165427 -2.688,-0.402555 -4.8,-0.526952 l -3.840001,-0.226175 2.880001,-0.213849 c 1.751189,-0.130031 4.38508,-0.647454 6.72,-1.320132 C 100.832,43.767275 102.848,43.208549 103.2,43.134118 c 0.352,-0.07443 -0.8996,-0.247341 -2.78134,-0.384245 -1.881746,-0.136904 -3.839309,-0.157117 -4.350146,-0.04492 -0.510836,0.112199 -2.715229,0.914288 -4.898652,1.782422 -2.913416,1.158381 -3.714387,1.587084 -3.009859,1.610965 0.631374,0.0214 0.26107,0.184181 -1.081752,0.47552 -1.122964,0.243638 -2.130088,0.531315 -2.238054,0.639281 -0.107966,0.107966 0.738822,0.07718 1.881752,-0.06842 1.14293,-0.145597 4.310054,-0.245909 7.038055,-0.222915 z M 49.920002,92.342521 c 0,-0.088 0.288,-0.314133 0.64,-0.502518 0.352,-0.188384 0.64,-0.270517 0.64,-0.182517 0,0.088 -0.288,0.314133 -0.64,0.502518 -0.352,0.188384 -0.64,0.270517 -0.64,0.182517 z"
         id="path3" />
      <path
         style="fill:#e2cb9d;fill-opacity:1"
         d="m 162.34093,136.9775 c -0.3845,-0.16577 -0.8525,-0.58805 -1.04,-0.93841 -0.18751,-0.35035 -0.34092,-0.79048 -0.34092,-0.97805 0,-0.18757 0.144,-0.34103 0.32,-0.34103 0.176,0 0.32,0.216 0.32,0.48 0,0.264 0.0978,0.48 0.21728,0.48 0.1195,0 0.69469,-0.17264 1.27819,-0.38364 0.93912,-0.33958 1.1135,-0.31203 1.51896,0.24 0.4328,0.58927 0.50785,0.59481 1.36181,0.10064 0.66248,-0.38337 1.04165,-0.43385 1.42026,-0.18907 0.28408,0.18365 0.75829,0.24114 1.0538,0.12774 0.43004,-0.16502 0.46842,-0.33488 0.19224,-0.85093 -0.30457,-0.56908 -0.67232,-0.6461 -3.1338,-0.65628 -1.53381,-0.006 -3.58074,-0.0916 -4.54874,-0.18948 -0.968,-0.0979 -31.07888,-2.43792 -66.913062,-5.20012 l -65.153058,-5.02217 -0.286944,0.97165 c -0.220568,0.74689 -0.583037,1.07069 -1.566945,1.39979 -0.785087,0.26259 -2.059278,0.36916 -3.295456,0.27561 -1.304267,-0.0987 -2.235838,-0.35197 -2.640001,-0.71773 -0.383095,-0.3467 -0.612212,-0.9481 -0.592646,-1.55561 0.03022,-0.93834 0.04359,-0.94835 0.254428,-0.19041 0.122391,0.44 0.360037,0.79197 0.528102,0.78216 0.168065,-0.01 0.721421,-0.13841 1.229679,-0.28576 0.75953,-0.2202 1.017334,-0.14432 1.447584,0.42607 0.473818,0.62816 0.583472,0.64917 1.155894,0.2215 0.42517,-0.31766 1.025661,-0.41182 1.832416,-0.28733 1.068707,0.1649 1.2,0.11066 1.2,-0.49574 0,-0.37449 -0.171562,-0.6809 -0.381249,-0.6809 -0.209686,0 -1.997285,-0.16383 -3.97244,-0.36408 -1.975156,-0.20024 -3.767084,-0.47279 -3.982063,-0.60565 -0.254327,-0.15718 -0.311176,-0.5591 -0.162736,-1.15053 0.125474,-0.49993 0.808028,-1.41539 1.516785,-2.03435 0.708758,-0.61896 2.074844,-1.88139 3.035746,-2.80539 1.019444,-0.98029 2.038402,-1.6802 2.446526,-1.68049 0.675248,-4.8e-4 0.700894,-0.12495 0.741755,-3.6 0.02328,-1.97973 0.206792,-4.20394 0.407808,-4.9427 0.201017,-0.73876 0.776637,-1.74676 1.279157,-2.24 0.50252,-0.49324 2.983006,-2.20467 5.512192,-3.80317 2.529186,-1.598507 5.82252,-3.454911 7.31852,-4.125345 1.496,-0.670435 3.728,-1.717601 4.96,-2.327035 1.232,-0.609434 2.096,-0.958379 1.92,-0.775435 -0.176,0.182945 -1.976,1.277206 -4,2.431691 -2.024,1.154485 -3.433331,2.099834 -3.131847,2.100776 0.301485,9.41e-4 1.309485,-0.297748 2.24,-0.663755 0.930516,-0.366007 2.851379,-1.436209 4.268585,-2.378226 1.417206,-0.942018 3.69104,-2.879086 5.052965,-4.304596 1.361924,-1.42551 3.135644,-3.611193 3.941601,-4.857074 0.805956,-1.245881 2.113016,-3.651153 2.904578,-5.34505 0.791563,-1.693897 2.343292,-5.818012 3.448287,-9.1647 1.104995,-3.346689 2.314581,-6.786614 2.687969,-7.644279 0.373388,-0.857664 1.487499,-2.801664 2.475801,-4.32 0.988303,-1.518335 2.965822,-3.92931 4.394488,-5.357721 1.428666,-1.428411 3.711751,-3.32316 5.073523,-4.210553 1.361773,-0.887393 4.043798,-2.415416 5.960058,-3.395607 1.916259,-0.980191 4.762082,-2.206743 6.32405,-2.725671 1.561969,-0.518928 4.220886,-1.105121 5.908705,-1.302649 2.220538,-0.259874 3.832455,-0.264244 5.831705,-0.01581 1.51961,0.188835 4.02667,0.7035 5.57123,1.1437 1.54457,0.440201 3.6723,1.232008 4.7283,1.759573 1.056,0.527565 2.86336,1.665832 4.01635,2.529483 1.15299,0.863652 3.18273,2.707382 4.51054,4.097179 1.3278,1.389797 3.034,3.43962 3.79155,4.555161 0.75755,1.115542 1.99643,3.274111 2.75306,4.796821 0.75663,1.52271 2.3991,5.78287 3.64994,9.467023 1.25083,3.684153 2.84058,7.874577 3.53277,9.312053 0.69219,1.437476 2.11422,3.892874 3.16007,5.456439 1.04585,1.563565 3.04708,3.93728 4.44717,5.274922 1.4001,1.337642 4.01441,3.602204 5.80958,5.03236 1.79518,1.430156 4.29559,3.294371 5.55647,4.142701 1.26088,0.848334 4.70126,2.875334 7.6453,4.504444 3.57017,1.97559 5.7402,3.39083 6.51606,4.24962 0.63979,0.70817 1.46618,1.95321 1.83641,2.76675 0.53523,1.17608 0.69851,2.28241 0.79685,5.39917 l 0.1237,3.92 h 1.01711 c 0.81808,0 1.36615,0.36006 2.80084,1.84 0.98105,1.012 2.02054,2.19605 2.30998,2.63121 0.28944,0.43516 0.52626,1.09684 0.52626,1.4704 0,0.37356 -0.288,0.93984 -0.64,1.25839 -0.44752,0.405 -0.64,0.98559 -0.64,1.93042 0,0.74317 -0.18,1.49877 -0.4,1.67912 -0.22,0.18034 -1.048,0.49989 -1.84,0.71011 -0.792,0.21022 -2.124,0.90189 -2.96,1.53704 -1.02738,0.78055 -1.52,1.39013 -1.52,1.88085 0,0.49509 -0.33,0.89668 -1.03745,1.26252 -0.5706,0.29506 -1.9746,0.58651 -3.12,0.64766 -1.14541,0.0611 -2.39714,-0.0245 -2.78163,-0.19022 z m 0.57864,-5.16311 c -1.12224,-0.14545 -7.89024,-0.77218 -15.04,-1.39273 C 140.72981,129.8011 129.984,128.92658 124,128.47829 c -5.984,-0.4483 -13.832,-1.09766 -17.44,-1.44302 -3.608,-0.34535 -12.031996,-1.12686 -18.719997,-1.73667 -6.688,-0.60981 -15.976,-1.40203 -20.64,-1.76048 -4.664001,-0.35846 -11.864001,-0.86563 -16.000001,-1.12705 -4.136,-0.26143 -10.76,-0.54435 -14.720001,-0.62871 -5.192404,-0.11063 -6.620028,-0.07 -5.12,0.14579 1.144,0.16455 7.336,0.73769 13.760001,1.27364 6.424,0.53595 21.832001,1.90302 34.240001,3.03794 12.408,1.13491 27.743997,2.49313 34.079997,3.01826 6.336,0.52512 15.696,1.25371 20.80001,1.61909 5.104,0.36537 11.512,0.78224 14.24,0.92638 2.728,0.14414 7.552,0.26507 10.72,0.26873 4.44262,0.005 5.29333,-0.0538 3.71956,-0.2578 z m 12.76044,-1.38821 c 0,-0.0736 -0.0888,-0.36528 -0.19737,-0.64817 -0.15277,-0.3981 -0.29741,-0.43132 -0.64,-0.14699 -0.24345,0.20204 -0.44263,0.49372 -0.44263,0.64817 0,0.15445 0.288,0.28081 0.64,0.28081 0.352,0 0.64,-0.0602 0.64,-0.13382 z m -4.31758,-3.09957 c 1.58267,-1.42636 2.99878,-2.80516 3.14691,-3.064 0.14813,-0.25883 0.19257,-0.54737 0.0987,-0.64119 -0.0938,-0.0938 -1.68243,1.16862 -3.53026,2.80542 -1.84782,1.6368 -3.28776,3.09236 -3.19987,3.23458 0.0879,0.14222 0.26041,0.25858 0.38335,0.25858 0.12295,0 1.51845,-1.16702 3.10112,-2.59339 z m -16.16242,-1.12291 c -2.2,-0.24036 -11.776,-1.08413 -21.28,-1.87504 -9.50401,-0.79091 -25.56001,-2.08581 -35.680006,-2.87756 -10.120001,-0.79175 -24.376001,-1.87359 -31.680001,-2.40409 -7.304001,-0.53051 -14.072001,-0.95374 -15.040001,-0.94052 -0.968,0.0132 -1.616,0.0797 -1.44,0.14767 0.176,0.068 6.008,0.63327 12.96,1.25617 6.952001,0.6229 19.696001,1.70374 28.320001,2.40186 8.624001,0.69813 22.303997,1.77146 30.399997,2.3852 8.096,0.61373 17.96001,1.33789 21.92001,1.60924 3.96,0.27135 7.776,0.54116 8.48,0.59958 0.704,0.0584 2.576,0.11258 4.16,0.12037 l 2.88,0.0142 z m 8.04706,-16.79952 c 1.41311,-1.07571 2.4486,-2.07012 2.30111,-2.20981 -0.1475,-0.13969 -1.70817,-1.07918 -3.46817,-2.08776 -1.76,-1.00857 -5.0512,-3.04325 -7.31376,-4.5215 -2.26257,-1.478258 -5.28657,-3.579889 -6.72,-4.670293 -1.43344,-1.090405 -3.72372,-2.966547 -5.08953,-4.169206 -2.02712,-1.78498 -2.61494,-2.145078 -3.2,-1.960328 -0.39419,0.124478 -1.72471,0.685929 -2.95671,1.247668 -1.232,0.561739 -2.43704,1.260408 -2.67786,1.552596 -0.37417,0.453992 -0.35561,0.659465 0.12763,1.412855 0.31102,0.484881 1.73205,2.038828 3.15786,3.453215 1.4258,1.414388 4.03237,3.525783 5.79237,4.691983 1.76,1.1662 6.08,3.70508 9.6,5.64195 3.52,1.93687 6.7325,3.53348 7.13889,3.54802 0.43954,0.0157 1.77979,-0.76593 3.30817,-1.92939 z m -62.69842,-9.456065 c 1.49714,-0.466239 3.42119,-1.405887 4.88916,-2.38772 1.41665,-0.947514 3.08617,-2.436263 4.02555,-3.589666 0.88277,-1.083899 2.10049,-2.978726 2.70603,-4.210726 0.60555,-1.232 1.31415,-3.079041 1.57468,-4.104536 0.26053,-1.025494 0.56666,-2.897494 0.68028,-4.16 0.11928,-1.325386 0.0423,-3.37538 -0.1822,-4.850835 -0.21384,-1.405455 -0.81839,-3.742604 -1.34344,-5.193666 -0.52506,-1.451062 -1.51492,-3.505145 -2.1997,-4.564629 -0.68478,-1.059484 -1.35619,-1.916418 -1.49203,-1.904299 -0.13584,0.01212 -3.19769,2.36113 -6.80412,5.220022 l -6.557143,5.197986 0.104287,1.210461 c 0.07853,0.91152 -0.07425,1.400504 -0.618637,1.979978 -0.397608,0.423235 -0.892105,0.769518 -1.09888,0.769518 -0.248108,0 -0.446216,1.060991 -0.582564,3.12 -0.113635,1.716 -0.197232,4.92 -0.185773,7.12 0.01166,2.238101 0.129746,3.72124 0.268091,3.367138 0.241534,-0.618219 0.255843,-0.616817 0.618374,0.06058 0.214796,0.401349 0.248128,0.769455 0.07913,0.8739 -0.160593,0.09925 -0.520982,0.09258 -0.800865,-0.01482 -0.430429,-0.165171 -0.513795,0.118321 -0.540775,1.838962 -0.01754,1.11883 -0.14719,2.394237 -0.288102,2.834237 -0.187896,0.586705 -0.27375,0.202775 -0.322011,-1.44 -0.03619,-1.232 -0.03969,-2.636 -0.0078,-3.12 0.0328,-0.497437 -0.106778,-0.88 -0.321068,-0.88 -0.269553,0 -0.343703,0.700824 -0.256617,2.425382 0.119377,2.364018 0.108118,2.407651 -0.445024,1.724549 -0.35069,-0.433083 -0.567501,-1.237434 -0.567501,-2.105382 0,-0.973418 0.194595,-1.599144 0.633955,-2.038504 0.571439,-0.571439 0.655125,-1.2453 0.848636,-6.833398 l 0.214681,-6.199444 -0.928636,-0.183813 c -0.787945,-0.155966 -1.153168,0.03553 -2.410679,1.263983 -0.987297,0.964482 -1.431699,1.640314 -1.331233,2.024497 0.08295,0.317185 -0.0111,0.879232 -0.208989,1.248993 -0.19789,0.36976 -1.328729,1.140482 -2.512975,1.712714 l -2.153174,1.040422 0.731542,-2.24 c 0.402348,-1.232 0.971764,-2.42 1.265369,-2.64 0.293604,-0.22 0.855169,-0.4 1.247921,-0.4 0.467683,0 1.219533,-0.591621 2.178839,-1.7145 0.898502,-1.051708 1.464743,-2.026207 1.464743,-2.520818 0,-0.443475 0.216,-0.985582 0.48,-1.204682 0.264,-0.219101 0.48,-0.593413 0.48,-0.831805 0,-0.238393 0.358955,-0.668637 0.797678,-0.956099 0.563769,-0.369396 1.150241,-0.46327 2,-0.320132 0.661277,0.11139 1.423321,0.230123 1.69343,0.263853 0.27011,0.03373 3.40211,-2.225888 6.96,-5.02137 3.55789,-2.795483 6.46889,-5.184034 6.46889,-5.30789 0,-0.123857 -1.05275,-1.215501 -2.33945,-2.425876 -1.28671,-1.210375 -3.14648,-2.678847 -4.13283,-3.263271 -0.98635,-0.584425 -2.849595,-1.430787 -4.140542,-1.880805 -1.767451,-0.616126 -3.218076,-0.856902 -5.873262,-0.974849 -2.63661,-0.117121 -4.040162,-0.02493 -5.563991,0.365454 -1.120848,0.287147 -2.918108,0.945973 -3.993914,1.464057 -1.075805,0.518085 -2.698399,1.559993 -3.605766,2.315352 -0.907366,0.755359 -2.245504,2.09338 -2.97364,2.97338 -0.728136,0.88 -1.882742,2.71069 -2.565791,4.0682 -0.683049,1.35751 -1.48826,3.575511 -1.789359,4.928891 -0.414407,1.862683 -0.503484,3.284816 -0.366533,5.851801 0.10307,1.931912 0.456718,4.322741 0.821863,5.556181 0.352519,1.190789 0.99394,2.918789 1.425379,3.84 0.431439,0.921211 1.48495,2.479113 2.341136,3.462005 0.856186,0.982892 2.132702,2.288959 2.836702,2.90237 0.704,0.613412 1.79911,1.502385 2.433577,1.975496 0.634467,0.473111 1.930467,1.288435 2.88,1.811833 0.949533,0.523397 1.612687,0.95424 1.473675,0.957428 -0.139011,0.0032 -0.836966,-0.292249 -1.55101,-0.656527 -0.714044,-0.364278 -1.367612,-0.592973 -1.452373,-0.508211 -0.08476,0.08476 0.508327,0.542327 1.317975,1.016812 0.809648,0.474486 2.504529,1.221749 3.766401,1.660584 1.261872,0.438839 3.238738,0.899849 4.393035,1.024479 1.154296,0.12462 2.962721,0.16335 4.018721,0.0861 1.056,-0.0773 3.030889,-0.48647 4.388647,-0.909299 z m -6.519205,-3.033053 c 0.07084,-0.742878 -0.05662,-1.45992 -0.315256,-1.773469 -0.390792,-0.473764 -0.364394,-0.489187 0.264143,-0.154319 0.38408,0.204628 0.789784,0.660203 0.901564,1.01239 0.11178,0.352187 0.11605,0.915037 0.0095,1.250778 -0.10656,0.335741 -0.370399,0.678226 -0.586308,0.761078 -0.280142,0.107501 -0.358505,-0.2065 -0.273633,-1.096458 z M 100.96,95.168448 c 0,-0.950645 0.0257,-1.728444 0.0572,-1.728444 0.0314,0 0.28343,0.226285 0.56,0.502857 0.27657,0.276571 0.50285,0.919505 0.50285,1.428741 0,0.554288 -0.22475,1.046167 -0.56,1.225587 -0.5012,0.268237 -0.56,0.118235 -0.56,-1.428741 z m -2.5987,0.686086 c -0.113452,-0.295652 -0.06585,-0.677973 0.105775,-0.849602 0.202737,-0.202737 0.443204,-0.154025 0.686437,0.139052 0.290578,0.350125 0.2669,0.540309 -0.105776,0.849602 C 98.655998,96.3187 98.529591,96.293094 98.3613,95.854534 Z M 85.44987,94.891892 c -0.220734,-0.265967 -0.319508,-0.809447 -0.219498,-1.207733 0.10001,-0.398285 0.36809,-0.97778 0.595734,-1.287766 0.358788,-0.488568 0.413897,-0.353688 0.413897,1.013002 0,0.867137 -0.08748,1.664242 -0.1944,1.771344 -0.106919,0.107102 -0.374999,-0.02288 -0.595733,-0.288847 z m 14.470134,-2.963375 c -0.668436,-0.08295 -1.04,-0.305542 -1.04,-0.623025 0,-0.318958 0.179329,-0.425146 0.506172,-0.299725 0.278394,0.10683 0.926394,0.194236 1.440004,0.194236 0.61673,0 0.93382,0.16299 0.93382,0.48 0,0.264001 -0.18,0.456955 -0.4,0.428789 -0.22,-0.02817 -0.868,-0.109291 -1.439996,-0.180275 z m 7.863516,-2.520069 c -0.0569,-1.513355 0.004,-2.817854 0.13648,-2.898886 0.132,-0.08103 0.384,-0.05833 0.56,0.05044 0.176,0.108774 0.32,1.413273 0.32,2.898886 0,2.125825 -0.0972,2.701115 -0.45648,2.701115 -0.3519,0 -0.48021,-0.630423 -0.56,-2.751555 z m -22.263517,0.893156 c -0.925986,-0.067 -1.36,-0.245709 -1.36,-0.56 0,-0.25388 0.252,-0.453302 0.56,-0.443159 0.308,0.01014 1.121942,0.1183 1.80876,0.24035 0.948434,0.16854 1.140834,0.298785 0.8,0.541559 -0.246818,0.175807 -1.06076,0.27537 -1.80876,0.22125 z M 106.16,90.348074 c 0.22,-0.08877 0.58,-0.08877 0.8,0 0.22,0.08877 0.04,0.161403 -0.4,0.161403 -0.44,0 -0.62,-0.07263 -0.4,-0.161403 z M 77.013336,88.42667 c -0.117333,-0.117333 -0.213333,-0.592533 -0.213333,-1.056 0,-0.463467 0.1728,-1.015467 0.384,-1.226667 0.298667,-0.298666 0.298667,-0.469333 0,-0.768 -0.2112,-0.2112 -0.384,-0.625568 -0.384,-0.920817 0,-0.29525 0.191109,-0.695424 0.424686,-0.889276 0.331346,-0.274993 0.41926,-0.200067 0.4,0.340905 -0.01683,0.472674 0.408186,0.986527 1.335314,1.614427 1.071037,0.725362 1.36,1.116531 1.36,1.841027 0,0.50598 -0.133705,1.002598 -0.297122,1.103595 -0.163417,0.100997 -0.343417,-0.128057 -0.4,-0.50901 -0.05658,-0.380953 -0.505806,-0.992378 -0.998274,-1.358721 -0.771197,-0.573689 -0.938851,-0.600335 -1.208682,-0.192104 -0.172308,0.260686 -0.24098,0.869974 -0.152604,1.353974 0.08837,0.484 0.116282,0.88 0.06201,0.88 -0.05427,0 -0.194666,-0.096 -0.312,-0.213333 z m 2.710245,-3.642667 c -0.02397,-0.4488 -0.151578,-0.953828 -0.283578,-1.122286 -0.132,-0.168457 -0.04757,-0.143684 0.187622,0.05505 0.235193,0.198736 0.362803,0.703764 0.283579,1.122286 -0.142576,0.75319 -0.144489,0.752628 -0.187623,-0.05505 z m 32.165949,-1.667208 c 0.12272,-0.756234 0.0199,-1.241687 -0.33915,-1.6007 -0.35254,-0.352543 -0.40378,-0.584201 -0.16223,-0.733485 0.19418,-0.120009 0.2967,-0.700886 0.22782,-1.290837 -0.1184,-1.014237 -0.0939,-1.044325 0.44941,-0.552608 0.31604,0.286016 0.57462,0.708034 0.57462,0.937818 0,0.229783 -0.19576,0.600661 -0.43503,0.824174 -0.3646,0.340582 -0.32736,0.552043 0.22999,1.305889 0.50289,0.680196 0.58387,1.028155 0.33217,1.427183 -0.18307,0.290225 -0.49505,0.581749 -0.69329,0.64783 -0.24173,0.08058 -0.30243,-0.237344 -0.18431,-0.965264 z M 109.12,82.90667 c 0,-0.393068 0.20662,-0.666667 0.50347,-0.666667 0.29799,0 0.46124,0.217718 0.4,0.533483 -0.0569,0.293415 -0.28347,0.593415 -0.50347,0.666667 -0.23461,0.07812 -0.4,-0.142452 -0.4,-0.533483 z M 76.356926,80.342135 c 0.307422,-0.616243 0.410854,-1.488651 0.304798,-2.570867 -0.08829,-0.900951 -0.245797,-1.776056 -0.350011,-1.944679 -0.104215,-0.168622 -0.106866,-0.306586 -0.0059,-0.306586 0.100974,0 0.468934,0.468 0.817689,1.04 0.348755,0.572 0.634639,1.445467 0.635297,1.941037 6.58e-4,0.495571 -0.146104,1.176271 -0.326138,1.512666 -0.180034,0.336396 -0.600425,0.757783 -0.934203,0.936416 -0.575298,0.30789 -0.582661,0.276261 -0.14154,-0.607987 z m -2.218781,0.409344 C 74.018167,80.6315 73.920003,80.269336 73.920003,79.94667 c 0,-0.322667 0.216,-0.586667 0.48,-0.586667 0.264,0 0.477795,0.18 0.4751,0.4 -0.0027,0.22 -0.120531,0.582164 -0.261858,0.804809 -0.141326,0.222645 -0.355121,0.306645 -0.4751,0.186667 z M 109.44,79.320821 c 0,-0.567436 0.079,-0.613639 0.48,-0.280818 0.264,0.219101 0.48,0.524733 0.48,0.679182 0,0.15445 -0.216,0.280818 -0.48,0.280818 -0.27589,0 -0.48,-0.288798 -0.48,-0.679182 z M 73.931262,78.10104 c -0.182193,-0.340429 -0.331259,-0.894111 -0.331259,-1.230404 0,-0.336292 0.283069,-0.867615 0.629042,-1.180716 0.614427,-0.55605 0.62305,-0.547909 0.371158,0.350404 -0.141836,0.505823 -0.149358,1.315679 -0.01672,1.799679 0.132641,0.484 0.114687,0.88 -0.0399,0.88 -0.154587,0 -0.430133,-0.278533 -0.612325,-0.618963 z M 108.32,73.879369 l -0.96,-0.646885 1.28,0.183334 c 0.704,0.100834 1.464,0.207526 1.68889,0.237093 0.22489,0.02957 0.35761,0.209758 0.29494,0.400425 -0.0627,0.190667 -0.39068,0.375073 -0.72889,0.409793 -0.33822,0.03472 -1.04694,-0.227973 -1.57494,-0.58376 z m 0.93715,-2.382223 c 0.27657,-0.276572 0.50285,-0.748531 0.50285,-1.048798 0,-0.300268 -0.23473,-0.881077 -0.52164,-1.290687 -0.50796,-0.725218 -0.50335,-0.734958 0.17586,-0.371457 0.38362,0.205309 0.86518,0.74132 1.07013,1.191135 0.32586,0.715174 0.27924,0.893472 -0.3713,1.420255 -0.40917,0.331325 -0.88228,0.602409 -1.05135,0.602409 -0.16908,0 -0.0811,-0.226286 0.19545,-0.502857 z M 80.480003,68.976122 c 0,-1.504865 0.04335,-2.736119 0.09633,-2.736119 0.05298,0 0.30498,0.499374 0.56,1.109722 0.255019,0.610347 0.463671,1.530394 0.463671,2.044549 0,0.514155 -0.252,1.246034 -0.56,1.626398 -0.543592,0.671307 -0.56,0.611401 -0.560001,-2.04455 z m -5.013741,0.223881 c -0.05844,-1.188 -0.06024,-2.484 -0.004,-2.88 0.05624,-0.396 0.308241,-0.720001 0.56,-0.720001 0.363085,0 0.457744,0.59557 0.457744,2.880001 0,2.27259 -0.0957,2.88 -0.453741,2.88 -0.336346,0 -0.481233,-0.55885 -0.56,-2.16 z m 2.59419,1.323469 c -0.246233,-0.460092 -0.432691,-1.408824 -0.41435,-2.108294 0.01834,-0.69947 0.231472,-1.469519 0.473624,-1.711219 0.373634,-0.372935 0.440277,-0.0538 0.440277,2.108366 0,1.401301 -0.01167,2.547788 -0.02593,2.547749 -0.01426,-3.9e-5 -0.22739,-0.37651 -0.473624,-0.836602 z M 107.2,69.897146 c 0,-0.731429 0.0533,-0.769524 0.48,-0.342858 0.264,0.264 0.48,0.634286 0.48,0.822858 0,0.188571 -0.216,0.342857 -0.48,0.342857 -0.30222,0 -0.48,-0.304762 -0.48,-0.822857 z m -4.36798,-3.262044 c -0.20801,-0.132891 -0.39733,-1.208932 -0.43549,-2.4751 -0.0371,-1.232 -0.0515,-2.492 -0.032,-2.8 0.0195,-0.308 0.25149,-0.56 0.51549,-0.56 0.39299,0 0.48,0.551111 0.48,3.04 0,1.672 -0.036,3.037796 -0.08,3.0351 -0.044,-0.0027 -0.24559,-0.110695 -0.44798,-0.24 z m -17.445758,-3.5151 c -0.05844,-1.188 -0.06024,-2.484 -0.004,-2.88 0.05624,-0.396 0.308241,-0.72 0.56,-0.72 0.363084,0 0.457743,0.595569 0.457743,2.88 0,2.272591 -0.0957,2.88 -0.453741,2.88 -0.336346,0 -0.481233,-0.558849 -0.56,-2.16 z m -2.918476,-0.367163 c -0.101772,-1.21394 -0.105863,-2.50994 -0.0091,-2.88 0.09677,-0.37006 0.283098,-0.672837 0.414056,-0.672837 0.130958,0 0.328911,0.756 0.439897,1.68 0.110985,0.924 0.203043,2.22 0.204573,2.88 0.0018,0.797614 -0.142611,1.2 -0.430807,1.2 -0.304991,0 -0.488469,-0.65462 -0.618629,-2.207163 z m 12.412218,0.263778 -0.96,-0.668419 1.12,0.191246 c 0.616,0.105185 1.304,0.212841 1.528889,0.239235 0.224888,0.0264 0.356956,0.20399 0.293482,0.394657 -0.06347,0.190666 -0.319473,0.383799 -0.568889,0.429183 -0.249415,0.04538 -0.885482,-0.218272 -1.413482,-0.585902 z m -4.05993,-2.296615 c -0.06185,-1.276 -0.05533,-2.577888 0.01448,-2.893085 0.06981,-0.315197 0.288598,-0.519576 0.486188,-0.454176 0.218925,0.07246 0.395372,1.202547 0.451715,2.893085 0.07527,2.258412 0.0058,2.774176 -0.373741,2.774176 -0.355057,0 -0.493007,-0.55309 -0.578647,-2.32 z m 4.61993,0.07938 c 0.32233,-0.202136 0.56,-0.742165 0.56,-1.272422 0,-0.506684 -0.226286,-1.147528 -0.502858,-1.4241 -0.276571,-0.276571 -0.348571,-0.502857 -0.16,-0.502857 0.188572,0 0.630858,0.288 0.982858,0.64 0.352,0.352 0.637795,0.892 0.6351,1.2 -0.0027,0.308 -0.110695,0.720592 -0.24,0.91687 -0.129305,0.196279 -0.5951,0.455155 -1.0351,0.57528 -0.665623,0.181723 -0.705937,0.159422 -0.24,-0.132771 z M 93.653337,59.62667 c -0.117333,-0.117333 -0.213333,-0.499652 -0.213333,-0.849596 0,-0.613463 0.02266,-0.615753 0.632454,-0.0639 0.347849,0.3148 0.555351,0.697118 0.461114,0.849596 -0.09424,0.152478 -0.282841,0.277233 -0.419121,0.277233 -0.136279,0 -0.343781,-0.096 -0.461114,-0.213333 z m 36.880723,29.99928 c -1.26357,-1.9631 -2.36809,-3.498578 -2.45449,-3.412175 -0.0864,0.0864 0.30857,0.991652 0.87772,2.011663 0.56914,1.020012 1.60757,2.621584 2.30761,3.559049 0.70005,0.937465 1.3389,1.63839 1.41968,1.557609 0.0808,-0.08078 -0.88695,-1.753046 -2.15052,-3.716146 z M 119.2836,78.023007 c -0.13247,-3.8328 -0.30158,-5.028249 -1.03312,-7.303004 -0.4811,-1.496 -1.30572,-3.535592 -1.83249,-4.532426 -0.52677,-0.996835 -1.66653,-2.580835 -2.53281,-3.52 l -1.57506,-1.707575 1.1744,2.24 1.1744,2.24 -1.58045,-1.52 c -0.86925,-0.836 -1.69719,-1.52 -1.83986,-1.52 -0.14268,0 0.14165,0.684 0.63185,1.52 0.49021,0.836 1.518,2.780845 2.28398,4.321877 0.76599,1.541032 1.6746,3.904066 2.01914,5.251188 0.35786,1.399243 0.64949,3.696378 0.68022,5.358124 0.0296,1.599847 0.11279,2.332812 0.18489,1.628812 0.12847,-1.254354 0.13944,-1.26445 0.5475,-0.503889 0.36584,0.681883 0.39921,0.487626 0.27484,-1.6 -0.0778,-1.306861 -0.27941,-3.081125 -0.44792,-3.942808 -0.16851,-0.861683 -0.24524,-1.627832 -0.17052,-1.702554 0.0747,-0.07472 0.36073,0.852836 0.63558,2.061239 0.27484,1.208403 0.59844,3.601603 0.71911,5.318221 0.14283,2.031924 0.3285,3.012013 0.53205,2.808462 0.18967,-0.189669 0.25036,-2.115508 0.15427,-4.895667 z m -3.94944,-4.743004 c -0.29327,-1.32 -0.87518,-3.17338 -1.29315,-4.118622 -0.41797,-0.945242 -1.39111,-2.601242 -2.16252,-3.68 -0.77142,-1.078758 -1.70765,-2.235697 -2.08053,-2.570975 -0.37288,-0.335277 -0.67796,-0.534346 -0.67796,-0.442373 0,0.09197 0.66352,1.156705 1.47449,2.366073 0.81097,1.209368 1.95293,3.148904 2.53769,4.31008 0.58476,1.161177 1.29591,3.009265 1.58032,4.106863 0.28442,1.097598 0.61846,3.46113 0.74231,5.252294 l 0.22519,3.25666 0.0937,-3.04 c 0.0613,-1.987505 -0.0909,-3.870917 -0.43952,-5.44 z M 72.755416,66.32854 c 0.602436,-1.196279 1.65092,-2.845288 2.329963,-3.664465 0.679043,-0.819178 1.954624,-2.059131 2.834624,-2.755451 0.88,-0.696321 2.469075,-1.703082 3.531278,-2.237246 1.062203,-0.534164 3.006203,-1.305502 4.32,-1.714084 1.917144,-0.596219 3.083635,-0.738727 5.908722,-0.721858 2.988297,0.01784 3.925312,0.158244 6.203251,0.929484 1.475788,0.499656 3.838776,1.602954 5.251076,2.451774 1.4123,0.84882 2.63664,1.543308 2.72075,1.543308 0.0841,0 -0.40687,-0.446054 -1.09107,-0.991232 -0.68421,-0.545178 -1.86932,-1.358667 -2.6336,-1.807752 -0.76428,-0.449086 -2.204281,-1.164389 -3.200003,-1.589563 -0.995722,-0.425174 -1.402338,-0.685913 -0.903591,-0.579422 0.637756,0.136173 0.839494,0.0847 0.679927,-0.173488 -0.159919,-0.258753 -0.0025,-0.297447 0.533187,-0.131094 0.418041,0.129808 1.55207,0.642417 2.52007,1.139132 0.968,0.496714 2.408,1.279951 3.2,1.740527 l 1.44,0.837411 -0.92542,-0.790501 c -0.50899,-0.434775 -2.13619,-1.470112 -3.61602,-2.300749 -1.47982,-0.830636 -3.285095,-1.685784 -4.011715,-1.90033 l -1.321127,-0.390082 1.0925,-0.2185 c 0.901842,-0.180368 1.611227,0.03228 4.064892,1.218527 1.63481,0.790365 3.5809,1.849041 4.32464,2.352614 0.74374,0.503574 1.5545,1.034343 1.8017,1.179488 0.30097,0.17672 0.37499,0.143444 0.22409,-0.100727 -0.12395,-0.200545 -1.1412,-1.018158 -2.26056,-1.816918 -1.11936,-0.798759 -3.11644,-1.951856 -4.43796,-2.562436 -1.32152,-0.61058 -3.314524,-1.325088 -4.428892,-1.587795 -1.117333,-0.263406 -3.546132,-0.479772 -5.414937,-0.48238 -2.367377,-0.0033 -4.151747,0.190383 -5.92,0.642595 -1.392153,0.356029 -3.395188,1.055152 -4.451188,1.553609 -1.056,0.498456 -2.791538,1.565971 -3.856752,2.372255 -1.065213,0.806284 -2.589875,2.30316 -3.388137,3.326391 -0.798262,1.023231 -1.852219,2.550925 -2.342127,3.394875 -0.489907,0.843951 -0.818741,1.606456 -0.730741,1.694456 0.088,0.088 0.540929,-0.490005 1.006508,-1.284456 0.465579,-0.79445 1.653951,-2.316591 2.640827,-3.382535 0.986876,-1.065945 2.243443,-2.246101 2.792371,-2.622571 0.549135,-0.376612 0.191649,0.09481 -0.794779,1.04808 -0.986057,0.952914 -2.260574,2.427616 -2.83226,3.277114 -0.571685,0.849499 -1.600912,2.742718 -2.287169,4.207153 -0.686258,1.464436 -1.245983,2.929391 -1.243834,3.255457 0.0021,0.326066 0.493903,-0.529506 1.092789,-1.901272 0.598885,-1.371765 1.482591,-3.027765 1.963792,-3.68 0.481202,-0.652234 1.537447,-1.881308 2.347212,-2.731274 0.809765,-0.849967 1.885109,-1.843742 2.389654,-2.208389 0.504545,-0.364647 -0.09772,0.352077 -1.338361,1.59272 -1.842844,1.842844 -2.546499,2.862047 -3.844401,5.568389 -0.873777,1.821971 -1.747515,3.98844 -1.941639,4.814376 -0.194124,0.825936 -0.342527,1.905936 -0.329784,2.4 0.01284,0.497803 0.293734,-0.202121 0.630037,-1.569908 0.333778,-1.357513 1.099771,-3.446979 1.702207,-4.643257 z M 96.580004,54.181406 c 0.231,-0.09244 0.507,-0.08107 0.613333,0.02526 0.106333,0.106333 -0.08267,0.181965 -0.42,0.16807 -0.372782,-0.01535 -0.448608,-0.09118 -0.193333,-0.193333 z m -8.960001,-0.32 c 0.231,-0.09244 0.507,-0.08107 0.613334,0.02526 0.106333,0.106333 -0.08267,0.181965 -0.42,0.16807 -0.372782,-0.01535 -0.448608,-0.09118 -0.193334,-0.193333 z m 7.680001,0 c 0.231,-0.09244 0.507,-0.08107 0.613333,0.02526 0.106333,0.106333 -0.08267,0.181965 -0.42,0.16807 -0.372782,-0.01535 -0.448608,-0.09118 -0.193333,-0.193333 z m -4.660001,-0.334514 c 0.66,-0.06904 1.740001,-0.06904 2.400001,0 0.66,0.06904 0.12,0.125524 -1.200001,0.125524 -1.32,0 -1.86,-0.05649 -1.2,-0.125524 z m 4.640001,-0.61882 c 0.22,-0.08877 0.58,-0.08877 0.8,0 0.22,0.08877 0.04,0.161404 -0.4,0.161404 -0.44,0 -0.62,-0.07263 -0.4,-0.161404 z m 29.212526,10.106169 c 1.20553,-0.366168 2.36725,-0.877085 2.58161,-1.13537 0.31034,-0.373934 0.27552,-0.710956 -0.17092,-1.654239 -0.30836,-0.651546 -1.32918,-2.33663 -2.26848,-3.74463 -0.9393,-1.408 -2.62065,-3.532 -3.73634,-4.72 -1.11568,-1.188 -2.27782,-2.16 -2.58253,-2.16 -0.30471,0 -1.10592,0.49861 -1.78047,1.108021 -0.67455,0.609412 -1.89896,1.396295 -2.72092,1.748628 -0.82928,0.355473 -1.49448,0.85401 -1.49448,1.120056 0,0.263696 0.85024,1.05683 1.88941,1.762519 1.03917,0.705689 2.34017,1.827054 2.89109,2.491924 0.55093,0.664869 1.4265,2.055442 1.9457,3.090163 0.51921,1.034722 1.10785,2.078722 1.30809,2.320001 0.20024,0.241278 0.72009,0.438688 1.15522,0.438688 0.43513,0 1.77749,-0.299592 2.98302,-0.665761 z M 98.793337,53.246669 c -0.106333,-0.106334 -0.382333,-0.117702 -0.613333,-0.02526 -0.255275,0.102152 -0.179449,0.177978 0.193333,0.193333 0.337333,0.0139 0.526333,-0.06174 0.42,-0.16807 z M 95.50263,47.009728 c 2.102444,0.182429 3.880979,0.273335 3.952301,0.202013 0.07132,-0.07132 -0.49686,-0.306233 -1.262626,-0.522027 -0.765766,-0.215793 -2.904301,-0.490273 -4.752301,-0.609955 -2.150777,-0.139292 -2.712573,-0.235987 -1.561032,-0.268681 0.989432,-0.02809 3.221432,-0.426229 4.96,-0.88475 1.738567,-0.458521 4.165138,-1.083819 5.392378,-1.389552 1.22724,-0.305732 2.01924,-0.631312 1.76,-0.72351 -0.25924,-0.0922 -0.96173,-0.09242 -1.5611,-5.05e-4 -0.84597,0.12974 -1.0316,0.07305 -0.82983,-0.253433 0.2105,-0.340597 -0.28199,-0.384041 -2.590248,-0.22849 -1.584357,0.106768 -3.631816,0.477562 -4.610168,0.8349 -0.968,0.353556 -3.03669,1.136409 -4.597089,1.739671 -1.560398,0.603263 -2.928398,1.240244 -3.04,1.415515 -0.111601,0.17527 -0.66926,0.419843 -1.239242,0.543495 -0.569982,0.123652 -1.098421,0.325287 -1.174309,0.448076 -0.07589,0.12279 1.54246,0.03027 3.59633,-0.205601 2.860352,-0.328488 4.628937,-0.351228 7.556936,-0.09717 z"
         id="path2" />
    </g>
  </g>
</svg>
