<?xml version="1.0" encoding="UTF-8" standalone="no"?>
<!-- Created with Inkscape (http://www.inkscape.org/) -->

<svg
   version="1.1"
   id="svg1"
   width="192.32001"
   height="192.32001"
   viewBox="0 0 192.32001 192.32001"
   xmlns="http://www.w3.org/2000/svg"
   xmlns:svg="http://www.w3.org/2000/svg">
  <defs
     id="defs1" />
  <g
     id="g1">
    <g
       id="g3">
      <path
         style="fill:#c3996b;"
         d="M 93.664455,162.48001 C 92.373326,160.85201 80.322426,145.55201 66.884677,128.48 53.446929,111.408 41.612616,96.397425 40.586204,95.123163 l -1.866203,-2.316842 0.0013,-3.283159 c 7.08e-4,-1.805737 0.222814,-4.649152 0.49357,-6.3187 0.270755,-1.669547 0.840336,-4.408603 1.265734,-6.08679 0.425399,-1.678188 1.353122,-4.732354 2.061606,-6.787037 0.708485,-2.054683 1.945035,-5.217329 2.747889,-7.028103 0.802853,-1.810773 2.101323,-4.469327 2.885488,-5.907897 0.784165,-1.43857 2.407646,-4.104868 3.607735,-5.925107 1.20009,-1.820239 3.262553,-4.605526 4.583253,-6.189526 1.3207,-1.584 3.54251,-3.947988 4.937356,-5.253305 1.394846,-1.305318 3.623475,-3.182861 4.952508,-4.172317 1.329034,-0.989456 3.577922,-2.47995 4.997529,-3.312208 1.419607,-0.832258 3.909164,-2.089208 5.532348,-2.793221 1.623184,-0.704014 4.354633,-1.69694 6.069888,-2.206503 1.715254,-0.509564 4.690307,-1.189484 6.611228,-1.510934 2.567691,-0.429682 5.102666,-0.579704 9.572584,-0.56651 4.115603,0.01215 7.247993,0.198804 9.695063,0.577724 1.98828,0.307879 5.30028,0.97287 7.36,1.477758 2.05971,0.504888 5.24234,1.440858 7.07251,2.079933 1.83017,0.639075 4.85964,1.930314 6.73216,2.86942 1.87253,0.939106 4.69512,2.573368 6.27243,3.631693 1.57731,1.058326 3.87584,2.7973 5.10784,3.864387 1.232,1.067087 3.21537,3.059292 4.4075,4.427121 1.19213,1.367829 2.95399,3.651918 3.91525,5.075753 0.96126,1.423835 2.53731,4.167347 3.50233,6.096692 0.96501,1.929346 2.32994,5.228782 3.03317,7.33208 0.70323,2.103298 1.63166,5.479787 2.06318,7.503308 0.43152,2.023521 0.97415,5.04713 1.20585,6.71913 0.26159,1.88777 0.41199,6.011542 0.39679,10.88 -0.0169,5.406523 -0.18116,8.872655 -0.52927,11.166933 l -0.50479,3.326934 -8.12345,8.19307 c -4.46789,4.50618 -18.49577,18.66906 -31.17306,31.47307 -12.67729,12.804 -23.142297,23.28 -23.255578,23.28 -0.113282,0 -1.262345,-1.332 -2.553474,-2.96 z M 155.72893,99.894643 c -0.90691,-0.937948 -2.73551,-2.529104 -4.06355,-3.535902 -1.32805,-1.006798 -3.36086,-2.359701 -4.51736,-3.006451 -1.1565,-0.646751 -3.38191,-1.600777 -4.94537,-2.120058 -1.56345,-0.51928 -3.52664,-1.043315 -4.36264,-1.164522 -0.836,-0.121206 -1.52,-0.359781 -1.52,-0.530167 0,-0.170385 0.756,-1.669168 1.68,-3.330628 1.54855,-2.784476 1.78015,-3.048123 2.96,-3.369563 0.704,-0.191799 2.16403,-0.278529 3.24453,-0.192733 1.1159,0.08861 2.72216,0.502848 3.7184,0.958941 0.96463,0.441622 2.34879,1.340424 3.07592,1.997339 0.72713,0.656914 1.98147,2.186311 2.78744,3.398659 0.80597,1.212349 1.95777,3.425325 2.55955,4.917727 0.60179,1.492401 1.10552,2.967541 1.11942,3.278088 0.0141,0.314351 0.095,0.392619 0.18269,0.176572 0.0866,-0.213432 -0.14922,-1.509432 -0.52399,-2.88 -0.37477,-1.370568 -1.18003,-3.531024 -1.78946,-4.801013 -0.6338,-1.320795 -1.88219,-3.145241 -2.9168,-4.262748 -0.99482,-1.074522 -2.53076,-2.319543 -3.41321,-2.766712 -0.89187,-0.451946 -2.40444,-0.885576 -3.40572,-0.976369 -0.9907,-0.08983 -2.56872,0.0013 -3.50672,0.20242 -0.938,0.201164 -1.75115,0.320048 -1.80702,0.264185 -0.0559,-0.05586 0.10807,-0.798133 0.36429,-1.64949 0.25622,-0.851357 0.70337,-2.860638 0.99366,-4.465069 0.34003,-1.879347 0.52569,-4.624786 0.52188,-7.717146 -0.005,-3.658182 -0.16943,-5.582402 -0.6933,-8.089075 -0.37806,-1.808992 -1.17239,-4.646081 -1.76519,-6.304644 -0.59279,-1.658562 -1.75103,-4.250621 -2.57386,-5.760129 -0.82284,-1.509508 -2.35832,-3.888862 -3.41219,-5.287452 -1.05387,-1.398591 -3.00194,-3.628703 -4.32904,-4.955806 -1.3271,-1.327102 -3.29905,-3.083603 -4.3821,-3.903336 -1.64231,-1.243024 -1.42306,-0.970348 1.32085,1.642696 1.80951,1.723216 4.43044,4.651974 5.82428,6.508352 1.39383,1.856378 3.32974,4.971418 4.30202,6.922313 0.97227,1.950894 2.13664,4.697694 2.58749,6.104001 0.45085,1.406306 1.03043,3.765169 1.28795,5.241917 0.25752,1.476748 0.46823,4.627653 0.46823,7.002011 0,2.374359 -0.21999,5.775496 -0.48885,7.558084 -0.26887,1.782587 -0.67066,4.033068 -0.89288,5.001068 l -0.40402,1.76 -1.23409,-2.56 c -0.93769,-1.945151 -1.81845,-3.145042 -3.66713,-4.995891 -1.3441,-1.345675 -3.18254,-2.814877 -4.10766,-3.282666 -0.92104,-0.465727 -2.4993,-1.061576 -3.50723,-1.32411 -1.00793,-0.262533 -2.88843,-0.477333 -4.17887,-0.477333 -1.29044,0 -3.45619,0.228705 -4.81277,0.508233 -1.35658,0.279529 -3.54651,0.924777 -4.86651,1.433884 -1.32,0.509107 -3.516,1.562395 -4.88,2.340639 -2.44374,1.394303 -2.48,1.403702 -2.48,0.642934 0,-0.424631 0.57085,-4.118624 1.26856,-8.208873 0.6977,-4.09025 1.92911,-10.67579 2.73645,-14.634534 0.80735,-3.958744 2.04242,-9.614406 2.74462,-12.568139 0.70219,-2.953732 1.35365,-5.61876 1.4477,-5.922284 0.14218,-0.458872 0.11791,-0.470981 -0.14406,-0.07186 -0.17328,0.264 -1.059,2.928 -1.96826,5.92 -0.90926,2.992001 -2.21402,7.744001 -2.89946,10.560001 -0.68544,2.816 -1.74369,7.64 -2.35165,10.72 -0.60796,3.08 -1.36166,7.553732 -1.6749,9.941625 l -0.56952,4.341625 -3.21474,-3.237629 c -2.410587,-2.427754 -3.794489,-3.537857 -5.53241,-4.437851 -1.274721,-0.660122 -3.290721,-1.40642 -4.48,-1.65844 -1.18928,-0.252019 -3.026327,-0.458217 -4.082327,-0.458217 -1.056,0 -2.859522,0.199184 -4.007828,0.44263 -1.148305,0.243447 -3.258561,0.894113 -4.689457,1.445925 -1.430896,0.551812 -3.875374,1.801088 -5.432173,2.776169 -1.556798,0.975081 -3.466381,2.266075 -4.243517,2.868877 -0.777137,0.602802 -1.472124,1.036855 -1.544416,0.964563 -0.07229,-0.07229 0.233525,-1.502667 0.679595,-3.178609 0.446069,-1.675943 1.339249,-4.460956 1.984844,-6.188918 0.645594,-1.727962 1.892662,-4.58175 2.771261,-6.34175 0.8786,-1.76 2.392612,-4.424 3.364471,-5.92 0.971859,-1.496 2.591114,-3.728 3.598345,-4.96 1.007231,-1.232 3.258882,-3.608 5.003669,-5.28 1.744786,-1.672001 4.536484,-3.973038 6.203773,-5.113418 1.667288,-1.140379 4.543434,-2.829056 6.391434,-3.752614 1.848,-0.923559 3.216,-1.680451 3.04,-1.681983 -0.176,-0.0015 -1.832,0.724266 -3.68,1.612884 -1.848,0.888619 -4.728611,2.526785 -6.401357,3.640369 -1.672746,1.113585 -4.274291,3.102605 -5.78121,4.420046 -1.50692,1.31744 -3.872734,3.745204 -5.257364,5.395031 -1.384631,1.649826 -3.289843,4.184131 -4.233806,5.631788 -0.943962,1.447656 -2.349727,3.823656 -3.123921,5.28 -0.774194,1.456343 -1.995829,4.132777 -2.714743,5.947631 -0.718914,1.814853 -1.656697,4.550853 -2.083963,6.08 -0.427265,1.529147 -0.928779,3.37873 -1.114476,4.110186 l -0.33763,1.329919 -1.675766,-0.446121 c -0.921671,-0.245367 -2.83763,-0.44783 -4.257685,-0.449919 -1.453531,-0.0021 -3.341522,0.221575 -4.320001,0.511889 -0.955944,0.283629 -2.416243,0.859096 -3.245108,1.278818 -0.828865,0.419721 -2.464894,1.659166 -3.63562,2.754322 -1.170725,1.095156 -2.706386,2.842033 -3.412579,3.881949 -0.706193,1.039916 -1.928095,3.25048 -2.715338,4.912366 -0.787243,1.661886 -1.355101,3.09786 -1.261907,3.191053 0.09319,0.09319 0.529405,-0.540908 0.969358,-1.409115 0.439954,-0.868207 1.665263,-2.872265 2.722909,-4.453464 1.057647,-1.581198 2.992548,-3.890878 4.299782,-5.132623 1.415728,-1.344803 3.202833,-2.664377 4.41967,-3.263423 1.123585,-0.553139 2.971229,-1.155214 4.105877,-1.337943 1.134648,-0.18273 2.646169,-0.244917 3.358936,-0.138195 0.712767,0.106723 1.990954,0.360556 2.840415,0.564073 0.849461,0.203518 1.675719,0.615264 1.836129,0.914992 0.160409,0.299729 1.085396,2.882185 2.055525,5.738791 0.970129,2.856607 1.763872,5.245329 1.763872,5.308272 0,0.06294 -0.768966,0.11444 -1.708812,0.11444 -0.939847,0 -2.847847,0.287159 -4.240001,0.63813 -1.392153,0.350971 -3.683188,1.211747 -5.091188,1.912836 -1.408,0.701088 -2.754493,1.403385 -2.992206,1.56066 -0.332861,0.220226 3.815698,7.431297 18.048461,31.372039 10.164367,17.09734 18.527174,31.03958 18.584015,30.98273 0.05684,-0.0568 -4.932966,-14.99339 -11.088461,-33.19233 -6.155494,-18.19894 -11.191808,-33.218035 -11.191808,-33.375762 0,-0.157727 0.216,-0.203889 0.48,-0.102582 0.264,0.101306 0.48,0.05433 0.48,-0.104382 0,-0.158716 -0.863944,-2.767511 -1.919874,-5.797321 -1.57967,-4.532589 -1.849016,-5.59537 -1.52,-5.997589 0.21993,-0.268863 1.542312,-1.337907 2.938626,-2.375652 1.396314,-1.037746 3.988314,-2.593916 5.76,-3.458156 1.771687,-0.86424 4.373248,-1.869108 5.781248,-2.233041 1.708976,-0.441727 3.570591,-0.662284 5.6,-0.663465 1.740979,-0.001 3.828548,0.209818 4.885377,0.493391 1.014957,0.272339 2.598957,0.872443 3.52,1.333566 0.921043,0.461123 2.45171,1.432103 3.401481,2.157732 0.949772,0.725629 2.515739,2.295714 3.479939,3.489076 l 1.75307,2.16975 -0.5095,5.482621 c -0.28023,3.015441 -0.4337,5.605274 -0.34105,5.755185 0.0927,0.14991 0.37596,0.272564 0.62957,0.272564 0.25361,0 0.46539,-0.18 0.47062,-0.4 0.005,-0.22 0.21695,-2.488 0.47049,-5.04 0.25354,-2.552 0.46527,-4.871278 0.4705,-5.153951 0.006,-0.334159 1.10096,-1.020307 3.1295,-1.961405 1.716,-0.796099 4.32225,-1.826974 5.79167,-2.290833 1.46942,-0.463859 3.98942,-1.00708 5.6,-1.207157 2.25547,-0.280188 3.45765,-0.273082 5.23191,0.03093 1.26697,0.217087 3.34674,0.894624 4.62171,1.505638 1.70641,0.817775 2.91407,1.721949 4.57642,3.426377 1.36902,1.403659 2.7387,3.222218 3.47826,4.618168 l 1.21997,2.302726 -1.77997,3.318397 c -0.97898,1.825119 -1.77996,3.411259 -1.77996,3.524756 0,0.113496 0.216,0.206357 0.48,0.206357 0.264,0 0.48,0.06283 0.48,0.139633 0,0.0768 -8.28108,15.952789 -18.40239,35.279999 L 99.195237,160.16001 128.28655,130.88 157.37786,101.6 Z M 99.050775,122.19709 c 1.660045,-18.8964 3.020735,-34.609087 3.023755,-34.917087 0.005,-0.489007 -0.33286,-0.56 -2.663338,-0.56 -1.575171,0 -3.640491,0.24894 -5.04,0.607488 -1.304154,0.334119 -3.235189,0.986462 -4.291189,1.449651 -1.056,0.463189 -3.044441,1.59382 -4.418759,2.512512 -1.946875,1.30143 -2.471677,1.811702 -2.376139,2.31035 0.06744,0.352 2.919485,14.704396 6.337876,31.894216 3.418391,17.18982 6.258966,31.21051 6.312389,31.15709 0.05342,-0.0534 1.455355,-15.55782 3.115405,-34.45422 z m -9.036442,32.28292 c -0.167219,-0.22 -8.705052,-14.55121 -18.972961,-31.84713 L 52.372447,91.185756 50.153301,90.511711 c -1.663414,-0.505246 -2.732217,-0.63286 -4.267942,-0.509587 -1.299114,0.10428 -2.692959,0.479617 -3.80922,1.025753 -1.227491,0.600555 -1.687119,0.986536 -1.51828,1.275002 0.133178,0.22754 11.314811,14.400481 24.848073,31.495421 13.533261,17.09494 24.674894,31.08171 24.759183,31.08171 0.08429,0 0.01644,-0.18 -0.150782,-0.4 z M 114.48444,93.029125 c -1.10244,-1.017984 -2.8945,-2.432422 -3.98235,-3.143196 -1.08785,-0.710773 -2.95573,-1.633994 -4.15085,-2.051601 -1.19512,-0.417607 -2.2067,-0.725526 -2.24796,-0.684264 -0.0413,0.04126 -1.37738,14.934916 -2.96915,33.097016 -1.59177,18.1621 -2.886837,33.27646 -2.877927,33.58746 0.0089,0.31101 4.114907,-12.82653 9.124437,-29.19454 l 9.10824,-29.759996 z m 3.86528,26.285875 c 8.11994,-15.60076 14.86135,-28.619977 14.98094,-28.931601 0.20043,-0.522319 0.0194,-0.55125 -2.31662,-0.370274 -1.39372,0.107973 -3.54204,0.507823 -4.77404,0.888556 -1.232,0.380733 -3.176,1.163328 -4.32,1.7391 -1.144,0.575772 -2.39901,1.31514 -2.78891,1.64304 -0.55781,0.469108 -2.55286,6.648109 -9.36,28.989449 -4.7581,15.61629 -8.64918,28.50429 -8.64686,28.64 0.002,0.1357 0.55723,-0.76126 1.23311,-1.99326 0.67588,-1.232 7.87245,-15.00426 15.99238,-30.60501 z m -31.66546,0.98808 -5.456259,-27.663076 -1.614376,-1.50158 c -0.887907,-0.825869 -2.568206,-1.999742 -3.733999,-2.608607 -1.165793,-0.608865 -2.659623,-1.253547 -3.319623,-1.432626 -0.66,-0.17908 -1.2,-0.247032 -1.2,-0.151006 0,0.09603 4.629882,13.910535 10.288626,30.698915 5.658745,16.78838 10.334361,30.47859 10.390258,30.42269 0.0559,-0.0559 -2.353685,-12.55002 -5.354627,-27.76471 z M 52.205125,60.560002 c 0.569729,-0.836 2.063,-2.816 3.31838,-4.4 1.255381,-1.584 3.798286,-4.536 5.650899,-6.56 1.852614,-2.024 4.991885,-5.12 6.976159,-6.88 1.984273,-1.76 5.046348,-4.319999 6.804611,-5.688885 1.758262,-1.368887 4.541009,-3.380516 6.183882,-4.470287 1.642872,-1.089772 2.940238,-2.028205 2.883035,-2.085408 -0.0572,-0.0572 -1.604741,0.553235 -3.438973,1.356529 -1.834232,0.803294 -4.815877,2.31612 -6.625877,3.361836 -1.81,1.045715 -4.450949,2.734906 -5.868775,3.753758 -1.417825,1.018851 -3.930036,3.130601 -5.582689,4.692777 -1.652654,1.562177 -4.046024,4.226177 -5.318601,5.920001 -1.272577,1.693823 -2.855212,4.114296 -3.516968,5.378829 -0.661755,1.264532 -1.560269,3.24782 -1.996698,4.407305 -0.43643,1.159486 -0.793508,2.248868 -0.793508,2.420851 0,0.171982 0.06508,0.312694 0.144627,0.312694 0.07955,0 0.610768,-0.684 1.180496,-1.52 z M 122.88,32.519184 c 0,-0.06645 -0.252,-0.31845 -0.56,-0.56 -0.50753,-0.398039 -0.51885,-0.386721 -0.12081,0.120817 0.24155,0.308 0.49355,0.56 0.56,0.56 0.0665,0 0.12081,-0.05437 0.12081,-0.120817 z"
         id="path9" />
      <path
         style="fill:#c3996b;"
         d="M 67.648976,129.36 C 52.024927,109.516 39.10233,93.185957 38.932094,93.071011 c -0.190405,-0.128564 -0.234404,-1.914209 -0.114331,-4.64 0.124582,-2.828145 0.495437,-5.87415 1.025204,-8.420479 0.456507,-2.19421 1.530263,-6.08221 2.386123,-8.640001 0.85586,-2.557791 2.337926,-6.378529 3.293479,-8.490529 0.955554,-2.112 2.60311,-5.333721 3.661237,-7.159381 1.058126,-1.825659 2.801626,-4.561659 3.874444,-6.08 1.072819,-1.518341 3.170069,-4.143478 4.660556,-5.833639 1.490487,-1.690161 4.01578,-4.168612 5.611763,-5.507668 1.595982,-1.339057 4.012146,-3.183912 5.369253,-4.099678 1.357107,-0.915767 3.986828,-2.420393 5.843824,-3.343614 1.856996,-0.923221 4.708496,-2.120809 6.336667,-2.661306 1.62817,-0.540498 4.403768,-1.276881 6.167995,-1.636407 1.764227,-0.359527 5.147138,-0.806509 7.51758,-0.993293 3.076927,-0.242454 5.585102,-0.239415 8.767462,0.01062 2.45166,0.192627 6.12007,0.638921 8.15203,0.991763 2.03196,0.352842 5.39101,1.130263 7.46455,1.727602 2.07354,0.597338 4.92207,1.541183 6.33007,2.097431 1.408,0.556249 4.06852,1.806506 5.91227,2.778349 1.84374,0.971843 4.50774,2.569841 5.92,3.551106 1.41225,0.981265 4.30444,3.524267 6.42708,5.651115 2.55945,2.56452 4.5744,4.946105 5.98229,7.070821 1.16762,1.762103 2.91773,4.858104 3.88914,6.88 0.97141,2.021897 2.27758,5.239138 2.9026,7.149425 0.62501,1.910287 1.48868,5.222288 1.91925,7.360001 0.43057,2.137713 0.96052,5.254751 1.17766,6.926751 0.21914,1.687452 0.38503,6.243403 0.37285,10.24 -0.0145,4.75981 -0.19607,8.443081 -0.53572,10.867819 l -0.51379,3.667821 -12.4154,12.49218 c -6.82847,6.8707 -20.88225,21.02419 -31.23062,31.45219 -10.34837,10.428 -18.863825,18.96 -18.923242,18.96 -0.05942,0 -12.891343,-16.236 -28.515392,-36.08001 z M 157.4299,101.3768 c 0.006,-0.12275 -1.17789,-1.2554 -2.62989,-2.51698 -1.452,-1.261581 -3.648,-2.976828 -4.88,-3.811658 -1.232,-0.83483 -2.96,-1.879977 -3.84,-2.322549 -0.88,-0.442572 -2.71867,-1.178281 -4.08594,-1.634908 -1.36726,-0.456628 -3.21007,-0.926293 -4.09514,-1.043701 -0.94185,-0.124941 -1.56975,-0.361423 -1.51406,-0.570234 0.0523,-0.196222 0.81514,-1.694541 1.69514,-3.329598 1.18818,-2.207674 1.8059,-3.030302 2.4,-3.196121 0.44,-0.12281 1.88436,-0.22141 3.2097,-0.219113 2.00188,0.0035 2.73301,0.161339 4.32,0.932788 1.13869,0.553527 2.63884,1.680746 3.71399,2.790705 1.06344,1.097872 2.36804,2.946088 3.17876,4.503334 0.75628,1.452681 1.78473,3.865239 2.28544,5.361239 0.70139,2.09557 0.86323,2.38942 0.70499,1.28 -0.11296,-0.792 -0.56367,-2.592 -1.00157,-4 -0.4379,-1.408 -1.31689,-3.55762 -1.9533,-4.776933 -0.63642,-1.219313 -1.88182,-2.955362 -2.76757,-3.857886 -0.88574,-0.902525 -2.33044,-1.991135 -3.21044,-2.419134 -1.28387,-0.624427 -2.10581,-0.778958 -4.16,-0.782114 -1.408,-0.0022 -3.0098,0.111509 -3.55955,0.252606 l -0.99954,0.25654 0.74349,-3.075422 c 0.40892,-1.691481 0.91425,-4.542924 1.12295,-6.33654 0.21564,-1.85327 0.29497,-4.64436 0.18374,-6.465238 -0.10764,-1.762265 -0.42156,-4.394668 -0.69759,-5.849784 -0.27603,-1.455116 -1.0108,-4.107774 -1.63282,-5.894796 -0.62203,-1.787022 -1.57004,-4.122619 -2.10671,-5.190216 -0.53666,-1.067597 -1.62447,-2.949085 -2.41734,-4.181085 -0.79288,-1.232 -2.38049,-3.36749 -3.52802,-4.745532 -1.14754,-1.378042 -3.20163,-3.470803 -4.56465,-4.650579 -1.36303,-1.179776 -3.39302,-2.761603 -4.5111,-3.515173 -1.11807,-0.753569 -1.53157,-0.964809 -0.91888,-0.469421 0.61269,0.495387 2.12469,1.774557 3.36,2.842598 1.23531,1.068042 3.23984,3.084042 4.45451,4.480001 1.21467,1.395958 3.05299,3.817399 4.08515,5.380981 1.03217,1.563581 2.43428,4.016546 3.1158,5.451033 0.68153,1.434487 1.59945,3.755193 2.03984,5.157125 0.44038,1.401932 0.99617,3.412967 1.23509,4.468967 0.28551,1.261962 0.43126,4.003788 0.42527,8.000001 -0.008,5.049665 -0.13537,6.71718 -0.75407,9.84 -0.40973,2.068 -0.84442,3.76 -0.96598,3.76 -0.12156,0 -0.39679,-0.486058 -0.61161,-1.080128 -0.21481,-0.594071 -0.96928,-1.975503 -1.67659,-3.069851 -0.70732,-1.094347 -2.00398,-2.678089 -2.88148,-3.519427 -0.8775,-0.841338 -2.41995,-1.967132 -3.42768,-2.501765 -1.00773,-0.534632 -2.68426,-1.218032 -3.72561,-1.518668 -1.47026,-0.424456 -2.68596,-0.511754 -5.44,-0.390639 -2.66024,0.116989 -4.22642,0.373877 -6.26663,1.027867 -1.496,0.479543 -4.22018,1.650373 -6.05374,2.601845 -1.83356,0.951471 -3.40222,1.661468 -3.48592,1.577769 -0.0837,-0.0837 0.38182,-3.359514 1.03449,-7.279591 0.65266,-3.920077 1.83207,-10.367413 2.62091,-14.327413 0.78884,-3.96 2.14576,-10.213743 3.01538,-13.897207 0.86963,-3.683464 1.53519,-6.743158 1.47902,-6.79932 -0.0562,-0.05616 -0.7842,2.056308 -1.61787,4.694377 -0.83367,2.63807 -2.21844,7.569763 -3.07725,10.95932 -0.85882,3.389557 -2.07843,8.75483 -2.71024,11.92283 -0.63182,3.168 -1.39134,7.668001 -1.68784,10.000001 -0.2965,2.332 -0.62007,4.24 -0.71904,4.24 -0.099,0 -0.84208,-0.787526 -1.65136,-1.750058 -0.80928,-0.962531 -2.316318,-2.471882 -3.348976,-3.354111 -1.032658,-0.88223 -2.74156,-2.027546 -3.79756,-2.545146 -1.056,-0.517601 -2.804786,-1.16825 -3.886191,-1.445889 -1.081404,-0.277638 -3.025405,-0.502668 -4.32,-0.500067 -1.294595,0.0026 -3.28981,0.223597 -4.43381,0.491101 -1.144,0.267504 -2.836397,0.767502 -3.760882,1.111108 -0.924484,0.343606 -2.511403,1.043985 -3.526486,1.556397 -1.015082,0.512412 -2.778686,1.558381 -3.919118,2.324375 -1.140433,0.765995 -2.6133,1.805549 -3.273038,2.310121 l -1.199523,0.917403 0.202782,-1.077617 c 0.111531,-0.59269 0.686074,-2.691899 1.276764,-4.664909 0.590689,-1.97301 1.73303,-5.092158 2.538535,-6.931438 0.805505,-1.839281 2.192778,-4.617 3.082829,-6.172709 0.890051,-1.555709 2.493168,-4.04304 3.562482,-5.527402 1.069313,-1.484363 3.318249,-4.130398 4.997635,-5.880078 1.679385,-1.749681 4.566461,-4.320504 6.415724,-5.71294 2.085587,-1.570381 5.04986,-3.377788 7.806603,-4.759923 2.444368,-1.225521 4.34422,-2.22822 4.22189,-2.22822 -0.12233,0 -1.457751,0.511365 -2.967595,1.136367 -1.509845,0.625002 -3.898084,1.801366 -5.307199,2.614143 -1.409115,0.812777 -3.688787,2.313218 -5.065939,3.334314 -1.377152,1.021096 -3.601649,2.899279 -4.943326,4.173741 -1.341677,1.274462 -3.314863,3.402656 -4.384858,4.72932 -1.069996,1.326664 -2.800246,3.708116 -3.845002,5.292116 -1.044756,1.584 -2.586226,4.248 -3.425489,5.92 -0.839263,1.672 -2.036079,4.408 -2.659591,6.08 -0.623512,1.672 -1.493234,4.336001 -1.932715,5.920001 -0.439481,1.584 -0.885216,3.271794 -0.990521,3.750653 -0.173337,0.788225 -0.270454,0.840622 -1.025787,0.553445 -0.458877,-0.174465 -1.789189,-0.452522 -2.956249,-0.617904 -1.297881,-0.183921 -2.923181,-0.187343 -4.185167,-0.0088 -1.134781,0.160537 -2.864247,0.591442 -3.843255,0.957566 -0.979009,0.366125 -2.720835,1.370254 -3.870725,2.231398 -1.14989,0.861144 -2.758165,2.415282 -3.573946,3.453641 -0.815781,1.038358 -1.981815,2.741144 -2.591189,3.783968 -0.609373,1.042824 -1.466273,2.760044 -1.904223,3.816044 -0.43795,1.056 -0.894915,2.28 -1.015478,2.72 -0.120562,0.44 0.379899,-0.28 1.112136,-1.6 0.732238,-1.32 1.993179,-3.408 2.802092,-4.64 0.808913,-1.232 2.631093,-3.404802 4.049289,-4.828449 1.855271,-1.862402 3.19977,-2.892069 4.793303,-3.670889 1.952723,-0.954371 2.581706,-1.097178 5.316142,-1.207008 2.238965,-0.08993 3.602983,0.02125 4.905236,0.399828 0.992122,0.288418 1.803858,0.560412 1.803858,0.60443 0,0.04402 0.864001,2.568184 1.920001,5.609257 1.056,3.041072 1.92,5.593034 1.92,5.671027 0,0.07799 -0.840966,0.141804 -1.868812,0.141804 -1.027847,0 -2.975253,0.28298 -4.32757,0.628845 -1.352317,0.345864 -3.759541,1.300672 -5.349386,2.121795 -1.778074,0.918339 -2.832008,1.645716 -2.738319,1.889864 0.08377,0.218302 8.393342,14.275492 18.465715,31.238202 10.072373,16.96271 18.434217,30.97629 18.581875,31.14128 0.147658,0.16499 -0.7929,-2.85901 -2.090129,-6.72 -1.297229,-3.861 -6.407422,-18.99669 -11.355986,-33.63487 -4.948564,-14.638188 -8.997388,-26.693669 -8.997388,-26.789962 0,-0.09629 0.216,-0.09219 0.48,0.0091 0.264,0.101306 0.48,0.03913 0.48,-0.138174 0,-0.177301 -0.862218,-2.820708 -1.91604,-5.874236 l -1.91604,-5.55187 1.19604,-1.068459 c 0.657822,-0.587653 2.36482,-1.848143 3.793329,-2.801089 1.42851,-0.952946 3.689115,-2.237084 5.023569,-2.853639 1.334453,-0.616555 3.693673,-1.423588 5.24271,-1.793406 2.251719,-0.537576 3.490135,-0.642615 6.176432,-0.523866 2.308916,0.102066 3.953829,0.361947 5.25829,0.830762 1.04406,0.375227 2.669837,1.149838 3.612839,1.721357 0.943001,0.571519 2.593254,1.905198 3.667228,2.963732 1.07397,1.058534 2.29059,2.433263 2.70359,3.054952 l 0.75091,1.130344 -0.47264,5.109656 c -0.25995,2.810311 -0.47434,5.361656 -0.47642,5.669656 -0.002,0.343633 0.23788,0.56 0.6217,0.56 0.45926,0 0.6684,-0.276413 0.78689,-1.04 0.0888,-0.572 0.32316,-2.984 0.52087,-5.36 0.19772,-2.376 0.52762,-4.49324 0.73311,-4.704977 0.2055,-0.211737 1.85996,-1.043012 3.67659,-1.847277 1.81662,-0.804264 4.36188,-1.752814 5.65614,-2.107887 1.29425,-0.355073 3.44392,-0.767908 4.77704,-0.917412 1.33549,-0.149769 3.51998,-0.148901 4.86496,0.0019 1.55625,0.174526 3.15116,0.60817 4.4,1.196323 1.0774,0.507412 2.72151,1.528902 3.65359,2.26998 0.93208,0.741077 2.35565,2.238842 3.1635,3.328365 0.80785,1.089524 1.79672,2.68065 2.19749,3.535837 l 0.72867,1.554884 -1.73217,3.272758 c -0.9527,1.800018 -1.73217,3.36832 -1.73217,3.485116 0,0.116797 0.216,0.212357 0.48,0.212357 0.264,0 0.48,0.04971 0.48,0.110472 0,0.06076 -7.5704,14.568753 -16.8231,32.240003 -9.25271,17.67124 -17.53511,33.49753 -18.40535,35.16953 l -1.582241,3.04 L 128.30455,130.88 c 16.01338,-16.104 29.11979,-29.38044 29.12535,-29.5032 z M 99.202135,121.44 c 1.587015,-18.304 2.883775,-33.587971 2.881675,-33.964384 -0.003,-0.518778 -0.25762,-0.732002 -1.0527,-0.88116 -0.57689,-0.108226 -2.129783,-0.05973 -3.450871,0.107767 -1.321087,0.167498 -3.549085,0.669243 -4.951106,1.11499 -1.402021,0.445746 -3.70113,1.468785 -5.10913,2.27342 -1.408,0.804634 -2.970452,1.796344 -3.472115,2.203799 l -0.912115,0.740828 6.352115,32.04783 c 5.152979,25.99792 6.397106,31.82027 6.590439,30.84237 0.131078,-0.663 1.536792,-16.18145 3.123808,-34.48546 z M 87.570428,150.32001 C 85.767938,147.28401 77.12862,132.753 68.371943,118.02889 52.710601,91.694773 52.42875,91.248741 51.105357,90.704385 c -0.739946,-0.304364 -2.425355,-0.619454 -3.745355,-0.7002 -1.91408,-0.117086 -2.760218,-0.01085 -4.179142,0.524726 -0.978528,0.369345 -2.042017,0.863755 -2.363309,1.09869 -0.537482,0.393016 1.432595,2.976008 24.650656,32.319779 13.879154,17.54094 25.267371,31.89263 25.30715,31.89263 0.03978,0 -1.402439,-2.484 -3.204929,-5.52 z M 107.52852,124.32 l 8.98096,-29.439996 -2.22907,-2.08 c -1.22599,-1.144001 -3.03384,-2.566315 -4.01744,-3.160699 -0.98361,-0.594384 -2.74251,-1.427031 -3.90868,-1.850327 -1.16616,-0.423295 -2.18235,-0.707574 -2.2582,-0.631729 -0.0758,0.07585 -1.41697,14.804491 -2.98029,32.730331 -1.563308,17.92583 -2.911558,33.24043 -2.996105,34.03243 -0.118801,1.11286 -0.08766,1.25826 0.137065,0.64 0.159933,-0.44 4.33222,-14.048 9.27176,-30.24001 z m 9.92066,-3.22389 c 8.96286,-17.21362 16.2339,-31.359694 16.15788,-31.435719 -0.076,-0.07603 -1.31635,0.03404 -2.75628,0.244581 -1.43992,0.210545 -3.57041,0.675236 -4.73441,1.032647 -1.164,0.357411 -3.12437,1.144257 -4.35637,1.748546 -1.232,0.60429 -2.46821,1.273113 -2.74714,1.486273 -0.30453,0.232728 -3.99544,11.827312 -9.23847,29.021662 -4.80224,15.74875 -8.80897,28.85275 -8.90385,29.12 -0.0949,0.26725 -0.0701,0.39447 0.055,0.28271 0.12514,-0.11176 7.56077,-14.28708 16.52363,-31.5007 z M 86.83922,120.94579 C 81.252566,92.787364 81.218063,92.634484 80.211666,91.579749 79.655252,90.99661 78.448333,90.019786 77.529625,89.409031 76.610917,88.798275 74.900581,87.937725 73.728878,87.496697 72.557176,87.05567 71.528301,86.765038 71.44249,86.850849 c -0.08581,0.08581 4.576525,14.189901 10.360747,31.342431 5.784221,17.15252 10.547165,31.15758 10.584319,31.12234 0.03715,-0.0352 -2.459597,-12.80166 -5.548336,-28.36983 z M 51.908766,61.034102 c 0.615656,-0.927246 2.268336,-3.123246 3.672622,-4.880001 1.404285,-1.756754 3.908954,-4.634464 5.56593,-6.394911 1.656977,-1.760446 4.357591,-4.470891 6.001366,-6.02321 1.643775,-1.552319 4.523775,-4.045563 6.4,-5.540543 1.876225,-1.49498 5.030009,-3.813846 7.008408,-5.153035 1.978398,-1.33919 3.550637,-2.481341 3.493864,-2.538115 -0.05677,-0.05677 -1.017389,0.268234 -2.134702,0.722239 -1.117312,0.454005 -3.427461,1.526001 -5.133665,2.382214 -1.706203,0.856213 -4.833557,2.714068 -6.949674,4.128568 -2.251196,1.504791 -5.242709,3.903916 -7.210349,5.782534 -1.849575,1.765895 -4.164998,4.257975 -5.145383,5.537954 -0.980386,1.27998 -2.436571,3.473605 -3.235967,4.874721 -0.799396,1.401117 -1.865988,3.627485 -2.370204,4.947485 -0.504216,1.32 -1.015167,2.724 -1.135447,3.12 -0.12028,0.396 -0.157375,0.72 -0.08243,0.72 0.07494,0 0.639978,-0.758655 1.255634,-1.6859 z"
         id="path8" />
      <path
         style="fill:#c3996b;"
         d="m 67.518848,129.14377 -28.638847,-36.367644 0.02819,-4.068061 c 0.01949,-2.812932 0.242481,-5.123307 0.722737,-7.488268 0.382001,-1.881113 1.189607,-5.123748 1.79468,-7.205855 0.605073,-2.082107 1.736112,-5.367015 2.513419,-7.299794 0.777307,-1.93278 2.234991,-5.151638 3.239298,-7.153017 1.004306,-2.001379 2.55836,-4.809379 3.453451,-6.24 0.895092,-1.430621 2.487472,-3.732741 3.538623,-5.115822 1.051152,-1.383082 2.832604,-3.537748 3.958783,-4.788147 1.126179,-1.250399 3.231823,-3.33314 4.679209,-4.628313 1.447386,-1.295173 3.921535,-3.222211 5.498109,-4.282306 1.576574,-1.060096 4.292626,-2.643111 6.035672,-3.517813 1.743046,-0.874701 4.655953,-2.087873 6.473125,-2.695937 1.817173,-0.608064 4.64512,-1.384237 6.284328,-1.724828 1.639208,-0.340592 4.901004,-0.780933 7.248435,-0.978537 3.131303,-0.263589 5.475095,-0.265379 8.8,-0.0067 2.49257,0.193908 5.82794,0.571478 7.41194,0.839044 1.584,0.267565 4.77808,0.98133 7.09796,1.586143 2.31987,0.604814 5.70387,1.68889 7.52,2.409058 1.81612,0.720169 4.51661,1.952455 6.00109,2.738415 1.48447,0.78596 3.57247,2.019339 4.64,2.740842 1.06752,0.721503 2.91202,2.099592 4.09889,3.062421 1.18686,0.962828 3.27486,2.935007 4.64,4.382622 1.36513,1.447614 3.3314,3.817814 4.36949,5.267112 1.03808,1.449297 2.79525,4.427722 3.90483,6.618722 1.10958,2.191001 2.59483,5.758468 3.30056,7.927705 0.70573,2.169238 1.57109,5.236761 1.92302,6.816718 0.35193,1.579957 0.85172,4.518714 1.11064,6.530571 0.25893,2.011856 0.56569,5.601921 0.68169,7.977921 0.11657,2.387516 0.0548,6.395632 -0.13805,8.960001 -0.19194,2.552 -0.50902,5.648 -0.70463,6.879997 l -0.35565,2.24 -31.24607,31.4757 -31.246075,31.47571 z m 75.297612,-12.78113 14.77513,-14.99736 -1.91579,-1.783254 c -1.05369,-0.980788 -3.05546,-2.628278 -4.44839,-3.661088 -1.39293,-1.032811 -3.84093,-2.514258 -5.44,-3.292105 -1.59907,-0.777847 -4.04644,-1.705544 -5.43859,-2.061548 -1.39216,-0.356005 -2.88356,-0.647282 -3.31424,-0.647282 -0.61376,0 -0.73689,-0.121066 -0.56955,-0.56 0.11743,-0.308 0.85958,-1.746545 1.64924,-3.196767 0.78965,-1.450221 1.70184,-2.779184 2.02708,-2.953249 0.32525,-0.174066 1.38473,-0.409729 2.35441,-0.523695 1.33566,-0.156982 2.29408,-0.04457 3.95365,0.463701 1.35939,0.416342 2.74151,1.12535 3.6425,1.86856 0.79854,0.658706 1.98736,1.851003 2.64182,2.649549 0.65446,0.798546 1.68564,2.394745 2.2915,3.547109 0.60587,1.152365 1.53808,3.384365 2.07159,4.960001 0.53351,1.575635 0.97298,2.600784 0.9766,2.278108 0.004,-0.322676 -0.28949,-1.762676 -0.65137,-3.2 -0.36188,-1.437324 -1.30413,-3.951569 -2.09389,-5.58721 -1.04635,-2.16704 -1.94313,-3.481078 -3.30531,-4.843264 -1.33853,-1.338532 -2.4023,-2.070349 -3.74611,-2.577127 -1.54555,-0.582861 -2.32849,-0.681546 -4.43673,-0.559221 -1.408,0.08169 -2.78541,0.244856 -3.06091,0.36258 -0.42784,0.182825 -0.39498,-0.206117 0.22534,-2.666646 0.39943,-1.584379 0.89498,-4.433581 1.10122,-6.33156 0.21177,-1.94888 0.28856,-4.887685 0.17642,-6.752001 -0.10921,-1.815623 -0.48961,-4.729271 -0.84532,-6.474775 -0.35571,-1.745503 -1.02267,-4.219994 -1.48213,-5.498868 -0.45947,-1.278874 -1.41156,-3.477226 -2.11577,-4.885226 -0.70421,-1.408 -2.15663,-3.856 -3.2276,-5.44 -1.08096,-1.598785 -3.4473,-4.374751 -5.31923,-6.240001 -1.85461,-1.848 -4.52403,-4.127702 -5.93203,-5.066005 -1.408,-0.938303 -2.2,-1.394611 -1.76,-1.014017 0.44,0.380593 1.91673,1.640699 3.28161,2.800235 1.36489,1.159535 3.33183,3.064903 4.371,4.234151 1.03917,1.169247 2.69691,3.25141 3.68387,4.627028 0.98696,1.375618 2.58133,4.072953 3.54305,5.994078 0.96171,1.921124 2.10654,4.674558 2.54406,6.118742 0.43751,1.444184 1.01619,3.904652 1.28595,5.467706 0.26975,1.563055 0.49047,4.468635 0.49047,6.456845 0,1.988211 -0.15029,4.741348 -0.33397,6.118084 -0.18368,1.376735 -0.56339,3.691155 -0.84379,5.143155 -0.28041,1.452 -0.59812,2.636129 -0.70604,2.631397 -0.10791,-0.0047 -0.60339,-0.920645 -1.10107,-2.035363 -0.49768,-1.114718 -1.59144,-2.874847 -2.43059,-3.911397 -0.83915,-1.036551 -2.38887,-2.489637 -3.44382,-3.229081 -1.05495,-0.739443 -2.69719,-1.659367 -3.64941,-2.044275 -1.26168,-0.509997 -2.6552,-0.741992 -5.13725,-0.855257 -2.52204,-0.11509 -4.05838,-0.01199 -5.92,0.397281 -1.38274,0.303989 -3.73807,1.056057 -5.23407,1.671262 -1.496,0.615206 -3.56598,1.614371 -4.59996,2.220367 -1.03398,0.605996 -1.94858,1.033185 -2.03246,0.949309 -0.0839,-0.08388 0.37268,-3.293893 1.01456,-7.133372 0.64188,-3.83948 1.67464,-9.572872 2.29502,-12.740872 0.62038,-3.168 1.55741,-7.704 2.08229,-10.08 0.52487,-2.376 1.45315,-6.321572 2.06283,-8.767938 0.60968,-2.446365 1.05899,-4.497466 0.99845,-4.558001 -0.0605,-0.06054 -0.92405,2.445037 -1.91893,5.567937 -0.99487,3.122901 -2.3811,7.910002 -3.0805,10.638002 -0.6994,2.728 -1.71831,7.12 -2.26423,9.76 -0.54593,2.64 -1.34423,7.032 -1.774,9.760001 -0.42978,2.728 -0.78178,5.44 -0.78224,6.026666 -4.5e-4,0.586667 -0.12811,1.018667 -0.28367,0.96 -0.15557,-0.05867 -1.02565,-0.999036 -1.93353,-2.089711 -0.90787,-1.090674 -2.544594,-2.659586 -3.637154,-3.48647 -1.09256,-0.826885 -2.706472,-1.83642 -3.586472,-2.243413 -0.88,-0.406993 -2.536,-0.980297 -3.680001,-1.274009 -1.564086,-0.401566 -2.873712,-0.490984 -5.28,-0.360505 -1.93728,0.105047 -4.083904,0.449595 -5.44,0.873159 -1.232,0.384804 -3.608,1.405059 -5.28,2.267234 -1.672,0.862175 -4.237833,2.431873 -5.70185,3.488219 -1.687108,1.217314 -2.601431,1.715233 -2.496858,1.359729 0.09075,-0.308494 0.389874,-1.450686 0.66473,-2.538204 0.274855,-1.087517 1.013794,-3.463517 1.642086,-5.28 0.628291,-1.816482 1.907754,-4.886696 2.843251,-6.822696 0.935497,-1.936 2.554562,-4.816 3.597922,-6.4 1.04336,-1.584 2.589321,-3.744 3.435468,-4.8 0.846147,-1.056 2.34773,-2.75965 3.33685,-3.785888 0.989121,-1.026238 2.878401,-2.768301 4.198401,-3.871252 1.32,-1.10295 3.264,-2.590563 4.32,-3.305807 1.056,-0.715243 3.055643,-1.912284 4.443651,-2.66009 1.388007,-0.747806 3.908007,-1.921358 5.599996,-2.607893 1.692,-0.686535 2.64435,-1.157869 2.11635,-1.047409 -0.528,0.11046 -2.256,0.709906 -3.839996,1.3321 -1.584,0.622195 -3.96,1.712951 -5.28,2.423901 -1.32,0.710951 -3.66123,2.1529 -5.202733,3.20433 -1.541503,1.051431 -4.168017,3.203795 -5.836697,4.78303 -1.66868,1.579235 -3.923889,3.974656 -5.011576,5.323157 -1.087686,1.348502 -2.736289,3.624735 -3.663562,5.058296 -0.927273,1.433561 -2.434986,4.097561 -3.350474,5.92 -0.915488,1.822439 -2.202627,4.753525 -2.860309,6.513525 -0.657682,1.76 -1.590278,4.728867 -2.072436,6.597482 l -0.87665,3.397482 -1.482782,-0.472028 c -0.848094,-0.269982 -2.715535,-0.473181 -4.362783,-0.474721 -2.052038,-0.0019 -3.484612,0.190649 -4.983096,0.669829 -1.173239,0.375174 -3.107494,1.377881 -4.374782,2.267863 -1.249426,0.877438 -2.936247,2.411162 -3.74849,3.408276 -0.812243,0.997114 -2.048043,2.774467 -2.74622,3.949675 -0.698178,1.175207 -1.772964,3.385522 -2.388414,4.911811 -0.615449,1.526289 -1.118998,2.885136 -1.118998,3.019661 0,0.134524 0.758832,-1.123392 1.686293,-2.795369 0.927461,-1.671978 2.29468,-3.930907 3.038263,-5.019844 0.743583,-1.088936 2.151359,-2.84332 3.128391,-3.89863 0.977032,-1.055311 2.533584,-2.421324 3.459006,-3.035584 0.925421,-0.614259 2.610814,-1.431565 3.745316,-1.816235 1.741338,-0.590426 2.536391,-0.674187 5.102731,-0.537586 1.672,0.089 3.495307,0.33035 4.051792,0.536337 0.956711,0.354134 1.107635,0.656438 2.772348,5.553053 0.968306,2.848191 1.852439,5.409767 1.96474,5.692392 0.174679,0.439608 -0.179687,0.538197 -2.452348,0.682268 -1.629353,0.103291 -3.646386,0.500423 -5.216532,1.02708 -1.408,0.472271 -3.463205,1.385045 -4.567123,2.028387 -1.293937,0.754082 -1.947882,1.324094 -1.8404,1.604188 0.0917,0.238962 8.465754,14.396321 18.609014,31.460791 10.143259,17.06447 18.486,30.9826 18.539423,30.92918 0.05342,-0.0534 -4.988721,-15.14257 -11.204767,-33.53145 C 70.729132,91.100633 69.27152,86.546719 69.763223,86.46219 c 0.503782,-0.08661 0.335703,-0.7729 -1.466924,-5.989703 L 66.2604,74.580598 68.548075,72.790616 c 1.258221,-0.984491 3.233631,-2.341223 4.389801,-3.014963 1.15617,-0.673739 3.026743,-1.613068 4.156829,-2.087397 1.130086,-0.47433 3.13312,-1.138231 4.451188,-1.475336 1.45221,-0.371412 3.484619,-0.612918 5.158067,-0.612918 1.518869,0 3.614863,0.222252 4.657764,0.493894 1.042901,0.271641 2.81507,0.946259 3.938152,1.49915 1.150476,0.566378 3.049526,1.946206 4.349785,3.160504 1.269299,1.185385 2.693979,2.71248 3.165959,3.393545 l 0.85814,1.238298 -0.47593,4.947305 c -0.26176,2.721018 -0.47636,5.271305 -0.47688,5.667305 -6.5e-4,0.497067 0.18934,0.72 0.61363,0.72 0.41616,0 0.66911,-0.284104 0.78349,-0.88 0.0929,-0.484 0.34096,-2.940757 0.55123,-5.45946 l 0.38232,-4.57946 2.43419,-1.220157 C 108.82462,73.90984 111,72.972432 112.32,72.497797 c 1.32,-0.474635 3.32694,-1.078198 4.45985,-1.341253 1.13292,-0.263054 3.43692,-0.476869 5.12,-0.475144 2.16271,0.0022 3.67015,0.192662 5.14015,0.64939 1.144,0.355439 2.79676,1.101024 3.6728,1.656854 0.87604,0.55583 2.41184,1.860726 3.41288,2.899768 1.03,1.069103 2.35276,2.928018 3.0472,4.282346 l 1.22713,2.393178 -1.77657,3.50459 c -1.52939,3.01698 -1.69708,3.51766 -1.20527,3.598533 0.46547,0.07654 -2.42486,5.814134 -15.60319,30.973941 -8.89597,16.98401 -17.18932,32.82401 -18.42967,35.20001 l -2.255174,4.32 14.455604,-14.4 c 7.95057,-7.92 21.1044,-21.14882 29.23072,-29.39737 z m -43.570873,4.84404 c 1.624943,-18.78433 2.843033,-34.264329 2.706873,-34.400001 -0.13616,-0.135671 -1.35116,-0.224798 -2.70001,-0.198058 -1.348845,0.02674 -3.444955,0.281424 -4.658021,0.565964 -1.213067,0.284541 -3.390179,1.072471 -4.838027,1.750956 -1.447848,0.678484 -3.51534,1.833166 -4.594425,2.565959 -1.079086,0.732793 -1.966657,1.434985 -1.972381,1.560427 -0.0057,0.125442 2.838233,14.609433 6.319905,32.186653 4.542937,22.93501 6.39403,31.69921 6.555982,31.04 0.124118,-0.50522 1.555165,-16.28757 3.180104,-35.0719 z m -9.148581,33.27333 c -0.4506,-0.748 -9.062762,-15.23928 -19.138138,-32.20285 C 52.793539,91.692818 52.627933,91.42864 51.200002,90.757398 c -1.151047,-0.541085 -2.050011,-0.676655 -4.48,-0.675617 -2.708,0.0012 -3.225798,0.099 -4.741276,0.895932 -0.935702,0.492049 -1.655702,1.021261 -1.6,1.176026 0.0557,0.154766 11.391579,14.547491 25.19084,31.983831 13.79926,17.43634 25.147422,31.70244 25.218138,31.70244 0.07072,0 -0.240098,-0.612 -0.690698,-1.36 z m 17.270224,-29.48704 9.1537,-30.047038 -1.38046,-1.422272 c -0.75926,-0.782249 -2.25981,-2.054981 -3.33456,-2.828294 -1.07475,-0.773312 -2.87475,-1.825433 -4,-2.338047 -1.12525,-0.512614 -2.43301,-1.019225 -2.90613,-1.125803 -0.81095,-0.18268 -0.87054,-0.115822 -1.04042,1.167354 -0.0991,0.748624 -1.40271,15.54513 -2.8969,32.88113 -1.494185,17.33601 -2.785901,32.16801 -2.870478,32.96001 -0.08458,0.792 -0.09183,1.296 -0.01611,1.12 0.07571,-0.176 4.256828,-13.84117 9.291358,-30.36704 z m 10.03077,-3.6782 c 9.00801,-17.31688 16.3118,-31.551636 16.23065,-31.632786 -0.0811,-0.08115 -1.41679,0.02058 -2.96809,0.22607 -1.55131,0.205488 -3.90056,0.735157 -5.22056,1.177042 -1.32,0.441885 -3.192,1.230274 -4.16,1.751977 -0.968,0.521703 -2.00024,1.130064 -2.29387,1.351913 -0.34111,0.257728 -3.6102,10.507024 -9.05429,28.387194 -4.68624,15.3911 -8.73162,28.62625 -8.98975,29.41144 -0.25812,0.78519 -0.34624,1.28919 -0.1958,1.12 0.15043,-0.16919 7.6437,-14.47597 16.65171,-31.79285 z M 86.829043,120.79276 81.180608,92.356316 80.030305,91.280849 c -0.632666,-0.591506 -2.086302,-1.633353 -3.230302,-2.315213 -1.144,-0.681861 -2.841595,-1.484477 -3.772433,-1.78359 -0.930839,-0.299114 -1.731093,-0.489438 -1.778342,-0.422943 -0.04725,0.0665 4.667371,14.191877 10.476935,31.389737 5.809565,17.19785 10.605251,31.22642 10.65708,31.17459 0.05183,-0.0518 -2.447561,-12.89063 -5.5542,-28.53067 z M 53.198976,59.339038 c 1.314598,-1.771531 3.683819,-4.723531 5.264935,-6.560001 1.581115,-1.836469 4.807376,-5.211035 7.169468,-7.499035 2.362091,-2.288 5.876892,-5.429502 7.810668,-6.981116 1.933776,-1.551613 5.269463,-3.998106 7.412638,-5.436651 2.143176,-1.438545 3.859414,-2.652804 3.813865,-2.698354 -0.04555,-0.04555 -0.996983,0.28864 -2.114295,0.742645 -1.117313,0.454005 -3.469877,1.547286 -5.227921,2.429513 -1.758044,0.882228 -4.360118,2.325735 -5.782387,3.207794 -1.42227,0.882059 -3.521944,2.335673 -4.665944,3.230253 -1.144,0.894581 -2.914436,2.355376 -3.934301,3.246213 -1.019865,0.890836 -2.760077,2.699703 -3.867138,4.019703 -1.107061,1.32 -2.593207,3.264 -3.302548,4.32 -0.70934,1.056 -1.864849,3.072 -2.567798,4.48 -0.702949,1.408 -1.586367,3.460574 -1.963152,4.561274 -0.376785,1.100701 -0.685064,2.096701 -0.685064,2.213334 0,0.116632 0.05598,0.152059 0.124397,0.07873 0.06842,-0.07333 1.199978,-1.582768 2.514577,-3.354298 z"
         id="path7" />
      <path
         style="fill:#c3996b;"
         d="M 68.640003,130.53566 C 53.504002,111.31502 40.580002,94.875047 39.920002,94.00239 c -1.139665,-1.506873 -1.200001,-1.707662 -1.200001,-3.99345 0,-1.32374 0.225152,-3.937281 0.500336,-5.807869 0.275185,-1.870587 0.918118,-5.064575 1.428741,-7.09775 0.510622,-2.033175 1.427266,-5.129175 2.036987,-6.88 0.609721,-1.750825 1.631119,-4.407318 2.269774,-5.903319 0.638655,-1.496 1.953083,-4.219496 2.92095,-6.052213 0.967867,-1.832717 2.419269,-4.352717 3.225338,-5.6 0.806068,-1.247283 2.233252,-3.288739 3.171519,-4.53657 0.938267,-1.247831 2.643516,-3.31439 3.789441,-4.592353 1.145926,-1.277964 3.202519,-3.328394 4.570208,-4.556511 1.367689,-1.228117 3.982923,-3.237929 5.811631,-4.466247 1.828709,-1.228319 4.309688,-2.729226 5.513288,-3.335349 1.203599,-0.606124 3.247181,-1.52265 4.541292,-2.036726 1.294111,-0.514076 3.709132,-1.299223 5.366713,-1.744772 1.657581,-0.445549 4.544265,-1.032652 6.414852,-1.304674 1.95644,-0.284507 5.585402,-0.494586 8.543612,-0.494586 2.828397,0 6.841917,0.222485 8.918927,0.49441 2.07702,0.271926 5.28839,0.83617 7.13639,1.253876 1.848,0.417707 4.79673,1.220467 6.55273,1.783912 1.75601,0.563446 4.49201,1.596101 6.08001,2.29479 1.58799,0.698689 4.18553,2.034301 5.7723,2.968026 1.58677,0.933725 4.18322,2.700985 5.76988,3.927243 1.58667,1.226258 4.08341,3.509402 5.54831,5.073652 1.4649,1.564251 3.66505,4.34065 4.88923,6.169777 1.22417,1.829126 2.94264,4.811921 3.81883,6.628433 0.87618,1.816511 2.16364,5.040373 2.86102,7.164138 0.69739,2.123765 1.61787,5.620971 2.04553,7.771568 0.42765,2.150597 0.94838,5.513288 1.15718,7.472646 0.2389,2.241891 0.32117,6.393638 0.22195,11.2 -0.0867,4.200642 -0.33763,8.789532 -0.55759,10.197528 l -0.39993,2.56 -31.23972,31.46114 -31.239726,31.46114 z m 74.500657,-14.49816 14.45935,-14.6825 -2.37809,-2.197687 c -1.30795,-1.208727 -3.43432,-2.927856 -4.72526,-3.820286 -1.29095,-0.89243 -3.67681,-2.245411 -5.30192,-3.006625 -1.6251,-0.761213 -3.89993,-1.614959 -5.05518,-1.897212 -1.15524,-0.282252 -2.40675,-0.513187 -2.78111,-0.513187 -0.37437,0 -0.75192,-0.11527 -0.83899,-0.256157 -0.0871,-0.140886 0.59675,-1.603467 1.5196,-3.25018 1.11853,-1.995884 1.93845,-3.093289 2.45943,-3.291783 0.42983,-0.163768 1.81362,-0.301187 3.07509,-0.305375 1.78828,-0.0059 2.68489,0.171533 4.06978,0.805558 0.97692,0.447245 2.49837,1.488674 3.38102,2.314286 0.88264,0.825612 2.13606,2.301474 2.78536,3.279692 0.64931,0.978218 1.57904,2.727005 2.06608,3.886193 0.48704,1.159189 1.256,3.329399 1.7088,4.822691 0.79073,2.607742 0.81532,2.645502 0.62192,0.955076 -0.11074,-0.968 -0.55223,-2.984 -0.98108,-4.48 -0.42884,-1.496 -1.28264,-3.742695 -1.89732,-4.992654 -0.61468,-1.249959 -1.83716,-3.079985 -2.71663,-4.066723 -1.06317,-1.192852 -2.28295,-2.130765 -3.63989,-2.798785 -1.73482,-0.854048 -2.39268,-1.003335 -4.38692,-0.995513 -1.29033,0.0051 -2.75912,0.166247 -3.26397,0.358192 -0.86157,0.327567 -0.90728,0.304379 -0.74464,-0.377764 0.0953,-0.399715 0.50078,-2.166754 0.90107,-3.926754 0.60694,-2.668615 0.73025,-4.156493 0.74257,-8.96 0.0114,-4.458596 -0.11897,-6.371625 -0.57722,-8.467043 -0.32559,-1.488873 -0.95324,-3.792873 -1.39477,-5.12 -0.44153,-1.327127 -1.36047,-3.58939 -2.04209,-5.027251 -0.68162,-1.437861 -2.09029,-3.885861 -3.13037,-5.44 -1.04008,-1.554139 -3.07857,-4.094339 -4.52998,-5.644888 -1.4514,-1.550549 -3.80585,-3.727681 -5.2321,-4.838071 -1.42626,-1.11039 -3.4212,-2.546184 -4.4332,-3.190653 -1.012,-0.644469 -1.84,-1.119095 -1.84,-1.054725 0,0.06437 1.332,1.109808 2.96,2.323195 1.628,1.213387 4.18467,3.447142 5.68149,4.963901 1.49682,1.516759 3.68533,4.111747 4.86336,5.766639 1.17803,1.654892 2.78414,4.232895 3.56914,5.728895 0.785,1.496 1.86416,3.967866 2.39813,5.493035 0.53397,1.525169 1.20188,3.891495 1.48424,5.258503 0.28236,1.367007 0.59734,4.079141 0.69996,6.026965 0.10261,1.947824 0.0272,4.981498 -0.16754,6.741498 -0.19476,1.76 -0.5891,4.46 -0.8763,6 -0.2872,1.54 -0.6145,2.798501 -0.72733,2.796668 -0.11283,-0.0018 -0.59464,-0.829832 -1.0707,-1.84 -0.47606,-1.010167 -1.5256,-2.669045 -2.33231,-3.686394 -0.80672,-1.017349 -2.32885,-2.484362 -3.38252,-3.260029 -1.05367,-0.775667 -2.71507,-1.709362 -3.692,-2.074877 -0.97692,-0.365516 -2.79978,-0.80974 -4.0508,-0.987166 -1.57525,-0.223411 -3.06814,-0.215466 -4.85569,0.02584 -1.41962,0.191639 -3.87713,0.779111 -5.46113,1.305493 -1.584,0.526383 -4.22031,1.678345 -5.85847,2.559918 l -2.97846,1.602858 0.17698,-1.061157 c 0.0973,-0.583636 0.69375,-4.157157 1.32537,-7.941158 0.63161,-3.784 1.79121,-10.048 2.5769,-13.92 0.78569,-3.872 2.13984,-10.053744 3.00923,-13.737207 0.86939,-3.683464 1.52052,-6.757393 1.44696,-6.830953 -0.0736,-0.07356 -0.78948,1.902702 -1.59094,4.391693 -0.80146,2.488991 -2.0316,6.64292 -2.73365,9.230953 -0.70205,2.588032 -1.70658,6.649514 -2.23228,9.025514 -0.52569,2.376 -1.31233,6.264 -1.74807,8.64 -0.43574,2.376 -0.95169,5.616001 -1.14656,7.200001 -0.19486,1.584 -0.42386,3.207828 -0.50888,3.608507 -0.13901,0.65507 -0.33239,0.518928 -1.91838,-1.350545 -0.97008,-1.143478 -2.614613,-2.733751 -3.654517,-3.533938 C 97.205329,67.523839 95.456096,66.444262 94.358048,65.924968 93.26,65.405673 91.562929,64.814993 90.586777,64.612345 89.544456,64.39596 87.42276,64.31102 85.44598,64.406538 c -2.229868,0.107747 -4.068034,0.397612 -5.445977,0.85879 -1.144,0.382881 -3.277313,1.282599 -4.740696,1.999374 -1.463382,0.716775 -3.947382,2.213937 -5.52,3.327027 -1.572617,1.113089 -2.858941,1.849306 -2.858497,1.636036 4.44e-4,-0.213269 0.360834,-1.731614 0.800868,-3.374099 0.440033,-1.642485 1.373221,-4.45229 2.073749,-6.244012 0.700529,-1.791722 1.928062,-4.529383 2.727852,-6.083691 0.799789,-1.554308 2.26855,-4.062648 3.263912,-5.57409 0.995362,-1.511442 2.838713,-3.98193 4.096336,-5.489974 1.257623,-1.508043 3.170084,-3.557459 4.249915,-4.554256 1.079831,-0.996797 2.823563,-2.474294 3.874961,-3.283326 1.051397,-0.809031 3.108625,-2.214488 4.571616,-3.123238 1.462992,-0.908749 3.739985,-2.152922 5.059985,-2.764829 1.32,-0.611907 3.767996,-1.593655 5.439996,-2.181662 1.672,-0.588007 2.536,-0.979939 1.92,-0.870961 -0.616,0.108979 -2.56,0.696026 -4.32,1.30455 -1.759996,0.608523 -4.734621,1.901112 -6.610274,2.872421 -1.875652,0.971308 -4.755652,2.770096 -6.4,3.997306 -1.644347,1.227209 -4.118289,3.336222 -5.497649,4.686694 -1.379359,1.350472 -3.338751,3.463404 -4.354205,4.695404 -1.015454,1.232 -2.723185,3.576029 -3.794957,5.208953 -1.071773,1.632925 -2.736376,4.584925 -3.699118,6.56 -0.962742,1.975076 -2.317225,5.247047 -3.009963,7.271047 -0.692737,2.024001 -1.515187,4.735972 -1.827666,6.026604 -0.514636,2.125595 -0.632095,2.328957 -1.247155,2.15924 -0.373456,-0.103049 -1.665714,-0.354552 -2.871686,-0.558895 -1.666037,-0.282298 -2.780475,-0.282027 -4.64,0.0011 -1.576152,0.240005 -3.296374,0.788904 -4.832501,1.541984 -1.6948,0.830869 -3.049192,1.833339 -4.679282,3.463429 -1.311246,1.311246 -2.929464,3.379487 -3.7771,4.827504 -0.815646,1.393369 -1.89783,3.54266 -2.404853,4.776202 -0.507023,1.233542 -1.023567,2.602804 -1.147876,3.042804 -0.124308,0.44 0.718808,-0.839866 1.873592,-2.844148 1.154784,-2.004281 2.916653,-4.710873 3.915265,-6.014649 0.998612,-1.303776 2.551356,-3.018626 3.450544,-3.810778 0.899187,-0.792153 2.707329,-1.97356 4.018092,-2.625351 2.272697,-1.130122 2.53237,-1.185074 5.600001,-1.185074 1.769236,0 3.869243,0.189881 4.666682,0.421957 l 1.449888,0.421958 1.836078,5.338043 c 1.009842,2.935923 1.832999,5.482042 1.829236,5.658042 -0.0038,0.176 -0.906448,0.363977 -2.005966,0.417727 -1.099519,0.05375 -2.863125,0.31437 -3.919125,0.579156 -1.056,0.264786 -3.259071,1.12746 -4.895714,1.917053 -1.636643,0.789593 -3.046918,1.621175 -3.133943,1.84796 -0.08703,0.226785 8.216725,14.51213 18.452781,31.74522 10.236055,17.23309 18.740482,31.47184 18.898726,31.64167 0.158245,0.16983 -2.678991,-8.47017 -6.304967,-19.2 C 81.950908,124.13896 76.784616,108.844 74.096235,100.88 69.880629,88.391784 69.289096,86.400003 69.795865,86.400003 c 0.517984,0 0.346415,-0.701973 -1.448268,-5.925564 l -2.035862,-5.925565 2.764134,-2.093768 c 1.520273,-1.151573 4.348134,-2.869492 6.284134,-3.817599 1.936,-0.948106 4.384,-1.953372 5.44,-2.233922 1.056,-0.280551 3.288,-0.591445 4.96,-0.690876 2.222892,-0.13219 3.632337,-0.04113 5.243751,0.338797 1.212063,0.285768 3.217636,1.052361 4.456829,1.703538 1.239193,0.651178 3.088764,1.957657 4.110157,2.903287 1.02139,0.94563 2.34073,2.390355 2.93187,3.2105 l 1.07478,1.491172 -0.47679,5.525232 c -0.26224,3.038877 -0.41915,5.581187 -0.3487,5.649578 0.0705,0.06839 0.4142,0.174036 0.76387,0.234768 0.59934,0.104096 0.66352,-0.207813 1.12,-5.443905 l 0.48423,-5.554328 1.44,-0.753721 c 0.792,-0.414546 2.88,-1.321079 4.64,-2.014517 1.76,-0.693439 4.33133,-1.508683 5.71407,-1.811653 1.86432,-0.408491 3.39431,-0.50981 5.92,-0.392035 2.45575,0.114513 3.90145,0.354346 5.1821,0.859682 0.97689,0.385473 2.70564,1.396942 3.84167,2.247707 1.13603,0.850766 2.69333,2.389775 3.46066,3.420019 0.76733,1.030245 1.77457,2.64413 2.23832,3.586411 l 0.84319,1.713238 -1.82873,3.465984 c -1.61576,3.06235 -1.75853,3.47772 -1.22603,3.566762 0.508,0.08494 -1.80853,4.701072 -14.74423,29.380775 -8.4408,16.10401 -16.72589,31.94401 -18.4113,35.20001 l -3.064379,5.92 14.777979,-14.72 c 8.12789,-8.096 21.28469,-21.32713 29.23734,-29.40251 z m -43.917989,5.94357 c 2.184829,-24.914467 2.976439,-35.169295 2.727729,-35.336167 -0.19272,-0.129305 -1.09373,-0.237305 -2.002246,-0.24 -0.908518,-0.0027 -2.733205,0.201997 -4.05486,0.454872 -1.321654,0.252874 -3.386322,0.848701 -4.58815,1.324059 -1.201827,0.475359 -3.15513,1.425639 -4.340672,2.111734 -1.185543,0.686096 -2.550929,1.587553 -3.034191,2.003238 l -0.87866,0.755791 6.382836,32.177393 c 3.51056,17.69757 6.456469,32.10376 6.546464,32.01377 0.09,-0.09 1.548783,-15.95911 3.24175,-35.26469 z m -8.001422,34.25894 C 91.04455,155.93201 82.285649,141.20801 71.757025,123.52 54.34173,94.262453 52.509712,91.31054 51.457721,90.811933 c -0.635994,-0.301439 -2.003718,-0.684535 -3.039387,-0.851325 -1.158156,-0.186515 -2.494204,-0.190346 -3.470683,-0.01 -0.873207,0.161317 -2.235649,0.62496 -3.027649,1.030318 -0.792,0.405357 -1.44,0.910447 -1.44,1.122421 0,0.211973 11.448,14.854873 25.440001,32.539783 13.992,17.68491 25.481067,32.15493 25.531259,32.1556 0.05019,6.8e-4 -0.05331,-0.25077 -0.230013,-0.55877 z m 16.152141,-31.10469 9.2093,-30.224689 -2.47131,-2.331299 c -1.82975,-1.726092 -3.23454,-2.704349 -5.41134,-3.768317 -1.61702,-0.790361 -3.32977,-1.526206 -3.80611,-1.635211 -0.72728,-0.16643 -0.89158,-0.07781 -1.02526,0.553004 -0.0876,0.413157 -1.39764,15.079192 -2.91129,32.591192 -1.513658,17.51201 -2.83629,32.63201 -2.939187,33.60001 -0.102896,0.968 -0.112164,1.688 -0.0206,1.6 0.09157,-0.088 4.310677,-13.76111 9.375797,-30.38469 z m 10.18652,-4.076 c 8.91005,-17.10538 16.2001,-31.18138 16.2001,-31.280003 0,-0.09862 -0.47756,-0.179314 -1.06123,-0.179314 -0.58368,0 -1.91568,0.151342 -2.96,0.336314 -1.04433,0.184973 -2.83478,0.634965 -3.97878,0.999983 -1.144,0.365018 -3.20962,1.244814 -4.59028,1.955102 -1.39445,0.717384 -2.6387,1.588623 -2.79917,1.960017 -0.15888,0.367722 -4.24925,13.678311 -9.08971,29.579091 -4.84046,15.90078 -8.79507,29.00478 -8.78802,29.12 0.007,0.11522 0.205,-0.1505 0.4399,-0.5905 0.23491,-0.44 7.71714,-14.79531 16.62719,-31.90069 z M 86.974416,121.19557 81.20346,92.151133 79.401731,90.705769 c -0.99095,-0.79495 -2.809728,-1.944863 -4.041728,-2.555362 -1.232,-0.610499 -2.705755,-1.199641 -3.275012,-1.309203 L 71.049979,86.641999 76.766676,103.561 c 3.144183,9.30545 7.986302,23.65464 10.760264,31.88709 2.773961,8.23244 5.082911,14.92844 5.130999,14.88 0.04809,-0.0485 -2.509498,-13.15808 -5.683523,-29.13252 z M 52.326295,60.640002 c 0.856429,-1.232 2.705921,-3.68 4.109982,-5.44 1.404062,-1.76 4.940289,-5.582491 7.858283,-8.494425 2.917993,-2.911934 6.889443,-6.560679 8.825443,-8.108322 1.936,-1.547644 5.464,-4.113989 7.84,-5.70299 2.376,-1.589002 4.391119,-2.955375 4.478041,-3.036386 0.08692,-0.08101 -0.705077,0.168762 -1.76,0.555052 -1.054922,0.386289 -3.653416,1.543555 -5.774431,2.571702 -2.121014,1.028147 -5.577015,3.016841 -7.68,4.419319 -2.102986,1.402479 -4.959887,3.545134 -6.348669,4.761456 -1.388783,1.216322 -3.460009,3.278692 -4.602724,4.583044 -1.142716,1.304353 -2.87346,3.580946 -3.846098,5.059097 -0.972637,1.478151 -2.309845,3.926151 -2.971572,5.44 -0.661726,1.51385 -1.431832,3.538379 -1.711344,4.498954 -0.279513,0.960575 -0.388021,1.608575 -0.24113,1.44 0.146892,-0.168575 0.96779,-1.314501 1.824219,-2.546501 z M 107.11334,28.286668 C 107.007,28.180334 106.731,28.168966 106.5,28.261405 c -0.25527,0.102152 -0.17944,0.177978 0.19334,0.193333 0.33733,0.0139 0.52633,-0.06174 0.42,-0.16807 z m 1.6,-0.32 C 108.607,27.860334 108.331,27.848966 108.1,27.941405 c -0.25527,0.102152 -0.17944,0.177978 0.19334,0.193333 0.33733,0.0139 0.52633,-0.06174 0.42,-0.16807 z"
         id="path6" />
      <path
         style="fill:#c3996b;"
         d="M 67.680003,129.2626 C 52.016002,109.35998 39.102123,92.833916 38.982493,92.538012 c -0.11963,-0.295905 -0.22763,-1.405786 -0.24,-2.466404 -0.01237,-1.060617 0.127997,-3.148617 0.311928,-4.64 0.18393,-1.491383 0.699527,-4.351099 1.145771,-6.354925 0.446244,-2.003826 1.364756,-5.316581 2.041137,-7.361678 0.676382,-2.045096 1.971258,-5.474033 2.877503,-7.619858 0.906245,-2.145825 2.6609,-5.67307 3.899233,-7.838322 1.238333,-2.165253 3.343061,-5.448823 4.677173,-7.296823 1.376061,-1.906108 4.234176,-5.163073 6.605211,-7.526971 2.3211,-2.314112 5.5313,-5.119949 7.219554,-6.310162 1.672,-1.178755 4.624,-2.937251 6.56,-3.907768 1.936,-0.970516 5.032,-2.262796 6.88,-2.871732 1.848,-0.608936 4.872,-1.435263 6.72,-1.836281 2.980342,-0.646739 4.24587,-0.729552 11.200001,-0.732906 6.814496,-0.0033 8.342286,0.09108 11.679996,0.721424 2.112,0.398863 5.43575,1.147979 7.3861,1.664704 1.95035,0.516724 4.83925,1.432986 6.41978,2.036138 1.58052,0.603151 4.23278,1.778941 5.8939,2.612865 1.66112,0.833924 4.20322,2.303085 5.6491,3.264801 1.44589,0.961717 3.79428,2.757296 5.21866,3.990177 1.42437,1.232881 3.53089,3.342776 4.68115,4.688656 1.15027,1.34588 2.8833,3.635279 3.85119,5.087553 0.96789,1.452275 2.46828,4.068929 3.33419,5.814787 0.86592,1.745859 2.214,5.093634 2.99575,7.439502 0.78174,2.345867 1.77999,6.065214 2.21832,8.265214 0.43834,2.2 0.94883,5.398324 1.13442,7.107388 0.1856,1.709063 0.33745,5.885945 0.33745,9.281961 0,3.46334 -0.21169,7.984204 -0.48209,10.295832 l -0.48209,4.121256 -7.52056,7.71678 c -4.1363,4.24423 -18.21136,18.48285 -31.27791,31.64138 l -23.757356,23.92459 z m 88.009417,-25.85849 1.91059,-2.0359 -2.32014,-2.176109 c -1.27607,-1.19686 -3.27657,-2.858609 -4.44555,-3.692775 -1.16898,-0.834166 -3.36492,-2.13412 -4.87986,-2.888786 -1.51495,-0.754666 -3.83156,-1.668764 -5.14802,-2.031328 -1.31647,-0.362565 -2.78397,-0.659209 -3.26112,-0.659209 -0.47715,0 -0.93603,-0.110813 -1.01974,-0.246253 -0.0837,-0.135439 0.61236,-1.60255 1.54682,-3.260247 1.08359,-1.922278 1.96542,-3.112549 2.43452,-3.286082 0.40454,-0.149647 1.60797,-0.278556 2.6743,-0.286463 1.06633,-0.0079 2.37079,0.09008 2.89879,0.217742 0.528,0.127666 1.52045,0.513047 2.20545,0.856402 0.685,0.343356 1.94386,1.277569 2.79748,2.076028 0.85362,0.79846 2.13721,2.378304 2.85242,3.510765 0.71522,1.13246 1.71423,3.093814 2.22004,4.358564 0.50581,1.26475 1.21977,3.379545 1.58658,4.699545 l 0.66693,2.399996 -0.19408,-1.892852 c -0.10675,-1.041071 -0.47723,-2.985071 -0.82329,-4.32 -0.34607,-1.33493 -1.19355,-3.600047 -1.88328,-5.033595 -0.68974,-1.433548 -1.96439,-3.383659 -2.83257,-4.33358 -0.86817,-0.94992 -2.29653,-2.117932 -3.17413,-2.595581 -0.8776,-0.477649 -2.31828,-1.0055 -3.20151,-1.173002 -1.03648,-0.196564 -2.31041,-0.191086 -3.59288,0.01545 -1.09285,0.175998 -2.02585,0.27796 -2.07335,0.226581 -0.0475,-0.05138 0.26171,-1.605417 0.6871,-3.453417 0.49878,-2.16682 0.8443,-4.902161 0.97299,-7.702729 0.12551,-2.731708 0.0549,-5.491863 -0.19037,-7.440379 -0.21444,-1.703708 -0.7453,-4.425648 -1.17967,-6.048755 -0.43437,-1.623107 -1.37762,-4.291505 -2.09611,-5.929773 -0.71849,-1.638268 -2.32124,-4.522101 -3.56166,-6.408517 -1.57162,-2.390082 -3.37862,-4.548773 -5.96071,-7.120813 -2.12532,-2.117044 -4.93349,-4.519437 -6.58539,-5.633797 -1.584,-1.068558 -3.24,-2.111784 -3.68,-2.318279 l -0.8,-0.375447 0.79513,0.569244 c 0.43733,0.313084 1.88226,1.38457 3.21097,2.38108 1.3287,0.99651 3.93489,3.384159 5.79152,5.305887 1.88248,1.948487 4.31635,4.907029 5.50223,6.688369 1.1696,1.756875 2.62574,4.274767 3.23587,5.595316 0.61013,1.320548 1.46623,3.471456 1.90243,4.779794 0.43621,1.308339 1.03127,3.530798 1.32237,4.938798 0.2911,1.408 0.6074,4.144 0.70289,6.080001 0.0955,1.936 0.007,4.888 -0.19573,6.56 -0.20314,1.672 -0.6084,4.3 -0.90056,5.84 -0.29216,1.54 -0.61129,2.790984 -0.70916,2.779964 -0.0979,-0.01102 -0.68195,-1.055019 -1.29795,-2.32 -0.76681,-1.574674 -1.82639,-3.016149 -3.36,-4.571052 -1.61983,-1.64231 -2.90447,-2.595503 -4.64001,-3.442843 -1.71674,-0.838168 -3.12514,-1.262233 -4.94713,-1.489569 -1.73431,-0.216396 -3.41923,-0.209444 -5.28,0.02178 -1.50308,0.186779 -3.81287,0.700057 -5.13287,1.140618 -1.32,0.440561 -3.8879,1.586123 -5.70644,2.545693 l -3.30644,1.744673 0.18354,-0.884633 c 0.10095,-0.486549 0.40651,-2.324634 0.67904,-4.084634 0.27252,-1.76 1.07272,-6.368001 1.77821,-10.240001 0.7055,-3.872 2.06837,-10.568 3.02859,-14.88 0.96023,-4.312 2.16972,-9.491617 2.68776,-11.510259 0.51804,-2.018642 0.88849,-3.723664 0.82322,-3.788938 -0.0653,-0.06527 -1.0508,2.738343 -2.19006,6.230259 -1.13925,3.491915 -2.72686,8.940938 -3.52801,12.108938 -0.80115,3.168 -1.95773,8.28 -2.57019,11.36 -0.61245,3.08 -1.34219,7.256001 -1.62165,9.280001 -0.27946,2.024 -0.58505,4.152218 -0.6791,4.729374 l -0.17098,1.049375 -1.41458,-1.736546 C 101.45489,71.247105 100.0613,69.803435 99.136056,68.99405 98.210807,68.184665 96.514685,67.031766 95.366895,66.432052 94.219105,65.832339 92.497867,65.11179 91.541923,64.830832 90.478494,64.518284 88.604147,64.32 86.713111,64.32 c -2.041734,0 -3.94982,0.218156 -5.62192,0.642767 -1.392153,0.353521 -3.971188,1.361375 -5.731188,2.239674 -1.76,0.8783 -4.405075,2.466648 -5.877945,3.529662 l -2.677945,1.932754 0.223626,-1.212428 c 0.122995,-0.666836 0.803117,-3.012428 1.511383,-5.212428 0.708267,-2.200001 2.129194,-5.768953 3.157617,-7.931006 1.028423,-2.162052 2.78687,-5.330052 3.90766,-7.04 1.120789,-1.709947 3.140517,-4.422806 4.488282,-6.028576 1.347766,-1.605769 3.426272,-3.782064 4.618903,-4.836211 1.19263,-1.054148 3.176419,-2.668239 4.408419,-3.586871 1.232,-0.918631 3.608001,-2.436375 5.280001,-3.372765 1.672,-0.936389 4.345352,-2.217085 5.940786,-2.84599 1.59543,-0.628906 4.18743,-1.496316 5.76,-1.927577 1.57257,-0.431261 2.64321,-0.793349 2.37921,-0.80464 -0.264,-0.01129 -1.86655,0.332717 -3.56122,0.76446 -1.69468,0.431743 -4.1817,1.22214 -5.526716,1.756438 -1.345017,0.534298 -3.486465,1.493084 -4.758773,2.130635 -1.272308,0.637551 -3.465288,1.913588 -4.873288,2.835638 -1.408,0.92205 -3.136,2.135963 -3.84,2.697586 -0.704,0.561622 -2.555151,2.273874 -4.11367,3.805004 -1.558518,1.531131 -3.742757,3.941505 -4.853864,5.356388 -1.111106,1.414882 -2.735561,3.725923 -3.609899,5.135646 -0.874338,1.409723 -2.125276,3.626633 -2.779861,4.926467 -0.654586,1.299833 -1.807374,3.956793 -2.561752,5.904354 -0.754377,1.947561 -1.771634,5.099425 -2.26057,7.004143 -0.81819,3.18737 -0.941983,3.446878 -1.55468,3.259104 -0.366138,-0.11221 -1.699329,-0.365797 -2.962648,-0.563526 -1.697913,-0.26575 -2.901387,-0.265948 -4.614647,-7.6e-4 -1.429504,0.221266 -3.210943,0.800209 -4.648551,1.510714 -1.281966,0.633582 -3.1381,1.889751 -4.124744,2.791488 -0.986644,0.901736 -2.416358,2.517097 -3.177144,3.589689 -0.760786,1.072592 -1.924033,3.030168 -2.584994,4.350168 -0.660961,1.32 -1.541774,3.303288 -1.957362,4.407306 -0.415589,1.104018 -0.755522,2.112018 -0.755408,2.24 1.14e-4,0.127982 1.008854,-1.538456 2.241644,-3.703195 1.23279,-2.164739 2.845859,-4.756739 3.584599,-5.76 0.73874,-1.003261 2.088998,-2.5725 3.000573,-3.487197 0.911576,-0.914698 2.358413,-2.107864 3.215194,-2.65148 0.85678,-0.543616 2.472951,-1.271228 3.59149,-1.616914 1.118539,-0.345686 2.888945,-0.62852 3.934235,-0.62852 1.045291,0 2.794876,0.224653 3.887967,0.499228 l 1.987439,0.499229 1.850538,5.500772 c 1.017796,3.025424 1.844166,5.572771 1.836378,5.660771 -0.0078,0.088 -0.913283,0.200451 -2.012212,0.24989 -1.098928,0.04944 -2.862052,0.299915 -3.918052,0.556612 -1.056,0.256696 -3.288,1.152246 -4.96,1.99011 -2.011605,1.008045 -3.04,1.703509 -3.04,2.055835 0,0.292846 8.424,14.712982 18.720001,32.044742 10.296,17.33176 18.765012,31.47115 18.820027,31.42086 0.05501,-0.0503 -5.020986,-15.24709 -11.280001,-33.77067 C 74.561015,102.1038 69.440003,86.824813 69.440003,86.674074 c 0,-0.150739 0.216,-0.274071 0.48,-0.274071 0.264,0 0.48,-0.04004 0.48,-0.08897 0,-0.04894 -0.864,-2.577123 -1.92,-5.618196 -1.056,-3.041072 -1.92,-5.716412 -1.92,-5.945199 0,-0.228787 1.14468,-1.261699 2.543735,-2.29536 1.399054,-1.03366 3.667054,-2.494943 5.04,-3.247295 1.372946,-0.752352 3.864265,-1.810601 5.536265,-2.351663 1.965848,-0.636153 4.0106,-1.046896 5.786932,-1.162461 1.979179,-0.128762 3.432871,-0.0261 5.201146,0.3673 1.349817,0.300306 3.425698,1.032675 4.613068,1.627486 1.18737,0.594812 2.959242,1.795782 3.937493,2.668823 0.978248,0.873041 2.358598,2.35644 3.067448,3.296443 l 1.2888,1.709095 -0.48591,5.514868 c -0.26725,3.033177 -0.4236,5.575488 -0.34744,5.649578 0.0761,0.07409 0.42646,0.1844 0.77846,0.245132 0.6051,0.104399 0.66619,-0.193981 1.12,-5.470469 l 0.48,-5.580891 2.56,-1.214161 c 1.408,-0.667788 4.144,-1.737131 6.08,-2.376318 2.90965,-0.960645 4.13287,-1.190687 7.05452,-1.326693 2.76727,-0.128819 3.94814,-0.04512 5.44,0.385595 1.04802,0.302571 2.74247,0.994208 3.76545,1.536969 1.14635,0.608216 2.69611,1.882175 4.03928,3.320435 1.19863,1.283477 2.66565,3.277957 3.26004,4.432178 l 1.08072,2.098582 -1.84682,3.489448 c -1.6362,3.09149 -1.77771,3.501212 -1.24089,3.592598 0.51221,0.0872 -2.25852,5.570313 -17.91318,35.449203 -10.18552,19.44034 -18.519116,35.39592 -18.519116,35.45685 0,0.0609 12.352236,-12.31679 27.449416,-27.50606 15.09718,-15.18926 28.30918,-28.533 29.36,-29.65274 z m -56.468782,18.74395 c 2.228532,-25.434993 2.990992,-35.340413 2.734722,-35.527576 -0.19545,-0.142735 -1.58753,-0.189889 -3.093512,-0.104786 -1.505986,0.0851 -3.657656,0.392999 -4.781489,0.684213 -1.123832,0.291214 -2.941044,0.936523 -4.038248,1.434019 -1.097203,0.497496 -3.018063,1.566408 -4.268576,2.375361 -1.250514,0.808953 -2.362566,1.702508 -2.471229,1.985678 -0.108662,0.283169 2.667867,14.957821 6.170065,32.610341 3.502198,17.65252 6.43301,32.03144 6.512915,31.95315 0.0799,-0.0783 1.535814,-16.01298 3.235352,-35.4104 z m -8.284142,33.61195 C 90.586858,155.18801 81.918158,140.60801 71.672718,123.36 61.427279,106.112 52.828666,91.753951 52.564689,91.453221 c -0.263976,-0.300731 -1.218111,-0.791959 -2.1203,-1.091618 -0.969925,-0.322157 -2.592151,-0.538701 -3.969174,-0.529828 -1.904127,0.01227 -2.663144,0.182168 -4.162022,0.931618 -1.008255,0.504136 -1.833191,1.11031 -1.833191,1.347054 0,0.236744 11.438778,14.888743 25.419506,32.560003 13.980729,17.67126 25.476474,32.12956 25.5461,32.12956 0.06963,0 -0.159474,-0.468 -0.509112,-1.04 z m 16.760264,-31.56793 8.92147,-29.247922 -2.41734,-2.272077 c -1.32954,-1.249643 -3.28863,-2.783245 -4.35353,-3.408006 -1.0649,-0.624761 -2.74343,-1.410322 -3.73008,-1.745692 -1.11938,-0.380491 -1.89438,-0.494823 -2.06114,-0.304072 -0.14699,0.168131 -1.52624,14.849689 -3.06499,32.625689 -1.538754,17.77601 -2.862144,33.18401 -2.940867,34.24001 l -0.143132,1.92 0.434065,-1.28 c 0.238737,-0.704 4.448734,-14.44157 9.355544,-30.52793 z m 9.36679,-2.11208 c 8.98445,-17.248 16.44081,-31.634924 16.56969,-31.970947 0.22195,-0.578639 0.10953,-0.599351 -2.12561,-0.391617 -1.29797,0.120634 -3.23018,0.439446 -4.29379,0.708471 -1.06361,0.269025 -3.40483,1.201363 -5.20271,2.071861 -1.79788,0.870499 -3.40152,1.834615 -3.56365,2.142481 -0.16213,0.307865 -4.27113,13.602811 -9.13113,29.544331 -4.85999,15.94152 -8.83635,29.10552 -8.83635,29.25334 0,0.14781 0.0558,0.20875 0.1241,0.13542 0.0682,-0.0733 7.475,-14.24533 16.45945,-31.49334 z M 87.060388,121.39935 81.292786,92.320004 79.766395,90.953417 c -0.839516,-0.751622 -2.678392,-1.940255 -4.086392,-2.641406 -1.408,-0.701151 -3.047286,-1.368044 -3.642857,-1.481985 -0.670628,-0.1283 -1.036087,-0.0856 -0.96,0.112167 0.06757,0.175632 4.940922,14.591427 10.829668,32.035097 5.888746,17.44367 10.755043,31.66753 10.813993,31.60858 0.05895,-0.059 -2.488239,-13.19289 -5.660419,-29.18652 z M 54.124763,58.240002 c 1.520619,-2.024 4.196488,-5.2671 5.946377,-7.206889 1.749889,-1.93979 4.753747,-4.995388 6.67524,-6.790219 1.921492,-1.794831 5.168244,-4.599731 7.215004,-6.233111 2.046759,-1.63338 5.458468,-4.118073 7.581575,-5.52154 2.123106,-1.403468 3.818789,-2.593164 3.768184,-2.643769 -0.05061,-0.05061 -1.323934,0.404633 -2.829618,1.011642 -1.505685,0.607009 -3.795989,1.636337 -5.089565,2.287396 -1.293577,0.651058 -3.621061,1.956569 -5.172187,2.901134 -1.551126,0.944566 -3.999126,2.608354 -5.44,3.697307 -1.440874,1.088953 -3.992035,3.356495 -5.669246,5.038982 -1.778073,1.783665 -3.943246,4.401651 -5.193195,6.279272 -1.179046,1.771113 -2.636947,4.291113 -3.23978,5.600001 -0.602833,1.308887 -1.397895,3.303577 -1.766805,4.432644 -0.36891,1.129068 -0.663192,2.137068 -0.65396,2.24 0.0092,0.102933 0.261231,-0.17285 0.56,-0.61285 0.298768,-0.44 1.787357,-2.456 3.307976,-4.48 z M 110.31334,27.646668 C 110.207,27.540334 109.931,27.528966 109.7,27.621405 c -0.25527,0.102152 -0.17944,0.177978 0.19334,0.193333 0.33733,0.0139 0.52633,-0.06174 0.42,-0.16807 z"
         id="path5" />
      <path
         style="fill:#c3996b;"
         d="M 67.618633,129.0964 39.077262,92.837942 41.018044,89.218973 c 1.06743,-1.990433 2.64657,-4.642051 3.509201,-5.892484 0.862631,-1.250433 2.608896,-3.278187 3.880589,-4.506121 1.271692,-1.227934 2.963718,-2.611519 3.760058,-3.074633 0.796339,-0.463115 2.380339,-1.081174 3.52,-1.373464 1.433852,-0.367742 2.762082,-0.477551 4.31211,-0.356498 1.232,0.09622 2.815998,0.366657 3.519994,0.600978 l 1.279994,0.426039 1.82045,5.278606 c 1.001248,2.903234 1.829251,5.368001 1.840007,5.47726 0.01076,0.109259 -1.007626,0.299868 -2.26307,0.423577 -1.255444,0.123708 -3.235444,0.519027 -4.4,0.878487 -1.164556,0.35946 -3.239739,1.217657 -4.611517,1.907106 -1.371778,0.689448 -2.573352,1.459959 -2.670164,1.712246 -0.100494,0.261884 7.883108,14.022218 18.606287,32.069318 10.330269,17.38584 18.919572,31.75462 19.087339,31.93062 0.167767,0.176 -0.703099,-2.632 -1.935257,-6.24 C 89.041906,144.87201 83.850306,129.536 78.737175,114.4 73.624044,99.264004 69.440444,86.772003 69.440288,86.640003 c -1.57e-4,-0.132 0.215715,-0.24 0.479715,-0.24 0.264,0 0.48,-0.06036 0.48,-0.134133 0,-0.07377 -0.882581,-2.672714 -1.961292,-5.775423 l -1.961291,-5.64129 0.761291,-0.816414 c 0.41871,-0.449027 2.137879,-1.734688 3.820375,-2.857024 1.682495,-1.122337 4.016951,-2.47493 5.187679,-3.005764 1.170728,-0.530833 3.250141,-1.282598 4.620917,-1.670589 1.839747,-0.520731 3.372083,-0.707247 5.852321,-0.712346 2.568022,-0.0053 3.891118,0.157826 5.613289,0.691985 1.239308,0.384391 3.114764,1.255692 4.16768,1.936224 1.052916,0.680532 2.432329,1.692086 3.065362,2.247896 0.633036,0.555811 1.769596,1.812419 2.525696,2.792463 l 1.37472,1.781898 -0.39669,5.021259 c -0.21818,2.761692 -0.46148,5.253021 -0.54067,5.536287 -0.11697,0.418453 -0.78766,0.546205 -3.576677,0.681286 -2.525235,0.122305 -4.093161,0.389005 -5.931003,1.00885 -1.374061,0.463427 -3.246061,1.218786 -4.16,1.678576 -0.913939,0.45979 -2.556776,1.421343 -3.65075,2.136786 -1.093974,0.715442 -2.041382,1.453505 -2.105353,1.640139 -0.06397,0.186634 2.769443,14.847331 6.296475,32.579331 3.527031,17.73201 6.492525,32.24001 6.589986,32.24001 0.09746,0 1.519685,-15.444 3.160499,-34.32001 1.640813,-18.876 3.062223,-34.866801 3.158683,-35.535118 0.12894,-0.893305 0.31223,-1.189064 0.69207,-1.116731 0.28418,0.05411 0.55957,0.397031 0.61198,0.762037 0.0524,0.365005 -1.2153,15.609082 -2.81714,33.875732 -1.601846,18.26665 -2.868731,33.49631 -2.815301,33.8437 0.05343,0.34738 4.237141,-12.95716 9.297141,-29.56565 5.06,-16.60849 9.2,-30.41704 9.2,-30.685667 0,-0.268627 -0.54,-0.997811 -1.2,-1.620409 -0.66,-0.622597 -1.848,-1.644909 -2.64,-2.271803 -0.792,-0.626894 -2.376,-1.646707 -3.52,-2.266251 -1.144,-0.619544 -2.692,-1.305251 -3.44,-1.523792 -1.16088,-0.339175 -1.36,-0.522346 -1.36,-1.25112 0,-0.469574 0.14576,-2.426781 0.32391,-4.349348 0.17815,-1.922567 0.40111,-4.095191 0.49548,-4.828054 l 0.17157,-1.332476 3.37292,-1.477153 c 1.8551,-0.812434 4.62013,-1.842699 6.14452,-2.289477 1.57957,-0.462954 4.01026,-0.887485 5.6516,-0.98708 1.59438,-0.09675 3.73709,-0.01549 4.8,0.18203 1.056,0.196233 2.81625,0.795928 3.91166,1.332656 1.09542,0.536727 2.79914,1.713855 3.78605,2.615839 0.98692,0.901984 2.36919,2.486396 3.07172,3.520915 0.70253,1.034519 1.49365,2.398697 1.75806,3.031507 0.47802,1.144065 0.47061,1.170043 -1.31141,4.59983 -1.56229,3.006869 -1.71722,3.462518 -1.20795,3.552577 0.48403,0.0856 -2.58888,6.159057 -17.92354,35.425076 -10.17925,19.42697 -18.458666,35.37082 -18.398699,35.43079 0.05997,0.06 13.241179,-13.12281 29.291569,-29.29505 16.0504,-16.17225 29.18255,-29.5418 29.18255,-29.71011 0,-0.16832 -1.04932,-1.30278 -2.33181,-2.521023 -1.2825,-1.218244 -3.56646,-3.036496 -5.07547,-4.04056 -1.50902,-1.004064 -3.66371,-2.242636 -4.7882,-2.752383 -1.12449,-0.509747 -3.05252,-1.21961 -4.28452,-1.577474 -1.232,-0.357864 -2.76673,-0.736889 -3.41051,-0.842276 l -1.1705,-0.191613 1.70966,-3.110572 c 1.19921,-2.181865 1.93085,-3.172841 2.4505,-3.319136 0.40747,-0.114711 1.70744,-0.222919 2.88884,-0.240462 1.47497,-0.0219 2.72025,0.182209 3.97437,0.651435 1.3581,0.508131 2.38121,1.238169 3.99036,2.847327 1.72391,1.723904 2.49202,2.837691 3.77694,5.476667 0.88712,1.821971 1.97789,4.608674 2.42393,6.192674 l 0.81098,2.879996 -0.17507,-1.972573 c -0.0963,-1.084918 -0.46529,-3.028918 -0.82,-4.320001 -0.35471,-1.291082 -1.21325,-3.527537 -1.90788,-4.969899 -0.7718,-1.60261 -1.95611,-3.371173 -3.04534,-4.547665 -1.13969,-1.231003 -2.43569,-2.234253 -3.59421,-2.782319 -1.28778,-0.609217 -2.36864,-0.867313 -3.73695,-0.892335 -1.05882,-0.01936 -2.55423,0.07723 -3.32315,0.214656 -1.26252,0.225645 -1.37628,0.194631 -1.17371,-0.32 0.12336,-0.313423 0.50875,-1.793861 0.85641,-3.289861 0.42847,-1.843691 0.688,-4.42107 0.80557,-8 0.13307,-4.050824 0.0512,-6.024777 -0.3517,-8.47923 -0.28883,-1.759577 -1.01484,-4.662636 -1.61334,-6.451244 -0.59851,-1.788607 -1.61615,-4.308954 -2.26144,-5.60077 -0.64528,-1.291817 -1.93565,-3.500757 -2.86747,-4.908757 -0.93183,-1.408 -2.56538,-3.545641 -3.63012,-4.750313 -1.06473,-1.204672 -2.9867,-3.117422 -4.27103,-4.250556 -1.28433,-1.133134 -3.48715,-2.828169 -4.89515,-3.766745 -1.408,-0.938576 -3.244,-2.099509 -4.08,-2.579852 -0.836,-0.480342 -1.52,-0.79941 -1.52,-0.709041 0,0.09037 0.54,0.491894 1.2,0.892277 0.66,0.400383 2.26338,1.507487 3.56306,2.460231 1.29969,0.952743 3.58647,2.904902 5.08174,4.33813 1.49528,1.433227 3.63167,3.773141 4.74754,5.199808 1.11587,1.426666 2.74521,3.811065 3.62076,5.298663 0.87556,1.487598 2.09115,3.943065 2.70132,5.456592 0.61017,1.513528 1.40781,3.95313 1.77253,5.421338 0.36472,1.468207 0.82333,4.109468 1.01913,5.869468 0.20348,1.82903 0.26332,4.570971 0.13968,6.400001 -0.11898,1.76 -0.49282,4.833537 -0.83075,6.830082 -0.33793,1.996546 -0.6957,3.761601 -0.79505,3.922347 -0.0993,0.160745 -0.69381,-0.733527 -1.32103,-1.987271 -0.6783,-1.355849 -1.9821,-3.171773 -3.21759,-4.481463 -1.54249,-1.635119 -2.71837,-2.522848 -4.56802,-3.44863 -1.5414,-0.771491 -3.38141,-1.396916 -4.82721,-1.640782 -1.38198,-0.233102 -3.25746,-0.309224 -4.59124,-0.186349 -1.24017,0.114253 -3.39486,0.514456 -4.78818,0.88934 -1.39332,0.374885 -4.30554,1.569383 -6.47161,2.65444 -3.40502,1.705695 -3.91872,1.883155 -3.79375,1.310558 0.0795,-0.364249 0.65746,-3.758272 1.28437,-7.542272 0.62692,-3.784001 1.64966,-9.472001 2.27276,-12.640001 0.6231,-3.168 1.77242,-8.568 2.55403,-12 0.78162,-3.432001 1.78041,-7.593654 2.21953,-9.248118 0.43913,-1.654465 0.74441,-3.062128 0.67839,-3.12814 -0.066,-0.06601 -0.6429,1.359641 -1.28197,3.168118 -0.63908,1.808477 -1.60329,4.728139 -2.14268,6.488139 -0.5394,1.760001 -1.54642,5.389563 -2.23782,8.065696 -0.69141,2.676132 -1.82366,7.644132 -2.51611,11.04 -0.69246,3.395868 -1.48927,7.830306 -1.77069,9.854306 -0.28143,2.024 -0.58902,4.154329 -0.68355,4.734065 l -0.17186,1.054066 -2.27884,-2.440151 c -1.25335,-1.342084 -3.134955,-3.021537 -4.181333,-3.732118 -1.046378,-0.710581 -2.748073,-1.635552 -3.781546,-2.055489 -1.033473,-0.419938 -2.956976,-0.923846 -4.274451,-1.119796 -1.788499,-0.266006 -3.043779,-0.261468 -4.954463,0.01791 -1.40748,0.2058 -3.577232,0.720487 -4.821671,1.143748 -1.244439,0.423261 -3.516048,1.430703 -5.04802,2.23876 -1.531972,0.808057 -3.829403,2.249429 -5.105403,3.203049 -1.276,0.953619 -2.32,1.654819 -2.32,1.55822 0,-0.0966 0.288493,-1.305548 0.641095,-2.686556 0.352603,-1.381007 1.08793,-3.781 1.634061,-5.333316 0.546131,-1.552317 1.672094,-4.262394 2.50214,-6.022394 0.830046,-1.76 2.26648,-4.418369 3.192076,-5.907486 0.925595,-1.489118 2.587944,-3.865118 3.694109,-5.28 1.106165,-1.414883 3.590053,-4.096507 5.519751,-5.959165 1.948874,-1.881169 4.923534,-4.32865 6.691632,-5.50572 1.750699,-1.165488 4.69105,-2.836794 6.534113,-3.714014 1.843063,-0.87722 4.50043,-1.978422 5.90526,-2.447117 1.40483,-0.468694 3.70883,-1.113255 5.12,-1.432357 1.41117,-0.319103 2.31125,-0.592326 2.00018,-0.607164 -0.31107,-0.01484 -1.95891,0.274898 -3.66186,0.643858 -1.70296,0.368959 -4.32845,1.102813 -5.83442,1.630787 -1.505976,0.527974 -4.178136,1.677294 -5.938136,2.554044 -1.76,0.876751 -4.352001,2.370608 -5.760001,3.319682 -1.408,0.949075 -3.799352,2.798943 -5.314116,4.110818 -1.514764,1.311876 -3.880968,3.728164 -5.258231,5.369531 -1.377263,1.641367 -3.357101,4.280303 -4.39964,5.864303 -1.04254,1.584 -2.654096,4.392 -3.581237,6.24 -0.927141,1.848 -2.196276,4.728 -2.820299,6.4 -0.624023,1.672 -1.532104,4.552001 -2.017959,6.400001 -0.485854,1.848 -0.894717,3.385188 -0.908584,3.415973 -0.01387,0.03078 -0.888026,-0.146966 -1.942574,-0.395002 -1.054548,-0.248036 -2.738273,-0.453223 -3.74161,-0.455973 -1.003337,-0.0027 -2.587337,0.153648 -3.52,0.347549 -0.932663,0.193901 -2.630484,0.805901 -3.772936,1.36 -1.199348,0.581695 -2.991506,1.869332 -4.240704,3.046879 -1.189936,1.121684 -2.744848,2.921684 -3.455359,4 -0.710511,1.078316 -1.737575,2.885771 -2.282364,4.016567 -0.54479,1.130796 -1.391013,3.146796 -1.880497,4.48 -0.693026,1.88759 -0.943454,2.28827 -1.131652,1.810627 -0.132924,-0.337359 -0.07218,-2.411936 0.134991,-4.61017 0.20717,-2.198235 0.745733,-5.666214 1.196808,-7.70662 0.451075,-2.040407 1.513099,-5.79783 2.360053,-8.34983 0.846955,-2.552 2.208551,-6.124769 3.025769,-7.939487 0.817218,-1.814718 2.226858,-4.622718 3.132534,-6.24 0.905675,-1.617283 2.223685,-3.804514 2.928912,-4.860514 0.705227,-1.056 2.106931,-3.009431 3.114898,-4.340957 1.007967,-1.331527 2.941606,-3.599767 4.296976,-5.040534 1.35537,-1.440766 3.565124,-3.535193 4.910565,-4.654281 1.34544,-1.119089 3.557193,-2.77884 4.915005,-3.688338 1.357812,-0.909497 3.905639,-2.372963 5.661837,-3.252146 1.756198,-0.879183 4.701194,-2.092535 6.544437,-2.696336 1.843242,-0.603801 4.983415,-1.424828 6.978163,-1.824503 3.103426,-0.621814 4.642763,-0.727642 10.666815,-0.733333 5.316376,-0.005 7.901806,0.135404 10.559996,0.57356 1.936,0.319116 5.02043,0.943812 6.85429,1.388215 1.83386,0.444402 4.78586,1.309195 6.56,1.921762 1.77414,0.612566 4.70305,1.815009 6.50868,2.672093 1.80563,0.857085 4.46963,2.333237 5.92,3.280339 1.45037,0.947101 3.88551,2.764099 5.41143,4.037772 1.52592,1.273674 3.73465,3.422977 4.90828,4.776229 1.17364,1.353252 3.05509,3.839033 4.181,5.523959 1.12591,1.684925 2.82589,4.708925 3.77774,6.72 0.95185,2.011075 2.18418,5.081746 2.73851,6.823714 0.55433,1.741968 1.27964,4.333968 1.6118,5.76 0.33216,1.426032 0.86527,4.248786 1.18468,6.272786 0.46118,2.922293 0.5779,5.491908 0.56688,12.48 -0.009,5.885044 -0.15162,9.488991 -0.42971,10.880001 -0.22871,1.143997 -0.43782,2.400287 -0.4647,2.791737 -0.0321,0.46683 -2.80801,3.49489 -8.06736,8.8 -4.41017,4.44855 -18.45017,18.61711 -31.2,31.48569 l -23.181516,23.39742 z m 23.98322,27.62361 C 91.42777,156.50001 82.823417,142.06401 72.481069,124.64 62.138721,107.216 53.337527,92.504243 52.922861,91.947202 52.428833,91.283551 51.588227,90.734308 50.484462,90.35398 c -1.017881,-0.350735 -2.580086,-0.578147 -3.947727,-0.574675 -1.860518,0.0047 -2.600793,0.17435 -4.160001,0.953222 -1.225139,0.611995 -1.88302,1.133616 -1.858005,1.473177 0.0213,0.289135 9.879091,12.961136 21.906201,28.160006 12.02711,15.19886 23.496669,29.6863 25.487909,32.1943 1.991241,2.508 3.707083,4.56 3.812983,4.56 0.1059,0 0.05011,-0.18 -0.123969,-0.4 z m 26.488337,-36.53811 15.85019,-30.421897 -1.39392,-0.0985 c -0.76665,-0.05418 -2.47162,0.124374 -3.78883,0.396777 -1.3172,0.272404 -3.43052,0.910804 -4.69627,1.418668 -1.26574,0.507864 -3.00652,1.338681 -3.8684,1.84626 -0.86187,0.507579 -1.68919,1.137504 -1.8385,1.399834 -0.1493,0.26233 -4.23493,13.508958 -9.07916,29.436958 -4.84423,15.92801 -8.88425,29.24801 -8.97782,29.60001 -0.0936,0.352 0.30522,-0.21415 0.8862,-1.25811 0.58098,-1.04396 8.18891,-15.58796 16.90651,-32.32 z m -31.016209,1.10891 C 82.034269,95.971219 81.233743,92.311803 80.582667,91.617284 80.174202,91.181565 78.9011,90.200372 77.753552,89.436856 76.606004,88.67334 74.950004,87.770344 74.073552,87.430197 73.1971,87.09005 72.105829,86.72184 71.648504,86.611952 l -0.831498,-0.199796 1.973241,5.673924 c 1.085283,3.120658 5.989558,17.60762 10.898389,32.19325 4.908832,14.58563 8.972139,26.37836 9.029572,26.20606 0.05743,-0.1723 -2.482469,-13.30986 -5.644227,-29.19458 z M 55.786582,56.166464 c 1.20262,-1.511263 3.662452,-4.362961 5.466294,-6.337107 1.803842,-1.974145 4.923881,-5.053019 6.93342,-6.841941 2.009538,-1.788922 4.589707,-4.001336 5.733707,-4.916474 1.144,-0.915138 3.288098,-2.5246 4.764663,-3.576582 1.476565,-1.051982 3.704841,-2.547569 4.951724,-3.323527 1.246883,-0.775957 2.094533,-1.410832 1.883667,-1.410832 -0.210867,0 -1.503142,0.444661 -2.871724,0.988136 -1.368581,0.543475 -4.049909,1.78674 -5.958506,2.762811 -1.908596,0.97607 -4.716596,2.595072 -6.24,3.597781 -1.523403,1.002708 -3.877525,2.716455 -5.231382,3.808326 -1.353856,1.09187 -3.636261,3.240208 -5.072011,4.774083 -1.43575,1.533875 -3.372417,3.940864 -4.303704,5.348864 -0.931288,1.408 -2.212316,3.599279 -2.846729,4.86951 -0.634414,1.27023 -1.514046,3.38362 -1.954739,4.696421 -0.440693,1.312802 -0.80126,2.567904 -0.80126,2.789117 0,0.221213 0.756,-0.696479 1.68,-2.039315 0.924,-1.342836 2.663961,-3.678008 3.86658,-5.189271 z"
         id="path4" />
      <path
         style="fill:#c3996b;"
         d="M 71.336641,133.68001 C 57.71926,116.388 44.924628,100.1551 42.904125,97.606874 c -2.020503,-2.548221 -3.739442,-4.924221 -3.819864,-5.28 -0.08042,-0.355779 -0.131604,-1.973007 -0.113737,-3.593841 0.01787,-1.620834 0.326554,-4.58949 0.685974,-6.597013 0.359419,-2.007523 1.152808,-5.384809 1.763086,-7.505081 0.610278,-2.120271 1.78069,-5.559615 2.600916,-7.642987 0.820226,-2.083372 2.345033,-5.469045 3.38846,-7.523717 1.043427,-2.054672 3.026529,-5.438672 4.406894,-7.52 1.380364,-2.081328 3.724326,-5.224233 5.208803,-6.984233 1.484478,-1.76 3.958879,-4.312891 5.498669,-5.673091 1.539791,-1.3602 3.909439,-3.255202 5.265885,-4.211116 1.356445,-0.955913 3.974783,-2.532158 5.818528,-3.502766 1.843745,-0.970609 4.792264,-2.260645 6.552264,-2.866748 1.76,-0.606102 4.496,-1.400593 6.08,-1.765536 1.584,-0.364943 4.392,-0.835579 6.240001,-1.045858 2.067539,-0.23526 5.391009,-0.312689 8.639996,-0.20129 3.14452,0.107816 6.89779,0.461414 9.28,0.874276 2.2,0.381282 4.15725,0.82224 4.34945,0.979908 0.19219,0.157667 0.41998,0.21613 0.50619,0.129918 0.0862,-0.08621 1.71725,0.28143 3.62452,0.816983 1.90727,0.535552 5.05593,1.624199 6.99702,2.419214 1.94108,0.795015 4.4728,1.965702 5.62604,2.601526 1.15323,0.635824 3.38794,2.030965 4.96602,3.100312 1.57808,1.069347 4.22618,3.240268 5.88467,4.824268 1.65848,1.584 3.91284,4.032 5.00967,5.44 1.09684,1.408 2.58421,3.527148 3.30529,4.709217 0.72107,1.182069 1.72821,2.982069 2.23809,4 0.50987,1.017931 1.46155,3.210034 2.11484,4.871341 0.65328,1.661307 1.66787,4.901307 2.25464,7.2 0.58677,2.298694 1.30971,5.763443 1.60652,7.699443 0.29681,1.936 0.6168,6.34368 0.71109,9.794845 0.10571,3.869355 0.0202,7.917579 -0.22303,10.560001 -0.21695,2.356835 -0.5198,4.501151 -0.673,4.765151 -0.20101,0.34638 -0.28126,0.19631 -0.28828,-0.539076 -0.005,-0.560494 -0.219,-2.013897 -0.47477,-3.229785 -0.25577,-1.215887 -0.89493,-3.388635 -1.42035,-4.828329 -0.52542,-1.439693 -1.61852,-3.615232 -2.42911,-4.834531 -0.81059,-1.219299 -2.03199,-2.658998 -2.71421,-3.199332 -0.68223,-0.540333 -1.93552,-1.289904 -2.7851,-1.665712 -1.02011,-0.451243 -2.25131,-0.693466 -3.62544,-0.71326 -1.14441,-0.01648 -2.60743,0.08205 -3.25115,0.218974 l -1.17039,0.248946 0.58656,-2.28033 c 0.3226,-1.254181 0.76052,-3.553367 0.97315,-5.109302 0.24253,-1.774737 0.32179,-4.714484 0.21269,-7.888617 -0.13583,-3.951844 -0.35509,-5.781059 -1.00143,-8.354556 -0.45515,-1.812201 -1.34205,-4.548202 -1.97091,-6.08 -0.62885,-1.531798 -1.72897,-3.793088 -2.44469,-5.025088 -0.71572,-1.232 -1.88274,-3.032 -2.59337,-4 -0.71064,-0.968 -2.14576,-2.731784 -3.18917,-3.919519 -1.0434,-1.187735 -2.99846,-3.075593 -4.34457,-4.195239 -1.34611,-1.119646 -3.52748,-2.756994 -4.84748,-3.63855 -1.32,-0.881556 -3.192,-1.99717 -4.16,-2.479141 -0.968,-0.481972 -1.616,-0.741487 -1.44,-0.576702 0.176,0.164786 1.55112,1.106184 3.05583,2.091996 1.5047,0.985813 3.95622,2.859334 5.44782,4.163381 1.4916,1.304047 3.51948,3.29412 4.5064,4.422384 0.98691,1.128264 2.57926,3.148877 3.53853,4.490252 0.95928,1.341374 2.41157,3.731139 3.22733,5.31059 0.81575,1.57945 1.9096,4.153963 2.43078,5.721138 0.52117,1.567176 1.16161,3.92941 1.4232,5.24941 0.26158,1.32 0.57061,3.696 0.68672,5.28 0.11612,1.584001 0.0546,4.392001 -0.13676,6.240001 -0.19133,1.848 -0.58547,4.692 -0.87586,6.32 -0.29039,1.628 -0.63888,2.96 -0.77442,2.96 -0.13554,0 -0.34495,-0.324 -0.46536,-0.72 -0.12041,-0.396 -0.71216,-1.540795 -1.31501,-2.543989 -0.60284,-1.003194 -1.96217,-2.682059 -3.02073,-3.730813 -1.21204,-1.200806 -2.77695,-2.327238 -4.22656,-3.042286 -1.44005,-0.710332 -3.20023,-1.274248 -4.70121,-1.506139 -1.35764,-0.209744 -3.39621,-0.28034 -4.69547,-0.162604 -1.26288,0.11444 -3.13519,0.4222 -4.16069,0.683911 -1.02549,0.261712 -2.96114,0.913075 -4.30143,1.447474 -1.3403,0.534399 -3.36781,1.515626 -4.50559,2.180504 -1.87662,1.096637 -2.05895,1.146902 -1.9639,0.541405 0.0576,-0.367105 0.62087,-3.763463 1.25164,-7.547463 0.63076,-3.784001 1.92312,-10.696001 2.8719,-15.360001 0.94877,-4.664 2.4536,-11.432 3.34407,-15.040001 0.89046,-3.608 1.68503,-6.848 1.76572,-7.2 0.0807,-0.352 -0.0644,-0.208 -0.32241,0.32 -0.25801,0.528 -1.32107,3.559709 -2.36235,6.737131 -1.04129,3.177421 -2.54882,8.361422 -3.35007,11.52 -0.80126,3.158579 -1.88454,7.83087 -2.40729,10.38287 -0.52276,2.552 -1.23911,6.512 -1.59188,8.800001 -0.35277,2.288 -0.73514,4.852758 -0.8497,5.699462 l -0.2083,1.539462 -1.33747,-1.536978 c -0.73561,-0.845338 -1.95794,-2.114096 -2.716294,-2.819462 -0.758349,-0.705367 -2.270349,-1.828916 -3.36,-2.496777 -1.08965,-0.667861 -2.989182,-1.527048 -4.221182,-1.909304 -1.692595,-0.525165 -3.022008,-0.691127 -5.440001,-0.679119 -2.288437,0.01136 -3.925465,0.218353 -5.746713,0.726626 -1.400692,0.390904 -3.722885,1.285356 -5.160429,1.98767 -1.437544,0.702315 -3.961827,2.196216 -5.609518,3.31978 -1.647691,1.123565 -3.03075,2.007897 -3.073464,1.965183 -0.04271,-0.04271 0.291069,-1.423287 0.74174,-3.067941 0.450671,-1.644653 1.381101,-4.444485 2.067623,-6.221848 0.686522,-1.777363 1.91402,-4.526486 2.727773,-6.109162 0.813753,-1.582676 2.232016,-4.029593 3.151695,-5.437593 0.919679,-1.408 2.562188,-3.663319 3.650022,-5.011821 1.087833,-1.348501 3.375127,-3.774174 5.082877,-5.390384 1.707749,-1.61621 4.696404,-3.998365 6.641455,-5.293678 1.94505,-1.295313 4.758314,-2.924142 6.251698,-3.619622 1.493383,-0.695479 3.999618,-1.71456 5.569418,-2.264623 1.56979,-0.550064 4.52179,-1.346137 6.56,-1.769052 2.0382,-0.422914 3.41782,-0.778163 3.06582,-0.789441 -0.352,-0.01128 -1.84835,0.192147 -3.32522,0.452055 -1.47688,0.259909 -3.78088,0.769145 -5.12,1.131637 -1.33913,0.362491 -3.44278,1.035199 -4.674776,1.494906 -1.232,0.459707 -3.248,1.335618 -4.48,1.946468 -1.232,0.61085 -3.464001,1.904326 -4.960001,2.874391 -1.496,0.970065 -3.827311,2.6859 -5.180691,3.812967 -1.353381,1.127066 -3.418667,3.083913 -4.589524,4.348548 -1.170858,1.264634 -2.981854,3.43138 -4.024436,4.814991 -1.042582,1.38361 -2.69302,3.870581 -3.66764,5.526602 -0.97462,1.656021 -2.394223,4.416096 -3.154672,6.133501 -0.76045,1.717406 -1.89005,4.706555 -2.510222,6.642556 -0.620173,1.936 -1.309686,4.350269 -1.532251,5.365044 -0.362652,1.653488 -0.474013,1.822779 -1.072615,1.630595 -0.367372,-0.117946 -1.17195,-0.33278 -1.78795,-0.477409 -0.616,-0.144629 -2.133745,-0.266397 -3.372768,-0.270596 -1.239023,-0.0042 -3.099293,0.212857 -4.133935,0.482347 -1.034641,0.26949 -2.737928,0.946631 -3.785082,1.504759 -1.047154,0.558127 -2.732767,1.830858 -3.745805,2.82829 -1.013039,0.997432 -2.416071,2.660291 -3.11785,3.695242 -0.701779,1.03495 -1.653987,2.629173 -2.116018,3.542717 -0.462031,0.913544 -1.273966,2.753293 -1.804299,4.08833 -0.530334,1.335038 -0.964244,2.67228 -0.964244,2.971649 0,0.299369 0.873903,-1.02717 1.942005,-2.947865 1.068103,-1.920694 2.669142,-4.544013 3.557866,-5.829596 0.888723,-1.285584 2.6079,-3.273266 3.820394,-4.417071 1.212493,-1.143805 3.031454,-2.495135 4.042135,-3.002957 1.010681,-0.507821 2.600689,-1.085349 3.533352,-1.283395 0.932663,-0.198046 2.300663,-0.35026 3.04,-0.338253 0.739337,0.01201 2.26235,0.264007 3.384473,0.56 l 2.040224,0.538169 1.698248,4.880113 c 0.934037,2.684063 1.782987,5.147101 1.886556,5.473419 0.166885,0.525808 -0.05819,0.616318 -1.978472,0.795596 -1.191729,0.111261 -3.03078,0.42663 -4.08678,0.700821 -1.056,0.274191 -3.072,1.057981 -4.48,1.741757 -1.408,0.683775 -2.828253,1.44332 -3.156117,1.687878 -0.559855,0.417601 0.568612,2.403357 18.551296,32.644573 10.531077,17.70996 19.190508,32.15683 19.243181,32.10415 0.05267,-0.0527 -5.094588,-15.47341 -11.438359,-34.26831 -6.34377,-18.79489 -11.488661,-34.218003 -11.43309,-34.273574 0.05557,-0.05557 0.404709,-0.02163 0.775861,0.07543 0.577092,0.150913 1.661448,3.103481 7.487412,20.387314 3.746925,11.11596 8.72143,25.82684 11.054457,32.69084 2.333026,6.864 4.247716,12.336 4.254864,12.16 0.0071,-0.176 -2.631079,-13.63596 -5.862729,-29.91102 L 81.361051,92.337983 79.782778,90.886757 c -0.86805,-0.798175 -2.434796,-1.907749 -3.481658,-2.46572 -1.046861,-0.557972 -2.790273,-1.26107 -3.874247,-1.562442 L 70.45601,86.310646 68.513013,80.556667 c -1.068649,-3.164689 -1.85877,-5.890263 -1.755825,-6.056832 0.102945,-0.166569 1.267046,-1.101456 2.58689,-2.077526 1.319844,-0.976071 3.592682,-2.409296 5.050751,-3.184946 1.458069,-0.775649 3.711716,-1.771678 5.008104,-2.213398 1.296389,-0.441719 3.65307,-0.965566 5.23707,-1.164104 2.40524,-0.301471 3.287013,-0.277286 5.349028,0.146713 1.357965,0.27923 3.371915,0.912883 4.475445,1.408118 1.103529,0.495234 2.816753,1.550764 3.807163,2.345621 0.990411,0.794857 2.539181,2.307956 3.441711,3.362442 1.01557,1.186558 1.64293,2.222139 1.64612,2.717248 0.003,0.44 -0.14948,2.672 -0.33846,4.96 -0.18899,2.288 -0.40363,4.463494 -0.47697,4.834431 -0.12316,0.622889 -0.39665,0.687204 -3.578696,0.841579 -2.73467,0.132671 -4.095695,0.383681 -6.598272,1.216901 -1.909466,0.635747 -4.24422,1.73211 -5.92,2.779938 -1.521888,0.951603 -2.942294,1.900872 -3.156459,2.109488 -0.304989,0.297086 1.012869,7.43645 6.08,32.9378 3.558165,17.90718 6.541391,32.55873 6.629391,32.55902 0.088,2.8e-4 1.504792,-15.44341 3.148427,-34.31932 1.643639,-18.87591 3.068119,-34.938451 3.165509,-35.694536 0.1335,-1.036314 0.30373,-1.350584 0.69157,-1.276731 0.28297,0.05388 0.55526,0.384497 0.60509,0.734699 0.0498,0.350202 -1.20674,15.540728 -2.79239,33.756728 -1.585644,18.21601 -2.965008,33.6906 -3.065252,34.38799 -0.100243,0.69739 -0.109667,1.1954 -0.02094,1.10667 0.08872,-0.0887 4.343312,-13.87175 9.454652,-30.62894 5.11133,-16.7572 9.29333,-30.734312 9.29333,-31.060255 0,-0.325944 -0.756,-1.30436 -1.68,-2.174259 -0.924,-0.869899 -2.328,-2.023416 -3.12,-2.563371 -0.792,-0.539955 -2.16,-1.34489 -3.04,-1.788744 -0.88,-0.443854 -2.212,-0.990018 -2.96,-1.213699 -0.98644,-0.294985 -1.36,-0.575419 -1.36,-1.020972 0,-0.337853 0.14751,-2.36706 0.32779,-4.509348 0.18028,-2.142288 0.40533,-4.376486 0.50009,-4.964884 0.15932,-0.989183 0.39389,-1.174271 3.11222,-2.455751 1.61695,-0.762265 3.8759,-1.698594 5.0199,-2.08073 1.144,-0.382136 3.13667,-0.897048 4.42815,-1.144249 1.29149,-0.2472 3.1924,-0.449455 4.22425,-0.449455 1.03186,0 2.63919,0.158646 3.57185,0.352547 0.93267,0.193901 2.63175,0.803433 3.77575,1.354517 1.40049,0.674638 2.81408,1.74095 4.32703,3.264004 1.42238,1.431883 2.69321,3.111141 3.46282,4.575718 l 1.21581,2.313683 -1.78283,3.338568 c -0.98055,1.836213 -1.78282,3.415608 -1.78282,3.509766 0,0.09416 0.2314,0.171197 0.51423,0.171197 0.31101,0 0.44582,0.178292 0.34112,0.451149 -0.0952,0.248131 -8.15589,15.692128 -17.91259,34.319998 -9.75671,18.62787 -18.060283,34.51686 -18.452393,35.30886 -0.671767,1.35686 -0.515816,1.24601 2.701233,-1.92 1.87779,-1.848 15.23672,-15.28317 29.68651,-29.85592 l 26.27234,-26.49592 -1.89523,-1.79909 c -1.04237,-0.989501 -3.04722,-2.660579 -4.45522,-3.713506 -1.408,-1.052927 -4,-2.602241 -5.76,-3.442921 -1.76,-0.840679 -4.08479,-1.754439 -5.16619,-2.030578 -1.08141,-0.27614 -2.23341,-0.504277 -2.56,-0.506972 -0.3266,-0.0027 -0.79288,-0.130974 -1.03617,-0.285065 -0.35284,-0.223468 -0.1,-0.899968 1.24944,-3.342907 1.67907,-3.039693 1.70252,-3.06435 3.11606,-3.276323 0.78335,-0.11747 2.24611,-0.139059 3.25058,-0.04798 1.07052,0.09707 2.54029,0.527402 3.55158,1.039857 0.94889,0.480839 2.45188,1.626047 3.33997,2.544907 0.8881,0.91886 2.10675,2.496192 2.70812,3.505182 0.60137,1.008991 1.58597,3.145926 2.18802,4.748744 0.60204,1.602818 1.3248,3.974911 1.60613,5.271322 l 0.51151,2.3571 -12.30707,12.38503 c -6.76889,6.81177 -20.77649,20.91704 -31.128,31.34504 -10.3515,10.428 -18.858617,18.96 -18.904695,18.96 -0.04608,0 -11.225272,-14.148 -24.842652,-31.44 z m 20.181394,22.88 c -0.387851,-0.66 -9.281476,-15.62834 -19.763609,-33.26297 L 52.696,91.234075 51.16025,90.573413 c -0.844663,-0.363364 -2.389371,-0.749883 -3.432685,-0.858931 -1.456789,-0.152264 -2.406312,-0.04037 -4.092249,0.482233 -1.207423,0.374276 -2.533312,0.944306 -2.946419,1.266734 l -0.751105,0.586232 26.002423,32.855159 c 14.301332,18.07034 26.065554,32.85517 26.142714,32.85517 0.07716,0 -0.177042,-0.54 -0.564894,-1.2 z M 115.3577,125.6 c 8.05578,-15.488 15.58848,-29.947123 16.73932,-32.131389 l 2.09245,-3.971393 -2.69473,0.200251 c -1.48211,0.110137 -3.70274,0.490684 -4.93474,0.845658 -1.232,0.354975 -3.39898,1.216584 -4.81551,1.914688 -1.41653,0.698104 -2.80325,1.528684 -3.08159,1.845734 -0.27835,0.31705 -4.50185,13.680451 -9.38556,29.696451 -4.88372,16.01601 -8.95259,29.40801 -9.04194,29.76001 -0.10807,0.42572 -0.0557,0.53286 0.15648,0.32 0.17542,-0.176 6.91004,-12.992 14.96582,-28.48001 z M 57.42097,54.240002 c 1.168403,-1.408 4.026668,-4.483386 6.351701,-6.834191 2.325032,-2.350805 5.811332,-5.611272 7.747332,-7.245484 1.936,-1.634211 5.148375,-4.135761 7.138612,-5.559001 1.990236,-1.42324 4.402236,-3.056416 5.36,-3.629279 0.957764,-0.572864 1.741388,-1.139329 1.741388,-1.258813 0,-0.119484 -1.09077,0.202774 -2.423933,0.716129 -1.333163,0.513355 -3.485498,1.423847 -4.782967,2.023314 -1.297468,0.599468 -3.735099,1.899799 -5.416956,2.889624 -1.681858,0.989826 -4.463933,2.858816 -6.18239,4.153311 -1.718456,1.294496 -4.562056,3.85021 -6.31911,5.679365 -1.757055,1.829156 -3.912747,4.401077 -4.790427,5.715381 -0.87768,1.314304 -2.135479,3.462544 -2.795109,4.773867 -0.65963,1.311322 -1.561528,3.471813 -2.004218,4.801091 -0.44269,1.329278 -0.804891,2.613524 -0.804891,2.853881 0,0.240357 1.137735,-1.128134 2.5283,-3.041091 1.390565,-1.912957 3.484265,-4.630104 4.652668,-6.038104 z"
         id="path3" />
    </g>
  </g>
</svg>
